<svg width="1920" height="173" viewBox="0 0 1920 173" fill="none" xmlns="http://www.w3.org/2000/svg">
<path d="M-3.5 72.5V3V0H1934V93.5H1907V46H1888.5V131H1860V93.5H1833.5V117.5H1815.5V125.5H1794.5V108H1774.5V83H1755V62H1734.5V121.5H1715V75.5H1694V117.5H1673.5V125.5H1644V146H1624.5V160.5H1605.5V136H1587.5V121.5H1565.5V78H1545V121.5H1525.5V89H1485.5V125.5H1460V96.5H1434.5V115H1414V131H1394.5V108H1375V99H1335V146H1313V78H1297.5V164H1274.5V125.5H1245.5V146H1225V160.5H1205.5V136H1185.5V121.5H1180.5H1165.5V83H1144.5V117.5H1121.5V89H1086V75.5H1022.5V63.5H997V102.5H977V63.5H956.5V121.5H934V99H916.5V63.5H853.5V94H829V83H806V131H782.5V83H762.5V117.5H745.5V172.5H725.5V91.5H699V125.5H675V99H654V89H634V108H616.5V128H595V167H575.5V89H555.5V148.5H539V67H508.5V94H482.5V70H463V52.5H443.5V78H425.5V108H404.5V140H384.5V99H365.5V70H345.5V35H324.5V14H305V26.5H286V58.5H259.5V44H252.5H232.5V102.5H217V40.5H194.5V133.5H173.5V91.5H155.5V62H137.5V35H126.5H116V52.5H104.5H93.5V89H83.5H66V58.5H54.5H44V130.5H35.5V83H15V72.5H-3.5Z" fill="white"/>
</svg>
