<svg width="1920" height="170" viewBox="0 0 1920 170" fill="none" xmlns="http://www.w3.org/2000/svg">
<g opacity="0.1">
<rect x="200" y="-29" width="10" height="50" fill="white"/>
<path d="M205 -38.5V40" stroke="white" stroke-width="2"/>
<rect x="960" y="-29" width="10" height="50" fill="white"/>
<path d="M965 -38.5V40" stroke="white" stroke-width="2"/>
<rect x="1500" y="6.71976" width="10" height="25.1592" transform="rotate(-180 1500 6.71976)" fill="white"/>
<path d="M1495 11.5V-28" stroke="white" stroke-width="2"/>
<rect x="1900" y="6.71976" width="10" height="25.1592" transform="rotate(-180 1900 6.71976)" fill="white"/>
<path d="M1895 11.5V-28" stroke="white" stroke-width="2"/>
<rect x="1310" y="35.7197" width="10" height="25.1592" transform="rotate(-180 1310 35.7197)" fill="white"/>
<path d="M1305 40.5V0.999998" stroke="white" stroke-width="2"/>
<rect x="1710" y="35.7197" width="10" height="25.1592" transform="rotate(-180 1710 35.7197)" fill="white"/>
<path d="M1705 40.5V0.999998" stroke="white" stroke-width="2"/>
<rect x="240" y="-64.5381" width="10" height="76.1146" fill="white"/>
<path d="M245 -79V40.5" stroke="white" stroke-width="2"/>
<rect x="1000" y="-64.5381" width="10" height="76.1146" fill="white"/>
<path d="M1005 -79V40.5" stroke="white" stroke-width="2"/>
<rect x="1350" y="25.6369" width="10" height="51.9108" transform="rotate(-180 1350 25.6369)" fill="white"/>
<path d="M1345 35.5V-46" stroke="white" stroke-width="2"/>
<rect x="1750" y="25.6369" width="10" height="51.9108" transform="rotate(-180 1750 25.6369)" fill="white"/>
<path d="M1745 35.5V-46" stroke="white" stroke-width="2"/>
<rect x="270" y="-19.1368" width="10" height="51.9108" fill="white"/>
<path d="M275 -29V52.5" stroke="white" stroke-width="2"/>
<rect x="1030" y="-19.1368" width="10" height="51.9108" fill="white"/>
<path d="M1035 -29V52.5" stroke="white" stroke-width="2"/>
<rect x="100" width="10" height="16" fill="white"/>
<path d="M105 -20V27" stroke="white" stroke-width="2"/>
<rect x="860" width="10" height="16" fill="white"/>
<path d="M865 -20V27" stroke="white" stroke-width="2"/>
<rect width="10" height="16" transform="matrix(-1 0 0 1 480 14)" fill="white"/>
<path d="M475 -6V41" stroke="white" stroke-width="2"/>
<rect x="120" y="-22.9787" width="10" height="29.617" fill="white"/>
<path d="M125 -60V27" stroke="white" stroke-width="2"/>
<rect x="880" y="-22.9787" width="10" height="29.617" fill="white"/>
<path d="M885 -60V27" stroke="white" stroke-width="2"/>
<rect width="10" height="29.617" transform="matrix(-1 0 0 1 460 -8.97873)" fill="white"/>
<path d="M455 -46V41" stroke="white" stroke-width="2"/>
<rect x="140" y="13.7873" width="10" height="7.82979" fill="white"/>
<path d="M145 4V27" stroke="white" stroke-width="2"/>
<rect x="900" y="13.7873" width="10" height="7.82979" fill="white"/>
<path d="M905 4V27" stroke="white" stroke-width="2"/>
<rect width="10" height="7.82979" transform="matrix(-1 0 0 1 440 27.7873)" fill="white"/>
<path d="M435 18V41" stroke="white" stroke-width="2"/>
<rect x="10" width="10" height="50" fill="white"/>
<path d="M15 -9.5V69" stroke="white" stroke-width="2"/>
<rect x="770" width="10" height="50" fill="white"/>
<path d="M775 -9.5V69" stroke="white" stroke-width="2"/>
<rect width="10" height="50" transform="matrix(-1 0 0 1 760 43)" fill="white"/>
<path d="M755 33.5V112" stroke="white" stroke-width="2"/>
<rect x="1520" y="80.5" width="10" height="50" transform="rotate(-180 1520 80.5)" fill="white"/>
<path d="M1515 90V11.5" stroke="white" stroke-width="2"/>
<rect x="1920" y="80.5" width="10" height="50" transform="rotate(-180 1920 80.5)" fill="white"/>
<path d="M1915 90V11.5" stroke="white" stroke-width="2"/>
<rect width="10" height="50" transform="matrix(-1 0 0 1 570 14)" fill="white"/>
<path d="M565 4.5V83" stroke="white" stroke-width="2"/>
<rect x="1330" y="109.5" width="10" height="50" transform="rotate(-180 1330 109.5)" fill="white"/>
<path d="M1325 119V40.5" stroke="white" stroke-width="2"/>
<rect x="1730" y="109.5" width="10" height="50" transform="rotate(-180 1730 109.5)" fill="white"/>
<path d="M1725 119V40.5" stroke="white" stroke-width="2"/>
<rect x="30" y="73.7803" width="10" height="25.1592" fill="white"/>
<path d="M35 69V108.5" stroke="white" stroke-width="2"/>
<rect x="790" y="73.7803" width="10" height="25.1592" fill="white"/>
<path d="M795 69V108.5" stroke="white" stroke-width="2"/>
<rect width="10" height="25.1592" transform="matrix(-1 0 0 1 740 116.78)" fill="white"/>
<path d="M735 112V151.5" stroke="white" stroke-width="2"/>
<rect x="220" y="44.7803" width="10" height="25.1592" fill="white"/>
<path d="M225 40V79.5" stroke="white" stroke-width="2"/>
<rect x="980" y="44.7803" width="10" height="25.1592" fill="white"/>
<path d="M985 40V79.5" stroke="white" stroke-width="2"/>
<rect width="10" height="25.1592" transform="matrix(-1 0 0 1 550 87.7803)" fill="white"/>
<path d="M545 83V122.5" stroke="white" stroke-width="2"/>
<rect x="50" y="-35.5381" width="10" height="76.1146" fill="white"/>
<path d="M55 -50V69.5" stroke="white" stroke-width="2"/>
<rect x="810" y="-35.5381" width="10" height="76.1146" fill="white"/>
<path d="M815 -50V69.5" stroke="white" stroke-width="2"/>
<rect width="10" height="76.1146" transform="matrix(-1 0 0 1 720 7.46185)" fill="white"/>
<path d="M715 -7V112.5" stroke="white" stroke-width="2"/>
<rect x="1480" y="116.038" width="10" height="76.1146" transform="rotate(-180 1480 116.038)" fill="white"/>
<path d="M1475 130.5V11" stroke="white" stroke-width="2"/>
<rect x="1880" y="116.038" width="10" height="76.1146" transform="rotate(-180 1880 116.038)" fill="white"/>
<path d="M1875 130.5V11" stroke="white" stroke-width="2"/>
<rect width="10" height="76.1146" transform="matrix(-1 0 0 1 530 -21.5381)" fill="white"/>
<path d="M525 -36V83.5" stroke="white" stroke-width="2"/>
<rect x="1290" y="145.038" width="10" height="76.1146" transform="rotate(-180 1290 145.038)" fill="white"/>
<path d="M1285 159.5V40" stroke="white" stroke-width="2"/>
<rect x="1690" y="145.038" width="10" height="76.1146" transform="rotate(-180 1690 145.038)" fill="white"/>
<path d="M1685 159.5V40" stroke="white" stroke-width="2"/>
<rect x="160" y="3.46185" width="10" height="76.1146" fill="white"/>
<path d="M165 -11V108.5" stroke="white" stroke-width="2"/>
<rect x="920" y="3.46185" width="10" height="76.1146" fill="white"/>
<path d="M925 -11V108.5" stroke="white" stroke-width="2"/>
<rect width="10" height="76.1146" transform="matrix(-1 0 0 1 610 46.4618)" fill="white"/>
<path d="M605 32V151.5" stroke="white" stroke-width="2"/>
<rect x="1370" y="77.0382" width="10" height="76.1146" transform="rotate(-180 1370 77.0382)" fill="white"/>
<path d="M1365 91.5V-28" stroke="white" stroke-width="2"/>
<rect x="1770" y="77.0382" width="10" height="76.1146" transform="rotate(-180 1770 77.0382)" fill="white"/>
<path d="M1765 91.5V-28" stroke="white" stroke-width="2"/>
<rect x="350" y="-25.5381" width="10" height="76.1146" fill="white"/>
<path d="M355 -40V79.5" stroke="white" stroke-width="2"/>
<rect x="1110" y="-25.5381" width="10" height="76.1146" fill="white"/>
<path d="M1115 -40V79.5" stroke="white" stroke-width="2"/>
<rect width="10" height="76.1146" transform="matrix(-1 0 0 1 420 17.4619)" fill="white"/>
<path d="M415 3V122.5" stroke="white" stroke-width="2"/>
<rect x="1180" y="106.038" width="10" height="76.1146" transform="rotate(-180 1180 106.038)" fill="white"/>
<path d="M1175 120.5V1" stroke="white" stroke-width="2"/>
<rect x="1580" y="106.038" width="10" height="76.1146" transform="rotate(-180 1580 106.038)" fill="white"/>
<path d="M1575 120.5V1" stroke="white" stroke-width="2"/>
<rect x="180" y="54.8631" width="10" height="51.9108" fill="white"/>
<path d="M185 45V126.5" stroke="white" stroke-width="2"/>
<rect x="940" y="54.8631" width="10" height="51.9108" fill="white"/>
<path d="M945 45V126.5" stroke="white" stroke-width="2"/>
<rect width="10" height="51.9108" transform="matrix(-1 0 0 1 590 97.8631)" fill="white"/>
<path d="M585 88V169.5" stroke="white" stroke-width="2"/>
<rect x="370" y="25.8631" width="10" height="51.9108" fill="white"/>
<path d="M375 16V97.5" stroke="white" stroke-width="2"/>
<rect width="10" height="51.9108" transform="matrix(1 0 0 -1 1130 97.6369)" fill="white"/>
<path d="M1135 107.5V26" stroke="white" stroke-width="2"/>
<rect width="10" height="51.9108" transform="matrix(1 0 0 -1 1530 97.6369)" fill="white"/>
<path d="M1535 107.5V26" stroke="white" stroke-width="2"/>
<rect width="10" height="51.9108" transform="matrix(-1 0 0 1 400 68.8631)" fill="white"/>
<path d="M395 59V140.5" stroke="white" stroke-width="2"/>
<rect x="1160" y="54.6369" width="10" height="51.9108" transform="rotate(-180 1160 54.6369)" fill="white"/>
<path d="M1155 64.5V-17" stroke="white" stroke-width="2"/>
<rect x="1560" y="54.6369" width="10" height="51.9108" transform="rotate(-180 1560 54.6369)" fill="white"/>
<path d="M1555 64.5V-17" stroke="white" stroke-width="2"/>
<rect x="80" y="9.86316" width="10" height="51.9108" fill="white"/>
<path d="M85 0V81.5" stroke="white" stroke-width="2"/>
<rect x="840" y="9.86316" width="10" height="51.9108" fill="white"/>
<path d="M845 0V81.5" stroke="white" stroke-width="2"/>
<rect width="10" height="51.9108" transform="matrix(-1 0 0 1 690 52.8631)" fill="white"/>
<path d="M685 43V124.5" stroke="white" stroke-width="2"/>
<rect x="1450" y="70.6369" width="10" height="51.9108" transform="rotate(-180 1450 70.6369)" fill="white"/>
<path d="M1445 80.5V-1" stroke="white" stroke-width="2"/>
<rect x="1850" y="70.6369" width="10" height="51.9108" transform="rotate(-180 1850 70.6369)" fill="white"/>
<path d="M1845 80.5V-1" stroke="white" stroke-width="2"/>
<rect width="10" height="51.9108" transform="matrix(-1 0 0 1 500 23.8631)" fill="white"/>
<path d="M495 14V95.5" stroke="white" stroke-width="2"/>
<rect x="1260" y="99.6369" width="10" height="51.9108" transform="rotate(-180 1260 99.6369)" fill="white"/>
<path d="M1255 109.5V28" stroke="white" stroke-width="2"/>
<rect x="1660" y="99.6369" width="10" height="51.9108" transform="rotate(-180 1660 99.6369)" fill="white"/>
<path d="M1655 109.5V28" stroke="white" stroke-width="2"/>
<rect width="10" height="16" transform="matrix(-1 0 0 1 670 43)" fill="white"/>
<path d="M665 23V70" stroke="white" stroke-width="2"/>
<rect x="1430" y="80.5" width="10" height="16" transform="rotate(-180 1430 80.5)" fill="white"/>
<path d="M1425 100.5V53.5" stroke="white" stroke-width="2"/>
<rect x="1830" y="80.5" width="10" height="16" transform="rotate(-180 1830 80.5)" fill="white"/>
<path d="M1825 100.5V53.5" stroke="white" stroke-width="2"/>
<rect x="1240" y="109.5" width="10" height="16" transform="rotate(-180 1240 109.5)" fill="white"/>
<path d="M1235 129.5V82.5" stroke="white" stroke-width="2"/>
<rect x="1640" y="109.5" width="10" height="16" transform="rotate(-180 1640 109.5)" fill="white"/>
<path d="M1635 129.5V82.5" stroke="white" stroke-width="2"/>
<rect width="10" height="29.617" transform="matrix(-1 0 0 1 650 20.0213)" fill="white"/>
<path d="M645 -17V70" stroke="white" stroke-width="2"/>
<rect x="1410" y="103.479" width="10" height="29.617" transform="rotate(-180 1410 103.479)" fill="white"/>
<path d="M1405 140.5V53.5" stroke="white" stroke-width="2"/>
<rect x="1810" y="103.479" width="10" height="29.617" transform="rotate(-180 1810 103.479)" fill="white"/>
<path d="M1805 140.5V53.5" stroke="white" stroke-width="2"/>
<rect x="1220" y="132.479" width="10" height="29.617" transform="rotate(-180 1220 132.479)" fill="white"/>
<path d="M1215 169.5V82.5" stroke="white" stroke-width="2"/>
<rect x="1620" y="132.479" width="10" height="29.617" transform="rotate(-180 1620 132.479)" fill="white"/>
<path d="M1615 169.5V82.5" stroke="white" stroke-width="2"/>
<rect width="10" height="7.82979" transform="matrix(-1 0 0 1 630 56.7873)" fill="white"/>
<path d="M625 47V70" stroke="white" stroke-width="2"/>
<rect x="1390" y="66.7127" width="10" height="7.82979" transform="rotate(-180 1390 66.7127)" fill="white"/>
<path d="M1385 76.5V53.5" stroke="white" stroke-width="2"/>
<rect x="1790" y="66.7127" width="10" height="7.82979" transform="rotate(-180 1790 66.7127)" fill="white"/>
<path d="M1785 76.5V53.5" stroke="white" stroke-width="2"/>
<rect x="1200" y="95.7127" width="10" height="7.82979" transform="rotate(-180 1200 95.7127)" fill="white"/>
<path d="M1195 105.5V82.5" stroke="white" stroke-width="2"/>
<rect x="1600" y="95.7127" width="10" height="7.82979" transform="rotate(-180 1600 95.7127)" fill="white"/>
<path d="M1595 105.5V82.5" stroke="white" stroke-width="2"/>
</g>
<path opacity="0.1" d="M-3.5 27.5V-42V-45H1934V48.5H1907V1H1888.5V86H1860V48.5H1833.5V72.5H1815.5V80.5H1794.5V63H1774.5V38H1755V17H1734.5V76.5H1715V30.5H1694V72.5H1673.5V80.5H1644V101H1624.5V115.5H1605.5V91H1587.5V76.5H1565.5V33H1545V76.5H1525.5V44H1485.5V80.5H1460V51.5H1434.5V70H1414V86H1394.5V63H1375V54H1335V101H1313V33H1297.5V119H1274.5V80.5H1245.5V101H1225V115.5H1205.5V91H1185.5V76.5H1180.5H1165.5V38H1144.5V72.5H1121.5V44H1086V30.5H1022.5V18.5H997V57.5H977V18.5H956.5V76.5H934V54H916.5V18.5H853.5V49H829V38H806V86H782.5V38H762.5V72.5H745.5V127.5H725.5V46.5H699V80.5H675V54H654V44H634V63H616.5V83H595V122H575.5V44H555.5V103.5H539V22H508.5V49H482.5V25H463V7.5H443.5V33H425.5V63H404.5V95H384.5V54H365.5V25H345.5V-10H324.5V-31H305V-18.5H286V13.5H259.5V-1H252.5H232.5V57.5H217V-4.5H194.5V88.5H173.5V46.5H155.5V17H137.5V-10H126.5H116V7.5H104.5H93.5V44H83.5H66V13.5H54.5H44V85.5H35.5V38H15V27.5H-3.5Z" fill="white"/>
</svg>
