<svg width="1890" height="259" viewBox="0 0 1890 259" fill="none" xmlns="http://www.w3.org/2000/svg">
<rect x="190" y="60" width="10" height="50" fill="white"/>
<path d="M195 50.5V129" stroke="white" stroke-width="2"/>
<rect x="950" y="60" width="10" height="50" fill="white"/>
<path d="M955 50.5V129" stroke="white" stroke-width="2"/>
<rect x="1490" y="95.7197" width="10" height="25.1592" transform="rotate(-180 1490 95.7197)" fill="white"/>
<path d="M1485 100.5V61" stroke="white" stroke-width="2"/>
<rect x="1890" y="95.7197" width="10" height="25.1592" transform="rotate(-180 1890 95.7197)" fill="white"/>
<path d="M1885 100.5V61" stroke="white" stroke-width="2"/>
<rect x="1300" y="124.72" width="10" height="25.1592" transform="rotate(-180 1300 124.72)" fill="white"/>
<path d="M1295 129.5V90" stroke="white" stroke-width="2"/>
<rect x="1700" y="124.72" width="10" height="25.1592" transform="rotate(-180 1700 124.72)" fill="white"/>
<path d="M1695 129.5V90" stroke="white" stroke-width="2"/>
<rect x="230" y="24.4619" width="10" height="76.1146" fill="white"/>
<path d="M235 10V129.5" stroke="white" stroke-width="2"/>
<rect x="990" y="24.4619" width="10" height="76.1146" fill="white"/>
<path d="M995 10V129.5" stroke="white" stroke-width="2"/>
<rect x="1340" y="114.637" width="10" height="51.9108" transform="rotate(-180 1340 114.637)" fill="white"/>
<path d="M1335 124.5V43" stroke="white" stroke-width="2"/>
<rect x="1740" y="114.637" width="10" height="51.9108" transform="rotate(-180 1740 114.637)" fill="white"/>
<path d="M1735 124.5V43" stroke="white" stroke-width="2"/>
<rect x="260" y="69.8633" width="10" height="51.9108" fill="white"/>
<path d="M265 60V141.5" stroke="white" stroke-width="2"/>
<rect x="1020" y="69.8633" width="10" height="51.9108" fill="white"/>
<path d="M1025 60V141.5" stroke="white" stroke-width="2"/>
<rect x="90" y="89" width="10" height="16" fill="white"/>
<path d="M95 69V116" stroke="white" stroke-width="2"/>
<rect x="850" y="89" width="10" height="16" fill="white"/>
<path d="M855 69V116" stroke="white" stroke-width="2"/>
<rect x="280" y="60" width="10" height="16" fill="white"/>
<path d="M285 40V87" stroke="white" stroke-width="2"/>
<rect x="1040" y="60" width="10" height="16" fill="white"/>
<path d="M1045 40V87" stroke="white" stroke-width="2"/>
<rect width="10" height="16" transform="matrix(-1 0 0 1 470 103)" fill="white"/>
<path d="M465 83V130" stroke="white" stroke-width="2"/>
<rect x="110" y="66.0215" width="10" height="29.617" fill="white"/>
<path d="M115 29V116" stroke="white" stroke-width="2"/>
<rect x="870" y="66.0215" width="10" height="29.617" fill="white"/>
<path d="M875 29V116" stroke="white" stroke-width="2"/>
<rect x="300" y="37.0215" width="10" height="29.617" fill="white"/>
<path d="M305 0V87" stroke="white" stroke-width="2"/>
<rect x="1060" y="37.0215" width="10" height="29.617" fill="white"/>
<path d="M1065 0V87" stroke="white" stroke-width="2"/>
<rect width="10" height="29.617" transform="matrix(-1 0 0 1 450 80.0215)" fill="white"/>
<path d="M445 43V130" stroke="white" stroke-width="2"/>
<rect x="130" y="102.787" width="10" height="7.82979" fill="white"/>
<path d="M135 93V116" stroke="white" stroke-width="2"/>
<rect x="890" y="102.787" width="10" height="7.82979" fill="white"/>
<path d="M895 93V116" stroke="white" stroke-width="2"/>
<rect x="320" y="73.7871" width="10" height="7.82979" fill="white"/>
<path d="M325 64V87" stroke="white" stroke-width="2"/>
<rect x="1080" y="73.7871" width="10" height="7.82979" fill="white"/>
<path d="M1085 64V87" stroke="white" stroke-width="2"/>
<rect width="10" height="7.82979" transform="matrix(-1 0 0 1 430 116.787)" fill="white"/>
<path d="M425 107V130" stroke="white" stroke-width="2"/>
<rect y="89" width="10" height="50" fill="white"/>
<path d="M5 79.5V158" stroke="white" stroke-width="2"/>
<rect x="760" y="89" width="10" height="50" fill="white"/>
<path d="M765 79.5V158" stroke="white" stroke-width="2"/>
<rect width="10" height="50" transform="matrix(-1 0 0 1 750 132)" fill="white"/>
<path d="M745 122.5V201" stroke="white" stroke-width="2"/>
<rect x="1510" y="169.5" width="10" height="50" transform="rotate(-180 1510 169.5)" fill="white"/>
<path d="M1505 179V100.5" stroke="white" stroke-width="2"/>
<rect width="10" height="50" transform="matrix(-1 0 0 1 560 103)" fill="white"/>
<path d="M555 93.5V172" stroke="white" stroke-width="2"/>
<rect x="1320" y="198.5" width="10" height="50" transform="rotate(-180 1320 198.5)" fill="white"/>
<path d="M1315 208V129.5" stroke="white" stroke-width="2"/>
<rect x="1720" y="198.5" width="10" height="50" transform="rotate(-180 1720 198.5)" fill="white"/>
<path d="M1715 208V129.5" stroke="white" stroke-width="2"/>
<rect x="20" y="162.78" width="10" height="25.1592" fill="white"/>
<path d="M25 158V197.5" stroke="white" stroke-width="2"/>
<rect x="780" y="162.78" width="10" height="25.1592" fill="white"/>
<path d="M785 158V197.5" stroke="white" stroke-width="2"/>
<rect width="10" height="25.1592" transform="matrix(-1 0 0 1 730 205.78)" fill="white"/>
<path d="M725 201V240.5" stroke="white" stroke-width="2"/>
<rect x="210" y="133.78" width="10" height="25.1592" fill="white"/>
<path d="M215 129V168.5" stroke="white" stroke-width="2"/>
<rect x="970" y="133.78" width="10" height="25.1592" fill="white"/>
<path d="M975 129V168.5" stroke="white" stroke-width="2"/>
<rect width="10" height="25.1592" transform="matrix(-1 0 0 1 540 176.78)" fill="white"/>
<path d="M535 172V211.5" stroke="white" stroke-width="2"/>
<rect x="40" y="53.4619" width="10" height="76.1146" fill="white"/>
<path d="M45 39V158.5" stroke="white" stroke-width="2"/>
<rect x="800" y="53.4619" width="10" height="76.1146" fill="white"/>
<path d="M805 39V158.5" stroke="white" stroke-width="2"/>
<rect width="10" height="76.1146" transform="matrix(-1 0 0 1 710 96.4619)" fill="white"/>
<path d="M705 82V201.5" stroke="white" stroke-width="2"/>
<rect x="1470" y="205.038" width="10" height="76.1146" transform="rotate(-180 1470 205.038)" fill="white"/>
<path d="M1465 219.5V100" stroke="white" stroke-width="2"/>
<rect x="1870" y="205.038" width="10" height="76.1146" transform="rotate(-180 1870 205.038)" fill="white"/>
<path d="M1865 219.5V100" stroke="white" stroke-width="2"/>
<rect width="10" height="76.1146" transform="matrix(-1 0 0 1 520 67.4619)" fill="white"/>
<path d="M515 53V172.5" stroke="white" stroke-width="2"/>
<rect x="1280" y="234.038" width="10" height="76.1146" transform="rotate(-180 1280 234.038)" fill="white"/>
<path d="M1275 248.5V129" stroke="white" stroke-width="2"/>
<rect x="1680" y="234.038" width="10" height="76.1146" transform="rotate(-180 1680 234.038)" fill="white"/>
<path d="M1675 248.5V129" stroke="white" stroke-width="2"/>
<rect x="150" y="92.4619" width="10" height="76.1146" fill="white"/>
<path d="M155 78V197.5" stroke="white" stroke-width="2"/>
<rect x="910" y="92.4619" width="10" height="76.1146" fill="white"/>
<path d="M915 78V197.5" stroke="white" stroke-width="2"/>
<rect width="10" height="76.1146" transform="matrix(-1 0 0 1 600 135.462)" fill="white"/>
<path d="M595 121V240.5" stroke="white" stroke-width="2"/>
<rect x="1360" y="166.038" width="10" height="76.1146" transform="rotate(-180 1360 166.038)" fill="white"/>
<path d="M1355 180.5V61" stroke="white" stroke-width="2"/>
<rect x="1760" y="166.038" width="10" height="76.1146" transform="rotate(-180 1760 166.038)" fill="white"/>
<path d="M1755 180.5V61" stroke="white" stroke-width="2"/>
<rect x="340" y="63.4619" width="10" height="76.1146" fill="white"/>
<path d="M345 49V168.5" stroke="white" stroke-width="2"/>
<rect x="1100" y="63.4619" width="10" height="76.1146" fill="white"/>
<path d="M1105 49V168.5" stroke="white" stroke-width="2"/>
<rect width="10" height="76.1146" transform="matrix(-1 0 0 1 410 106.462)" fill="white"/>
<path d="M405 92V211.5" stroke="white" stroke-width="2"/>
<rect x="1170" y="195.038" width="10" height="76.1146" transform="rotate(-180 1170 195.038)" fill="white"/>
<path d="M1165 209.5V90" stroke="white" stroke-width="2"/>
<rect x="1570" y="195.038" width="10" height="76.1146" transform="rotate(-180 1570 195.038)" fill="white"/>
<path d="M1565 209.5V90" stroke="white" stroke-width="2"/>
<rect x="170" y="143.863" width="10" height="51.9108" fill="white"/>
<path d="M175 134V215.5" stroke="white" stroke-width="2"/>
<rect x="930" y="143.863" width="10" height="51.9108" fill="white"/>
<path d="M935 134V215.5" stroke="white" stroke-width="2"/>
<rect width="10" height="51.9108" transform="matrix(-1 0 0 1 580 186.863)" fill="white"/>
<path d="M575 177V258.5" stroke="white" stroke-width="2"/>
<rect x="360" y="114.863" width="10" height="51.9108" fill="white"/>
<path d="M365 105V186.5" stroke="white" stroke-width="2"/>
<rect width="10" height="51.9108" transform="matrix(1 0 0 -1 1120 186.637)" fill="white"/>
<path d="M1125 196.5V115" stroke="white" stroke-width="2"/>
<rect width="10" height="51.9108" transform="matrix(1 0 0 -1 1520 186.637)" fill="white"/>
<path d="M1525 196.5V115" stroke="white" stroke-width="2"/>
<rect width="10" height="51.9108" transform="matrix(-1 0 0 1 390 157.863)" fill="white"/>
<path d="M385 148V229.5" stroke="white" stroke-width="2"/>
<rect x="1150" y="143.637" width="10" height="51.9108" transform="rotate(-180 1150 143.637)" fill="white"/>
<path d="M1145 153.5V72" stroke="white" stroke-width="2"/>
<rect x="1550" y="143.637" width="10" height="51.9108" transform="rotate(-180 1550 143.637)" fill="white"/>
<path d="M1545 153.5V72" stroke="white" stroke-width="2"/>
<rect x="70" y="98.8633" width="10" height="51.9108" fill="white"/>
<path d="M75 89V170.5" stroke="white" stroke-width="2"/>
<rect x="830" y="98.8633" width="10" height="51.9108" fill="white"/>
<path d="M835 89V170.5" stroke="white" stroke-width="2"/>
<rect width="10" height="51.9108" transform="matrix(-1 0 0 1 680 141.863)" fill="white"/>
<path d="M675 132V213.5" stroke="white" stroke-width="2"/>
<rect x="1440" y="159.637" width="10" height="51.9108" transform="rotate(-180 1440 159.637)" fill="white"/>
<path d="M1435 169.5V88" stroke="white" stroke-width="2"/>
<rect x="1840" y="159.637" width="10" height="51.9108" transform="rotate(-180 1840 159.637)" fill="white"/>
<path d="M1835 169.5V88" stroke="white" stroke-width="2"/>
<rect width="10" height="51.9108" transform="matrix(-1 0 0 1 490 112.863)" fill="white"/>
<path d="M485 103V184.5" stroke="white" stroke-width="2"/>
<rect x="1250" y="188.637" width="10" height="51.9108" transform="rotate(-180 1250 188.637)" fill="white"/>
<path d="M1245 198.5V117" stroke="white" stroke-width="2"/>
<rect x="1650" y="188.637" width="10" height="51.9108" transform="rotate(-180 1650 188.637)" fill="white"/>
<path d="M1645 198.5V117" stroke="white" stroke-width="2"/>
<rect width="10" height="16" transform="matrix(-1 0 0 1 660 132)" fill="white"/>
<path d="M655 112V159" stroke="white" stroke-width="2"/>
<rect x="1420" y="169.5" width="10" height="16" transform="rotate(-180 1420 169.5)" fill="white"/>
<path d="M1415 189.5V142.5" stroke="white" stroke-width="2"/>
<rect x="1820" y="169.5" width="10" height="16" transform="rotate(-180 1820 169.5)" fill="white"/>
<path d="M1815 189.5V142.5" stroke="white" stroke-width="2"/>
<rect x="1230" y="198.5" width="10" height="16" transform="rotate(-180 1230 198.5)" fill="white"/>
<path d="M1225 218.5V171.5" stroke="white" stroke-width="2"/>
<rect x="1630" y="198.5" width="10" height="16" transform="rotate(-180 1630 198.5)" fill="white"/>
<path d="M1625 218.5V171.5" stroke="white" stroke-width="2"/>
<rect width="10" height="29.617" transform="matrix(-1 0 0 1 640 109.021)" fill="white"/>
<path d="M635 72V159" stroke="white" stroke-width="2"/>
<rect x="1400" y="192.479" width="10" height="29.617" transform="rotate(-180 1400 192.479)" fill="white"/>
<path d="M1395 229.5V142.5" stroke="white" stroke-width="2"/>
<rect x="1800" y="192.479" width="10" height="29.617" transform="rotate(-180 1800 192.479)" fill="white"/>
<path d="M1795 229.5V142.5" stroke="white" stroke-width="2"/>
<rect x="1210" y="221.479" width="10" height="29.617" transform="rotate(-180 1210 221.479)" fill="white"/>
<path d="M1205 258.5V171.5" stroke="white" stroke-width="2"/>
<rect x="1610" y="221.479" width="10" height="29.617" transform="rotate(-180 1610 221.479)" fill="white"/>
<path d="M1605 258.5V171.5" stroke="white" stroke-width="2"/>
<rect width="10" height="7.82979" transform="matrix(-1 0 0 1 620 145.787)" fill="white"/>
<path d="M615 136V159" stroke="white" stroke-width="2"/>
<rect x="1380" y="155.713" width="10" height="7.82979" transform="rotate(-180 1380 155.713)" fill="white"/>
<path d="M1375 165.5V142.5" stroke="white" stroke-width="2"/>
<rect x="1780" y="155.713" width="10" height="7.82979" transform="rotate(-180 1780 155.713)" fill="white"/>
<path d="M1775 165.5V142.5" stroke="white" stroke-width="2"/>
<rect x="1190" y="184.713" width="10" height="7.82979" transform="rotate(-180 1190 184.713)" fill="white"/>
<path d="M1185 194.5V171.5" stroke="white" stroke-width="2"/>
<rect x="1590" y="184.713" width="10" height="7.82979" transform="rotate(-180 1590 184.713)" fill="white"/>
<path d="M1585 194.5V171.5" stroke="white" stroke-width="2"/>
</svg>
