<svg width="1920" height="173" viewBox="0 0 1920 173" fill="none" xmlns="http://www.w3.org/2000/svg">
<path d="M-3.5 100V169.5V172.5H1934V79H1907V126.5H1888.5V41.5H1860V79H1833.5V55H1815.5V47H1794.5V64.5H1774.5V89.5H1755V110.5H1734.5V51H1715V97H1694V55H1673.5V47H1644V26.5H1624.5V12H1605.5V36.5H1587.5V51H1565.5V94.5H1545V51H1525.5V83.5H1485.5V47H1460V76H1434.5V57.5H1414V41.5H1394.5V64.5H1375V73.5H1335V26.5H1313V94.5H1297.5V8.5H1274.5V47H1245.5V26.5H1225V12H1205.5V36.5H1185.5V51H1180.5H1165.5V89.5H1144.5V55H1121.5V83.5H1086V97H1022.5V109H997V70H977V109H956.5V51H934V73.5H916.5V115H895.5V134.5H872.5V123.5H853.5V109V78.5H829V89.5H806V41.5H782.5V89.5H762.5V55H745.5V0H725.5V81H699V47H675V73.5H654V83.5H634V64.5H616.5V44.5H595V5.5H575.5V83.5H555.5V24H539V105.5H508.5V78.5H482.5V102.5H463V120H443.5V94.5H425.5V64.5H404.5V32.5H384.5V73.5H365.5V102.5H345.5V137.5H324.5V158.5H305V146H286V114H259.5V128.5H252.5H232.5V70H217V132H194.5V39H173.5V81H155.5V110.5H137.5V137.5H126.5H116V120H104.5H93.5V83.5H83.5H66V114H54.5H44V42H35.5V89.5H15V100H-3.5Z" fill="#0F3DB7"/>
</svg>
