<svg width="181" height="148" viewBox="0 0 181 148" fill="none" xmlns="http://www.w3.org/2000/svg">
<path opacity="0.18" d="M0.971867 106.924C1.95819 112.983 7.98676 141.158 30.0086 147.152C46.6563 151.689 93.4284 136.157 120.068 143.978C173.689 159.712 183.511 117.469 180.515 106.059C178.428 98.1043 175.851 90.1266 175.782 81.8224C175.713 73.1363 178.764 64.5928 179.096 55.8422C179.939 33.699 164.347 11.9607 143.086 5.60715C133.983 2.89274 126.539 0.118514 117.04 0.0403017C97.7608 -0.125324 52.0073 0.0403049 29.4693 32.7651C25.441 38.6126 19.5922 42.9879 15.0984 48.4903C9.10675 55.8514 5.11536 64.7446 2.70485 73.9414C-0.155135 84.697 -0.745268 95.9285 0.971867 106.924Z" fill="#0F3DB7"/>
<path d="M114.736 114.139H79.6204L85.8333 96.647H109.496L114.736 114.139Z" fill="#0F3DB7"/>
<path d="M114.736 114.139H79.6204L85.8333 96.647H109.496L114.736 114.139Z" fill="url(#paint0_linear)"/>
<path d="M144.156 33.1436H53.1603C49.6781 33.1436 46.8552 35.9614 46.8552 39.4373V96.9139C46.8552 100.39 49.6781 103.208 53.1603 103.208H144.156C147.638 103.208 150.461 100.39 150.461 96.9139V39.4373C150.461 35.9614 147.638 33.1436 144.156 33.1436Z" fill="#0F3DB7"/>
<path d="M150.461 39.4327V89.8472H46.8782V39.4327C46.8782 37.7647 47.542 36.1651 48.7235 34.9856C49.9051 33.8062 51.5077 33.1436 53.1787 33.1436H144.16C145.831 33.1436 147.434 33.8062 148.615 34.9856C149.797 36.1651 150.461 37.7647 150.461 39.4327Z" fill="#473F47"/>
<path d="M148.903 40.6334V88.1632H48.4268V40.6334C48.4365 39.0235 49.0862 37.4834 50.2331 36.3515C51.38 35.2197 52.9301 34.5887 54.5429 34.5973H142.787C144.4 34.5887 145.95 35.2197 147.097 36.3515C148.243 37.4834 148.893 39.0235 148.903 40.6334Z" fill="white"/>
<path opacity="0.18" d="M148.903 40.6334V88.1632H48.4268V40.6334C48.4365 39.0235 49.0862 37.4834 50.2331 36.3515C51.38 35.2197 52.9301 34.5887 54.5429 34.5973H142.787C144.4 34.5887 145.95 35.2197 147.097 36.3515C148.243 37.4834 148.893 39.0235 148.903 40.6334Z" fill="#0F3DB7"/>
<path d="M94.9776 21.9639H54.4875V50.5158H94.9776V21.9639Z" fill="#0F3DB7"/>
<path d="M132.937 38.2366C132.877 37.3763 132.937 36.493 132.845 35.6372C132.703 34.4032 132.301 33.2131 131.666 32.1451C131.03 31.0771 130.176 30.1552 129.158 29.4401C127.098 28.0156 124.585 27.3952 122.097 27.6964C118.064 28.1565 114.677 30.9169 112.736 34.3997C110.528 38.3609 112.593 41.6044 114.377 45.1975C115.714 47.8843 114.925 51.2382 113.192 53.6904C111.833 55.6089 109.823 57.4492 109.994 59.7955C110.1 61.2218 111.012 62.4409 111.893 63.5681C112.483 64.3226 113.142 65.1232 114.073 65.3394C114.542 65.4245 115.023 65.4245 115.492 65.3394C116.544 65.1914 117.586 64.9809 118.613 64.7091C119.608 64.4422 120.631 64.111 121.655 64.249C123.388 64.4699 124.669 65.9283 125.669 67.3499C126.669 68.7715 127.655 70.3542 129.246 71.0627C130.453 71.6055 131.836 71.5549 133.154 71.4445C137.003 71.1271 141.082 70.2345 143.727 67.4281C144.312 66.7833 144.849 66.0976 145.336 65.3762C145.633 64.9975 145.874 64.5775 146.05 64.1294C146.511 62.7906 145.773 61.369 144.944 60.1958C144.114 59.0226 143.1 57.8955 142.98 56.4876C142.87 55.3835 143.312 54.3115 143.441 53.2165C143.722 51.1278 142.907 49.0069 141.598 47.346C140.242 45.7306 138.618 44.3609 136.795 43.2974C135.412 42.4325 133.938 41.5354 133.292 40.0769C133.066 39.4893 132.946 38.8662 132.937 38.2366Z" fill="#FC682D"/>
<path d="M130.674 42.3908C130.978 43.311 131.135 44.3001 131.665 45.1283C132.31 46.1772 133.407 46.8489 134.495 47.4286C135.082 47.6897 135.614 48.0597 136.062 48.519C136.375 48.918 136.594 49.3817 136.703 49.8762C136.861 50.5264 136.9 51.1997 136.818 51.8637C136.687 52.4164 136.651 52.9874 136.712 53.5521C136.873 54.2561 137.45 54.7713 137.952 55.2912C138.952 56.2328 139.629 57.4665 139.883 58.8154C140.067 60.168 139.519 61.6724 138.321 62.3349C137.886 62.5578 137.42 62.7129 136.938 62.795C136.164 62.9474 135.38 63.0428 134.592 63.0802C134.03 63.1223 133.466 63.0757 132.919 62.9422C132.252 62.7042 131.629 62.3575 131.075 61.9162L123.738 56.7082C122.885 56.1846 122.146 55.4945 121.567 54.6793C121.165 53.9409 120.898 53.1371 120.779 52.3054C120.378 50.2857 120.069 48.1233 120.853 46.2186C121.461 44.728 122.668 43.5732 123.839 42.4645L126.812 39.658C127.674 38.8437 128.351 38.4848 129.116 39.4832C129.791 40.3609 130.318 41.3431 130.674 42.3908Z" fill="url(#paint1_linear)"/>
<path d="M135.786 69.0425C138.224 71.7707 139.238 75.1292 141.086 78.2439C141.304 78.6892 141.636 79.0687 142.049 79.3435C142.727 79.7115 143.57 79.4539 144.252 79.095C149.742 76.169 150.244 67.8003 155.627 64.6856C156.876 63.9679 158.296 63.5907 159.536 62.8453C159.997 62.5693 160.495 62.077 160.31 61.5709C160.226 61.4155 160.109 61.2799 159.967 61.1736C159.826 61.0672 159.663 60.9925 159.49 60.9545C158.072 60.4659 156.568 60.2794 155.074 60.407C154.406 60.4668 153.475 60.407 153.401 59.7307C153.42 59.5363 153.42 59.3407 153.401 59.1464C153.254 58.6587 152.438 58.8381 152.235 59.3074C152.032 59.7767 152.185 60.3104 152.166 60.821C152.074 61.6202 151.765 62.3791 151.272 63.0156C150.11 64.8037 148.839 66.5184 147.465 68.1499C143.575 72.7506 142.593 65.4125 139.519 63.8805C139.227 63.7595 138.914 63.6954 138.597 63.6919C135.859 63.5048 133.119 63.4496 130.375 63.5262C131.347 64.3038 134.91 68.0671 135.786 69.0425Z" fill="#F4DBBD"/>
<path d="M127.941 52.0571C127.941 52.0571 135.906 55.6411 136.376 56.5796C136.846 57.5182 136.376 84.2943 136.376 84.2943H108.298L109.911 56.0781L118.124 52.7196L127.941 52.0571Z" fill="#0F3DB7"/>
<path d="M108.293 84.2989H136.376C136.376 84.2989 136.837 57.5228 136.376 56.575C135.915 55.6273 127.941 52.0571 127.941 52.0571L118.129 52.715L109.915 56.0735L109.136 69.6226L108.293 84.2989Z" fill="url(#paint2_linear)"/>
<path d="M136.376 56.5654L143.063 65.0675C141.718 69.0379 136.376 74.0757 136.376 74.0757V56.5654Z" fill="#0F3DB7"/>
<path d="M136.375 64.29L140.556 69.4198L136.375 74.0895V64.29Z" fill="url(#paint3_linear)"/>
<path d="M127.738 48.2475C127.466 49.6921 127.886 50.7917 127.946 52.1167C128.029 54.0812 125.945 57.1498 125.116 58.9441C124.849 59.5238 124.531 60.1541 123.945 60.4163C123.531 60.5669 123.086 60.6127 122.65 60.5498C122 60.5664 121.357 60.4193 120.779 60.1219C120.023 59.6618 119.696 58.7417 119.433 57.8859C119.004 56.5057 117.917 54.3204 118.179 52.8988C118.262 52.4387 118.677 51.9786 118.792 51.4818C118.901 50.8392 118.937 50.1863 118.898 49.5357C118.866 46.0759 127.738 48.2475 127.738 48.2475Z" fill="#F4DBBD"/>
<path d="M127.738 48.2476C127.738 48.2476 126.614 54.2653 123.033 53.9156C122.055 53.8565 121.124 53.4836 120.376 52.8527C119.629 52.2217 119.105 51.3665 118.885 50.4145L127.738 48.2476Z" fill="#E0BE99"/>
<path d="M128.052 47.2079C127.834 48.1699 127.458 49.0889 126.937 49.9269C125.471 52.0662 122.143 52.7241 119.94 51.3071C118.754 50.4561 117.836 49.2845 117.295 47.9302C116.006 45.094 115.575 41.944 116.055 38.8668C116.182 37.6655 116.641 36.5232 117.382 35.5681C118.686 34.0637 120.913 33.6726 122.913 33.7784C124.724 33.875 126.6 34.3259 127.96 35.4807C128.693 36.1276 129.238 36.9604 129.535 37.8911C129.833 38.8217 129.873 39.8154 129.651 40.7669C129.14 42.9108 128.637 45.064 128.052 47.2079Z" fill="#F4DBBD"/>
<path d="M86.0546 55.4614C85.7568 55.174 85.3877 54.9707 84.9853 54.8725C84.5785 54.8209 84.1693 54.7902 83.7593 54.7805C82.9159 54.6839 82.0309 54.2376 81.2705 54.6149C81.0145 54.7633 80.8035 54.9781 80.6599 55.2365C80.5163 55.4948 80.4454 55.7872 80.4547 56.0825C80.4777 56.6729 80.6472 57.2483 80.9478 57.7572C82.2199 60.1725 84.0912 60.9777 86.2897 62.2705C87.4465 62.9514 88.2531 64.5708 89.0551 65.698L91.9633 69.719C93.1525 71.3614 94.36 73.0269 95.9501 74.2921C96.2086 74.5162 96.5052 74.6923 96.8258 74.812C97.4097 74.9517 98.0237 74.8901 98.568 74.6372C100.873 73.7492 102.924 72.0654 104.915 70.6115C105.836 69.9306 106.79 69.2313 107.717 68.5458C108.118 68.2468 108.865 67.8649 109.123 67.414C109.265 67.1267 109.348 66.8138 109.367 66.4939C109.717 63.7795 109.233 61.0145 109.302 58.277C106.27 61.7368 102.767 65.3943 98.7017 67.6257C98.5807 67.7067 98.4412 67.7557 98.2961 67.7683C98.1487 67.7562 98.0065 67.7088 97.8813 67.6303C94.5113 65.8378 91.5438 63.3766 89.1611 60.398C88.281 59.1731 87.5099 57.8738 86.8566 56.515C86.6483 56.1227 86.3774 55.7668 86.0546 55.4614Z" fill="#F4DBBD"/>
<path d="M129.633 41.5259C129.82 41.4264 130.034 41.3875 130.245 41.4147C130.455 41.4419 130.652 41.5338 130.808 41.6777C130.898 41.7958 130.961 41.9325 130.992 42.078C131.137 42.9019 130.964 43.7499 130.508 44.452C130.404 44.6552 130.262 44.8365 130.089 44.9856C129.737 45.2073 129.325 45.3165 128.909 45.2985C128.816 45.3171 128.721 45.3171 128.628 45.2985C128.553 45.2642 128.487 45.214 128.434 45.1513C128.302 44.9852 128.204 44.794 128.148 44.5891C128.092 44.3842 128.078 44.1701 128.107 43.9597C128.195 43.012 128.738 41.917 129.633 41.5259Z" fill="#F4DBBD"/>
<path d="M115.751 45.1188C115.937 45.2203 116.151 45.2607 116.362 45.2343C116.573 45.2079 116.77 45.116 116.926 44.9716C117.017 44.8536 117.08 44.7168 117.11 44.5713C117.257 43.7474 117.084 42.8986 116.626 42.1974C116.521 41.9934 116.379 41.8109 116.207 41.6591C115.855 41.4363 115.443 41.3271 115.027 41.3462C114.932 41.3344 114.836 41.3439 114.746 41.3738C114.67 41.4065 114.604 41.457 114.552 41.5211C114.419 41.6871 114.322 41.8784 114.266 42.0832C114.209 42.2881 114.196 42.5023 114.225 42.7126C114.313 43.6374 114.861 44.7324 115.751 45.1188Z" fill="#F4DBBD"/>
<path d="M109.911 56.0781L103.306 64.387C104.647 68.3574 109.123 73.3952 109.123 73.3952L109.911 56.0781Z" fill="#0F3DB7"/>
<path d="M130.365 43.6239C130.249 43.9149 130.06 44.1714 129.817 44.3692C129.71 44.4572 129.577 44.5087 129.439 44.5161C129.301 44.5236 129.163 44.4866 129.047 44.4106C129.004 44.382 128.972 44.3399 128.955 44.291C128.938 44.2114 128.95 44.1284 128.987 44.0563L129.043 43.9091C129.056 43.8663 129.076 43.8259 129.103 43.7895C129.204 43.6561 129.411 43.6791 129.564 43.5963C129.716 43.5135 129.776 43.3018 129.859 43.1362C129.887 43.0677 129.935 43.0087 129.996 42.9664C130.058 42.924 130.13 42.8999 130.204 42.897C130.274 42.9117 130.338 42.9488 130.385 43.0028C130.433 43.0567 130.461 43.1245 130.467 43.196C130.474 43.3454 130.439 43.4938 130.365 43.6239Z" fill="#E0BE99"/>
<path d="M114.833 43.3295C114.948 43.621 115.137 43.8778 115.382 44.0748C115.489 44.1632 115.622 44.2152 115.761 44.2235C115.9 44.2318 116.039 44.1958 116.156 44.1208C116.199 44.0902 116.231 44.0467 116.248 43.9966C116.262 43.9184 116.251 43.8377 116.216 43.7665L116.161 43.6193C116.148 43.5761 116.128 43.5355 116.101 43.4997C115.999 43.3663 115.792 43.3847 115.64 43.3018C115.488 43.219 115.428 43.0074 115.345 42.8418C115.315 42.7739 115.267 42.7155 115.206 42.6733C115.145 42.631 115.073 42.6065 114.999 42.6025C114.928 42.6149 114.864 42.6507 114.816 42.7041C114.769 42.7576 114.74 42.8255 114.736 42.897C114.726 43.0475 114.759 43.1978 114.833 43.3295Z" fill="#E0BE99"/>
<path d="M127.941 52.0571L129.812 52.9221L128.891 61.5622L123.931 63.4669C123.931 63.4669 126.01 57.1363 127.941 52.0571Z" fill="url(#paint4_linear)"/>
<path d="M127.305 62.1738L127.937 65.4863L121.927 72.1896L123.931 63.4896L127.305 62.1738Z" fill="url(#paint5_linear)"/>
<path d="M118.059 52.77L116.188 53.6303L115.119 61.562L120.06 63.4667C120.06 63.4667 118.124 55.4844 118.059 52.77Z" fill="url(#paint6_linear)"/>
<path d="M116.691 62.1738L116.055 65.4863L122.065 72.1896L120.06 63.4896L116.691 62.1738Z" fill="url(#paint7_linear)"/>
<path d="M114.262 84.1927L132.799 80.894L136.376 64.29V82.7711V84.2939L114.262 84.1927Z" fill="url(#paint8_linear)"/>
<path d="M121.387 35.3014C121.618 36.6816 121.848 38.2182 122.908 39.1844C123.509 39.6878 124.212 40.0551 124.968 40.2609C126.7 40.8289 128.503 41.1555 130.324 41.2317C130.59 40.0424 130.587 38.8087 130.315 37.6207C130.043 36.4327 129.508 35.3204 128.75 34.365C127.992 33.4096 127.03 32.6352 125.934 32.0984C124.838 31.5615 123.636 31.2758 122.415 31.262C119.239 31.1745 121.051 33.2357 121.387 35.3014Z" fill="#FC682D"/>
<path d="M148.903 82.7021H48.4128V88.1678H148.903V82.7021Z" fill="white"/>
<path d="M124.36 115.689C123.7 116.35 123.225 117.172 122.984 118.073C122.743 118.975 122.744 119.924 122.987 120.825C123.23 121.725 123.706 122.547 124.368 123.205C125.03 123.864 125.854 124.338 126.757 124.578V125.793H62.6917C61.3547 125.793 60.0517 125.372 58.9684 124.589C57.8851 123.807 57.0767 122.703 56.6585 121.436C56.4414 120.791 56.3309 120.115 56.3313 119.434C56.3307 118.6 56.4948 117.775 56.8142 117.004C57.1337 116.233 57.6021 115.533 58.1929 114.944C58.7836 114.354 59.485 113.886 60.257 113.568C61.0289 113.249 61.8563 113.085 62.6917 113.085H126.757V114.3C125.849 114.543 125.022 115.023 124.36 115.689Z" fill="#0F3DB7"/>
<path d="M126.757 124.578V125.792H62.6916C61.3546 125.792 60.0516 125.371 58.9683 124.589C57.885 123.807 57.0766 122.703 56.6584 121.435C59.092 121.863 74.4999 124.315 83.0772 119.434L123.254 121.573C123.574 122.305 124.055 122.955 124.661 123.475C125.268 123.995 125.984 124.372 126.757 124.578Z" fill="url(#paint9_linear)"/>
<path d="M124.36 115.689C123.7 116.349 123.225 117.172 122.984 118.073C122.743 118.974 122.744 119.923 122.987 120.824C123.23 121.725 123.706 122.546 124.368 123.205C125.03 123.864 125.854 124.337 126.757 124.578V124.757H88.4007C87.6887 124.778 86.9798 124.656 86.3159 124.399C85.652 124.141 85.0466 123.753 84.5356 123.258C84.0246 122.763 83.6184 122.17 83.341 121.515C83.0636 120.86 82.9207 120.157 82.9207 119.446C82.9207 118.735 83.0636 118.031 83.341 117.376C83.6184 116.721 84.0246 116.129 84.5356 115.633C85.0466 115.138 85.652 114.75 86.3159 114.493C86.9798 114.235 87.6887 114.113 88.4007 114.134H126.757V114.309C125.85 114.55 125.023 115.026 124.36 115.689Z" fill="white"/>
<path d="M163.329 128.939C162.669 129.599 162.194 130.422 161.953 131.323C161.712 132.224 161.713 133.173 161.956 134.074C162.199 134.975 162.675 135.796 163.337 136.455C163.999 137.114 164.823 137.587 165.726 137.828V139.042H101.661C100.325 139.043 99.0226 138.623 97.9395 137.843C96.8563 137.062 96.0473 135.96 95.6275 134.695C95.4104 134.05 95.2999 133.374 95.3003 132.693C95.2997 131.859 95.4638 131.033 95.7832 130.263C96.1026 129.492 96.5711 128.792 97.1619 128.202C97.7526 127.613 98.454 127.145 99.226 126.826C99.9979 126.507 100.825 126.344 101.661 126.344H165.726V127.559C164.819 127.799 163.992 128.276 163.329 128.939Z" fill="#0F3DB7"/>
<path d="M165.726 137.828V139.042H101.661C100.325 139.043 99.0226 138.623 97.9394 137.843C96.8562 137.062 96.0472 135.961 95.6274 134.695C98.061 135.123 113.469 137.575 122.046 132.693L162.223 134.833C162.544 135.563 163.025 136.211 163.632 136.729C164.238 137.248 164.954 137.623 165.726 137.828Z" fill="url(#paint10_linear)"/>
<path d="M163.329 128.939C162.669 129.599 162.194 130.422 161.953 131.323C161.712 132.224 161.713 133.173 161.956 134.074C162.199 134.975 162.675 135.796 163.337 136.455C163.999 137.114 164.823 137.587 165.726 137.828V137.998H127.37C126.658 138.019 125.949 137.897 125.285 137.639C124.621 137.382 124.016 136.994 123.505 136.499C122.994 136.003 122.587 135.411 122.31 134.756C122.033 134.101 121.89 133.397 121.89 132.686C121.89 131.975 122.033 131.272 122.31 130.617C122.587 129.962 122.994 129.369 123.505 128.874C124.016 128.379 124.621 127.991 125.285 127.733C125.949 127.476 126.658 127.354 127.37 127.375H165.726V127.55C164.818 127.793 163.991 128.272 163.329 128.939Z" fill="white"/>
<path d="M82.787 54.5873L75.1038 36.2397L83.7595 54.7806L82.787 54.5873Z" fill="white"/>
<path d="M150.58 91.8714C149.931 92.1632 149.337 92.5648 148.824 93.0584C148.569 93.3051 148.367 93.6023 148.233 93.9311C148.099 94.2598 148.035 94.6129 148.045 94.9677C148.115 95.828 148.732 96.5365 149.382 97.0978C150.124 97.7511 151.028 98.432 151.087 99.3982C151.617 99.0025 152.101 98.5424 152.65 98.1698C153.609 97.5165 154.738 97.1668 155.793 96.6838C156.849 96.2007 157.895 95.5198 158.397 94.4754C158.669 93.8152 158.824 93.1134 158.858 92.4005C158.966 91.6385 158.986 90.8667 158.918 90.1002C158.846 89.3288 158.507 88.6066 157.959 88.0574C157.127 87.42 156.145 87.0052 155.106 86.8521C154.522 86.882 153.959 87.0787 153.484 87.4188C153.008 87.7589 152.64 88.228 152.424 88.7705C152.207 89.3456 152.309 89.9989 152.097 90.574C151.829 91.2457 151.18 91.5678 150.58 91.8714Z" fill="#FC682D"/>
<path d="M126.692 126.657C126.484 126.653 126.277 126.684 126.079 126.749C125.98 126.783 125.893 126.845 125.828 126.926C125.763 127.007 125.722 127.106 125.71 127.209C125.719 127.31 125.752 127.408 125.808 127.493C125.863 127.578 125.939 127.648 126.028 127.697C126.199 127.807 126.397 127.872 126.568 127.987C126.712 128.106 126.866 128.212 127.029 128.304C127.321 128.392 127.633 128.38 127.918 128.272C129.246 127.949 130.621 127.863 131.979 128.019C132.11 128.035 132.243 128.035 132.375 128.019C132.568 127.963 132.744 127.859 132.886 127.717C133.028 127.574 133.131 127.398 133.186 127.205C133.458 126.381 133.539 125.506 133.421 124.647C133.42 124.551 133.396 124.456 133.352 124.371C133.297 124.304 133.228 124.25 133.149 124.214C131.863 123.579 131.158 124.849 130.213 125.47C129.162 126.163 127.949 126.572 126.692 126.657Z" fill="#FFBBAB"/>
<path d="M157.789 107.776C157.789 107.776 158.112 112.579 153.811 114.028C149.511 115.477 141.805 114.295 141.805 114.295C141.805 114.295 138.703 120.225 135.532 123.036L133.504 125.038C133.077 125.141 132.628 125.102 132.225 124.928C131.821 124.754 131.486 124.453 131.269 124.072C131.269 124.072 137.26 112.151 138.067 111.259C138.982 110.16 140.205 109.359 141.579 108.958L150.161 106.262L157.789 107.776Z" fill="#473F47"/>
<path d="M129.089 92.0415L133.693 101.8L142.201 101.74L142.132 101.004L134.306 100.916L129.974 91.6826L129.089 92.0415Z" fill="#473F47"/>
<path d="M151.608 85.7339C151.452 86.0008 151.124 86.1572 151.018 86.447C150.912 86.7369 151.138 87.1693 151.263 87.5236C151.443 88.0159 151.387 88.568 151.558 89.0648C151.587 89.1721 151.648 89.2682 151.733 89.3409C151.812 89.3947 151.901 89.4308 151.996 89.4467C152.364 89.5209 152.741 89.5426 153.116 89.5111C153.189 89.4967 153.265 89.5064 153.332 89.5387C153.387 89.5871 153.422 89.6545 153.429 89.7273C153.644 90.6648 153.628 91.6405 153.383 92.5706C153.305 92.8788 153.217 93.2515 153.443 93.4907C153.525 93.5646 153.625 93.6154 153.733 93.6379C154.443 93.8081 155.116 93.2837 155.604 92.7178C156.032 92.226 156.4 91.6855 156.701 91.1075C156.795 90.9471 156.859 90.7709 156.89 90.5877C156.904 90.3505 156.871 90.113 156.794 89.8883C156.59 89.1147 156.467 88.3223 156.425 87.5236C156.374 86.5022 156.448 85.4395 156.051 84.4917C155.939 84.1659 155.722 83.8862 155.434 83.6958C155.09 83.5323 154.706 83.47 154.328 83.5164C153.586 83.544 152.765 83.6452 152.258 84.1927C152.115 84.3491 151.807 85.4027 151.608 85.7339Z" fill="#FFBBAB"/>
<path d="M156.831 90.6521C156.831 90.6521 153.766 92.2348 152.839 93.477C151.913 94.7192 150.401 95.6347 150.996 97.9857C151.59 100.337 150.866 103.925 150.866 103.925C150.866 103.925 152.198 108.107 155.475 109.165C158.752 110.224 157.849 109.888 157.849 109.888C157.849 109.888 159.587 102.135 160.269 99.9778C160.951 97.82 159.799 90.3071 156.831 90.6521Z" fill="#0F3DB7"/>
<path d="M152.595 84.087C152.656 84.591 152.896 85.0564 153.272 85.3982C153.636 85.734 154.084 85.9687 154.461 86.2907C154.661 86.4397 154.819 86.636 154.923 86.8618C155.027 87.0875 155.073 87.3357 155.056 87.5835C155.201 87.5261 155.361 87.5209 155.509 87.5687C155.657 87.6166 155.784 87.7146 155.867 87.8458C155.906 87.9383 155.918 88.0397 155.903 88.1388C155.887 88.2378 155.845 88.3307 155.78 88.407C155.713 88.4815 155.63 88.54 155.537 88.5782C155.445 88.6164 155.345 88.6334 155.245 88.6279C155.632 88.7859 155.964 89.0548 156.199 89.4008C156.462 89.7873 156.591 90.2473 156.83 90.6522C157.126 91.0612 157.497 91.4108 157.923 91.6827C158.114 91.8114 158.272 91.9832 158.384 92.1842C158.471 92.497 158.577 92.8043 158.702 93.1044C158.974 93.4876 159.266 93.8561 159.577 94.2085C159.998 94.8238 160.239 95.5438 160.273 96.288C160.253 96.0677 160.253 95.8459 160.273 95.6255C160.35 95.4967 160.424 95.3633 160.495 95.2253C160.613 94.9844 160.704 94.7314 160.767 94.4708C160.855 93.8737 160.872 93.2683 160.817 92.6673C160.817 91.3791 162.034 88.9545 161.057 87.8504C160.668 87.525 160.253 87.2312 159.817 86.9716C158.955 86.2585 158.835 85.0025 158.292 84.0272C158.05 83.5978 157.726 83.2205 157.338 82.9172C156.949 82.614 156.504 82.3907 156.029 82.2605C154.756 81.8971 152.424 82.2973 152.595 84.087Z" fill="#FC682D"/>
<path d="M155.65 94.6824C155.65 94.6824 153.715 99.9088 153.346 100.291C152.977 100.673 157.075 102.982 157.075 102.982C157.075 102.982 159.753 97.8983 159.628 95.6992C159.504 93.5 157.158 92.6075 155.65 94.6824Z" fill="#0F3DB7"/>
<path d="M157.056 102.273C157.056 102.273 156.913 103.957 154.844 103.925L145.649 103.796C145.022 103.474 144.165 103.424 143.699 102.876C143.473 102.628 143.358 102.296 143.146 102.039C142.853 101.716 142.458 101.505 142.026 101.441C141.599 101.379 141.166 101.369 140.736 101.409C140.651 101.312 140.605 101.187 140.605 101.059C140.605 100.93 140.651 100.806 140.736 100.709C140.916 100.523 141.149 100.396 141.404 100.346C142.463 100.081 143.583 100.247 144.52 100.806C144.791 100.998 145.087 101.153 145.4 101.266C145.63 101.313 145.867 101.325 146.101 101.303C148.751 101.179 151.369 100.617 154.019 100.498C154.64 100.436 155.268 100.501 155.862 100.691C156.173 100.841 156.444 101.062 156.652 101.338C156.859 101.613 156.998 101.934 157.056 102.273Z" fill="#FFBBAB"/>
<path d="M127.489 102.835H126.185V126.657H127.489V102.835Z" fill="white"/>
<path d="M142.202 102.835H140.897V126.657H142.202V102.835Z" fill="white"/>
<path d="M142.921 101.8H124.655V103.87H142.921V101.8Z" fill="#0F3DB7"/>
<path d="M142.921 101.8H124.655V103.87H142.921V101.8Z" fill="url(#paint11_linear)"/>
<path d="M158.158 113.743H146.271C145.991 113.743 145.764 113.97 145.764 114.249V116.315C145.764 116.594 145.991 116.821 146.271 116.821H158.158C158.438 116.821 158.665 116.594 158.665 116.315V114.249C158.665 113.97 158.438 113.743 158.158 113.743Z" fill="#473F47"/>
<path d="M148.295 116.821H146.115L145.027 126.892H147.207L148.295 116.821Z" fill="#473F47"/>
<path d="M159.384 126.892L157.941 116.821H155.761L157.573 126.892H159.384Z" fill="#473F47"/>
<path d="M162.596 96.854H160.642L156.227 113.821H158.181L162.596 96.854Z" fill="#473F47"/>
<path d="M48.0627 116.821H59.9493C60.2293 116.821 60.4563 116.595 60.4563 116.315V114.249C60.4563 113.97 60.2293 113.743 59.9493 113.743H48.0627C47.7827 113.743 47.5557 113.97 47.5557 114.249V116.315C47.5557 116.595 47.7827 116.821 48.0627 116.821Z" fill="#473F47"/>
<path d="M57.926 116.821H60.1061L61.1938 126.892H59.0137L57.926 116.821Z" fill="#473F47"/>
<path d="M46.8367 126.892L48.2793 116.821H50.4593L48.648 126.892H46.8367Z" fill="#473F47"/>
<path d="M43.6243 96.854H45.5785L49.9939 113.821H48.0397L43.6243 96.854Z" fill="#473F47"/>
<path d="M102.518 128.944C101.858 129.604 101.383 130.426 101.142 131.328C100.901 132.229 100.902 133.178 101.145 134.079C101.388 134.98 101.864 135.801 102.526 136.46C103.188 137.119 104.011 137.592 104.915 137.832V139.047H40.8494C39.5135 139.048 38.2114 138.628 37.1282 137.848C36.045 137.067 35.236 135.965 34.8163 134.699C34.5991 134.054 34.4886 133.379 34.489 132.698C34.4884 131.864 34.6525 131.038 34.9719 130.268C35.2914 129.497 35.7599 128.797 36.3506 128.207C36.9413 127.618 37.6427 127.15 38.4147 126.831C39.1867 126.512 40.014 126.349 40.8494 126.349H104.915V127.564C104.007 127.804 103.18 128.281 102.518 128.944Z" fill="#0F3DB7"/>
<path d="M104.915 137.833V139.047H40.8496C39.5137 139.048 38.2115 138.628 37.1283 137.848C36.0452 137.067 35.2362 135.966 34.8164 134.7C37.25 135.127 52.6578 137.58 61.2352 132.698L101.412 134.838C101.733 135.567 102.214 136.216 102.821 136.734C103.427 137.253 104.143 137.628 104.915 137.833Z" fill="url(#paint12_linear)"/>
<path d="M102.518 128.944C101.858 129.604 101.383 130.426 101.142 131.328C100.901 132.229 100.902 133.178 101.145 134.079C101.388 134.98 101.864 135.801 102.526 136.46C103.188 137.119 104.012 137.592 104.915 137.832V137.998H66.5586C65.8467 138.019 65.1378 137.897 64.4739 137.639C63.81 137.382 63.2046 136.994 62.6936 136.499C62.1826 136.003 61.7764 135.411 61.499 134.756C61.2216 134.101 61.0786 133.397 61.0786 132.686C61.0786 131.975 61.2216 131.272 61.499 130.617C61.7764 129.962 62.1826 129.369 62.6936 128.874C63.2046 128.379 63.81 127.991 64.4739 127.733C65.1378 127.476 65.8467 127.354 66.5586 127.375H104.915V127.55C104.006 127.794 103.179 128.275 102.518 128.944Z" fill="white"/>
<path d="M54.4875 83.6499L58.7555 85.435L54.4875 87.105V83.6499Z" fill="#0F3DB7"/>
<path d="M145.349 84.8647H60.4839V86.0011H145.349V84.8647Z" fill="#0F3DB7"/>
<path d="M49.0443 107.905C49.0443 107.905 48.7217 112.708 53.0219 114.157C56.0915 115.193 59.6128 114.967 62.793 114.686C63.3046 114.64 64.2218 114.383 64.6734 114.723C65.3095 115.183 64.9915 116.467 64.973 117.162C64.9315 118.671 64.8947 120.175 64.8532 121.684C64.8532 122.379 64.8532 123.092 64.7979 123.782C64.7426 124.472 64.572 125.282 64.5213 126.046C64.5148 126.077 64.5152 126.11 64.5223 126.142C64.5295 126.174 64.5433 126.204 64.5628 126.23C64.5893 126.25 64.6196 126.266 64.6521 126.274C64.6846 126.283 64.7185 126.285 64.7518 126.28L70.384 126.036C70.4446 126.043 70.5056 126.027 70.5545 125.99C70.6375 125.912 70.5822 125.774 70.5176 125.682C69.9369 124.935 69.1278 124.397 68.2131 124.15C67.9974 124.096 67.7919 124.008 67.6048 123.888C67.0194 123.428 67.5034 122.439 67.637 121.882L68.2178 119.462L69.3608 114.705C69.7019 113.297 69.7848 112.225 68.6971 111.245C67.7183 110.277 66.5337 109.541 65.2311 109.092L56.6538 106.396L49.0443 107.905Z" fill="#473F47"/>
<path d="M82.9344 92.0415L78.33 101.8L69.8218 101.74L69.8909 101.004L77.7124 100.916L82.0448 91.6826L82.9344 92.0415Z" fill="#473F47"/>
<path d="M60.41 85.7339C60.5714 86.0007 60.8986 86.1571 61.0046 86.447C61.1106 86.7368 60.8848 87.1693 60.7557 87.5235C60.5806 88.0158 60.6359 88.5679 60.4654 89.0648C60.4357 89.1721 60.3747 89.2682 60.2902 89.3408C60.211 89.3939 60.1215 89.43 60.0275 89.4466C59.6591 89.5209 59.282 89.5425 58.9075 89.511C58.8342 89.4966 58.7582 89.5063 58.6909 89.5386C58.6359 89.5871 58.6014 89.6544 58.5941 89.7273C58.3773 90.6644 58.3915 91.6401 58.6356 92.5705C58.7185 92.8787 58.8061 93.2514 58.5803 93.4906C58.4983 93.5646 58.3981 93.6154 58.2899 93.6379C57.5801 93.8081 56.9072 93.2836 56.4187 92.7177C55.9908 92.2259 55.6226 91.6854 55.3217 91.1075C55.2277 90.947 55.1637 90.7709 55.1327 90.5876C55.1195 90.3504 55.1524 90.113 55.2295 89.8883C55.4314 89.1145 55.5535 88.3221 55.5936 87.5235C55.649 86.5022 55.5936 85.4394 55.967 84.4917C56.0815 84.1655 56.3001 83.8859 56.5892 83.6957C56.9317 83.5323 57.3139 83.4701 57.6907 83.5163C58.4374 83.5439 59.2532 83.6451 59.7602 84.1926C59.9077 84.349 60.2165 85.4026 60.41 85.7339Z" fill="#FFBBAB"/>
<path d="M55.1743 90.6706H55.2388C56.5939 91.0064 58.5665 92.2394 59.009 93.6104C59.5667 95.3311 59.9308 97.6453 59.5298 99.4257C59.2579 100.636 58.608 101.726 58.2439 102.913C57.9351 103.893 57.806 104.933 57.4004 105.876C56.8941 106.972 56.0416 107.873 54.9736 108.44C53.9056 109.006 52.6809 109.208 51.4871 109.014C50.8536 108.906 50.2566 108.644 49.7495 108.25C49.2895 107.823 48.9342 107.295 48.7112 106.709C48.4882 106.123 48.4035 105.493 48.4636 104.868C48.5991 103.62 48.9272 102.4 49.4361 101.252L51.547 95.7544C52.0586 94.4386 53.2984 90.2979 55.1743 90.6706Z" fill="#0F3DB7"/>
<path d="M54.0819 104.192C54.2004 104.389 54.2788 104.608 54.3123 104.836C54.3186 105.004 54.2984 105.171 54.2524 105.333C54.0353 106.227 53.9438 107.147 53.9805 108.066C53.9662 108.232 54.0175 108.397 54.1234 108.526C54.2429 108.611 54.3866 108.656 54.5336 108.655C55.0606 108.74 55.601 108.686 56.1006 108.498C56.6386 108.161 57.0438 107.649 57.2483 107.049C57.9235 105.379 58.4375 103.649 58.7831 101.882C58.8701 101.6 58.8983 101.302 58.866 101.008C58.8094 100.79 58.7102 100.585 58.5742 100.405C58.4382 100.225 58.268 100.074 58.0733 99.9593C57.7046 99.7062 57.2851 99.5222 56.9302 99.2461C56.2297 98.7125 55.7135 97.7417 54.7594 97.6175C54.4297 97.5936 54.1019 97.6852 53.8326 97.8767C53.5634 98.0682 53.3695 98.3475 53.2845 98.6665C52.6577 100.318 53.3306 102.678 54.0819 104.192Z" fill="url(#paint13_linear)"/>
<path d="M56.3774 94.6824C56.3774 94.6824 58.3132 99.9088 58.6819 100.291C59.0506 100.673 54.9578 102.982 54.9578 102.982C54.9578 102.982 52.2754 97.8983 52.4044 95.6992C52.5335 93.5 54.8656 92.6075 56.3774 94.6824Z" fill="#0F3DB7"/>
<path d="M54.9668 102.273C54.9668 102.273 55.1097 103.957 57.1745 103.925L66.3925 103.796C67.0147 103.474 67.872 103.424 68.3421 102.876C68.5633 102.628 68.6786 102.296 68.8952 102.039C69.1882 101.716 69.5839 101.505 70.0152 101.441C70.4426 101.379 70.8757 101.369 71.3057 101.409C71.3891 101.311 71.435 101.187 71.435 101.059C71.435 100.931 71.3891 100.807 71.3057 100.709C71.1246 100.524 70.8917 100.397 70.6374 100.346C69.5788 100.081 68.4582 100.247 67.5217 100.806C67.2504 100.998 66.9543 101.153 66.6414 101.266C66.411 101.313 66.1749 101.325 65.9408 101.303C63.2906 101.179 60.6727 100.617 58.0226 100.498C57.4013 100.437 56.774 100.502 56.179 100.691C55.8641 100.838 55.5895 101.058 55.3785 101.334C55.1674 101.609 55.0262 101.932 54.9668 102.273Z" fill="#FFBBAB"/>
<path d="M68.4298 102.835H67.1255V126.657H68.4298V102.835Z" fill="white"/>
<path d="M83.1464 102.835H81.842V126.657H83.1464V102.835Z" fill="white"/>
<path d="M83.8607 101.8H65.5952V103.87H83.8607V101.8Z" fill="#0F3DB7"/>
<path d="M83.8607 101.8H65.5952V103.87H83.8607V101.8Z" fill="url(#paint14_linear)"/>
<path d="M59.7834 81.5568C59.5617 81.2167 59.2631 80.9334 58.9117 80.7296C58.5602 80.5258 58.1658 80.4073 57.76 80.3836C57.4881 80.343 57.2107 80.3606 56.9461 80.4351C56.6815 80.5097 56.4358 80.6395 56.2252 80.8161C56.0593 80.9817 55.9349 81.1887 55.7643 81.3497C55.2712 81.8098 54.5107 81.7546 53.9207 82.0352C53.3876 82.3118 52.978 82.7781 52.7731 83.3418C52.5726 83.9024 52.4607 84.4906 52.4412 85.0855C52.3755 85.6293 52.4052 86.1804 52.5288 86.7141C52.6469 87.1086 52.8548 87.4704 53.1362 87.7713C53.4177 88.0722 53.765 88.304 54.1512 88.4486C54.3345 88.4921 54.5041 88.5806 54.6443 88.7062C54.755 88.8305 54.7918 89.0099 54.8978 89.1387C55.1605 89.4608 55.686 89.3411 56.0132 89.0881C56.2973 88.7889 56.6214 88.5303 56.9765 88.3198L56.0547 87.073C55.9362 86.9486 55.8688 86.7845 55.8657 86.6129C55.8936 86.5134 55.9542 86.4262 56.0378 86.3652C56.1215 86.3043 56.2232 86.2732 56.3266 86.2771C56.5341 86.2957 56.7299 86.3813 56.8843 86.5209C57.018 86.6313 57.2208 86.7555 57.3452 86.6267C57.3831 86.5865 57.4059 86.5345 57.4097 86.4795C57.5111 85.863 56.9488 85.2511 57.1148 84.6392C57.1279 84.5835 57.1586 84.5335 57.2023 84.4966C57.2673 84.4621 57.3427 84.4523 57.4143 84.469C57.7816 84.5286 58.1553 84.5379 58.5251 84.4966C59.6912 84.2804 60.3641 82.5551 59.7834 81.5568Z" fill="#473F47"/>
<path d="M58.1148 94.5397C58.1148 94.7651 58.1148 95.0503 57.8798 95.1055C57.7875 95.1211 57.6926 95.1083 57.6078 95.0687C57.255 94.9448 56.9202 94.7746 56.6123 94.5627C56.6918 96.4663 56.9526 98.358 57.3912 100.212C57.4096 100.318 57.4505 100.418 57.5111 100.507C57.5776 100.57 57.6565 100.62 57.743 100.651C57.8294 100.683 57.9215 100.696 58.0134 100.691C58.4673 100.714 58.9215 100.649 59.35 100.498C58.207 98.6021 58.1563 96.1959 58.8016 94.0842C58.937 93.7794 58.9725 93.4396 58.903 93.1135C58.7762 92.8875 58.6032 92.6909 58.3951 92.5363C58.187 92.3817 57.9486 92.2726 57.6954 92.2163C57.5571 92.911 58.0595 93.8312 58.1148 94.5397Z" fill="url(#paint15_linear)"/>
<defs>
<linearGradient id="paint0_linear" x1="95.5721" y1="92.5293" x2="98.594" y2="133.329" gradientUnits="userSpaceOnUse">
<stop offset="0.01"/>
<stop offset="0.08" stop-opacity="0.69"/>
<stop offset="0.21" stop-opacity="0.32"/>
<stop offset="1" stop-opacity="0"/>
</linearGradient>
<linearGradient id="paint1_linear" x1="5796.57" y1="5191.41" x2="9769.95" y2="3597.21" gradientUnits="userSpaceOnUse">
<stop offset="0.01"/>
<stop offset="0.08" stop-opacity="0.69"/>
<stop offset="0.21" stop-opacity="0.32"/>
<stop offset="1" stop-opacity="0"/>
</linearGradient>
<linearGradient id="paint2_linear" x1="-69434.5" y1="9645.91" x2="-69650.1" y2="3632.02" gradientUnits="userSpaceOnUse">
<stop offset="0.01"/>
<stop offset="0.08" stop-opacity="0.69"/>
<stop offset="0.21" stop-opacity="0.32"/>
<stop offset="1" stop-opacity="0"/>
</linearGradient>
<linearGradient id="paint3_linear" x1="-9207.47" y1="2227.38" x2="-9044.99" y2="2204.12" gradientUnits="userSpaceOnUse">
<stop offset="0.01"/>
<stop offset="0.08" stop-opacity="0.69"/>
<stop offset="0.21" stop-opacity="0.32"/>
<stop offset="1" stop-opacity="0"/>
</linearGradient>
<linearGradient id="paint4_linear" x1="-13459.8" y1="2405.66" x2="-13713.3" y2="2268.52" gradientUnits="userSpaceOnUse">
<stop offset="0.01"/>
<stop offset="0.08" stop-opacity="0.69"/>
<stop offset="0.21" stop-opacity="0.32"/>
<stop offset="1" stop-opacity="0"/>
</linearGradient>
<linearGradient id="paint5_linear" x1="-13793.1" y1="2242.86" x2="-13992.5" y2="2159.64" gradientUnits="userSpaceOnUse">
<stop offset="0.01"/>
<stop offset="0.08" stop-opacity="0.69"/>
<stop offset="0.21" stop-opacity="0.32"/>
<stop offset="1" stop-opacity="0"/>
</linearGradient>
<linearGradient id="paint6_linear" x1="-2785.06" y1="2278.2" x2="-2536.45" y2="2157.74" gradientUnits="userSpaceOnUse">
<stop offset="0.01"/>
<stop offset="0.08" stop-opacity="0.69"/>
<stop offset="0.21" stop-opacity="0.32"/>
<stop offset="1" stop-opacity="0"/>
</linearGradient>
<linearGradient id="paint7_linear" x1="-3502.67" y1="2242.86" x2="-3303.25" y2="2159.65" gradientUnits="userSpaceOnUse">
<stop offset="0.01"/>
<stop offset="0.08" stop-opacity="0.69"/>
<stop offset="0.21" stop-opacity="0.32"/>
<stop offset="1" stop-opacity="0"/>
</linearGradient>
<linearGradient id="paint8_linear" x1="-53728.8" y1="3802.33" x2="-54131.4" y2="7196.61" gradientUnits="userSpaceOnUse">
<stop offset="0.01"/>
<stop offset="0.08" stop-opacity="0.69"/>
<stop offset="0.21" stop-opacity="0.32"/>
<stop offset="1" stop-opacity="0"/>
</linearGradient>
<linearGradient id="paint9_linear" x1="17748.8" y1="1637" x2="17769.5" y2="3559.44" gradientUnits="userSpaceOnUse">
<stop offset="0.01"/>
<stop offset="0.08" stop-opacity="0.69"/>
<stop offset="0.21" stop-opacity="0.32"/>
<stop offset="1" stop-opacity="0"/>
</linearGradient>
<linearGradient id="paint10_linear" x1="23715.2" y1="1830.92" x2="23735.9" y2="3750.57" gradientUnits="userSpaceOnUse">
<stop offset="0.01"/>
<stop offset="0.08" stop-opacity="0.69"/>
<stop offset="0.21" stop-opacity="0.32"/>
<stop offset="1" stop-opacity="0"/>
</linearGradient>
<linearGradient id="paint11_linear" x1="5422.56" y1="512.177" x2="5422.69" y2="643.342" gradientUnits="userSpaceOnUse">
<stop offset="0.01"/>
<stop offset="0.08" stop-opacity="0.69"/>
<stop offset="0.21" stop-opacity="0.32"/>
<stop offset="1" stop-opacity="0"/>
</linearGradient>
<linearGradient id="paint12_linear" x1="14405.7" y1="1830.92" x2="14426.4" y2="3750.57" gradientUnits="userSpaceOnUse">
<stop offset="0.01"/>
<stop offset="0.08" stop-opacity="0.69"/>
<stop offset="0.21" stop-opacity="0.32"/>
<stop offset="1" stop-opacity="0"/>
</linearGradient>
<linearGradient id="paint13_linear" x1="1033.87" y1="3390.04" x2="1338.65" y2="3371.22" gradientUnits="userSpaceOnUse">
<stop offset="0.01"/>
<stop offset="0.08" stop-opacity="0.69"/>
<stop offset="0.21" stop-opacity="0.32"/>
<stop offset="1" stop-opacity="0"/>
</linearGradient>
<linearGradient id="paint14_linear" x1="3025.33" y1="545.219" x2="3025.4" y2="600.896" gradientUnits="userSpaceOnUse">
<stop offset="0.01"/>
<stop offset="0.08" stop-opacity="0.69"/>
<stop offset="0.21" stop-opacity="0.32"/>
<stop offset="1" stop-opacity="0"/>
</linearGradient>
<linearGradient id="paint15_linear" x1="655.876" y1="2544.81" x2="435.806" y2="2523.28" gradientUnits="userSpaceOnUse">
<stop offset="0.01"/>
<stop offset="0.08" stop-opacity="0.69"/>
<stop offset="0.21" stop-opacity="0.32"/>
<stop offset="1" stop-opacity="0"/>
</linearGradient>
</defs>
</svg>
