<svg width="181" height="150" viewBox="0 0 181 150" fill="none" xmlns="http://www.w3.org/2000/svg">
<g clip-path="url(#clip0)">
<path opacity="0.18" d="M34.7851 15.2448C20.7913 31.6082 21.5179 56.7455 13.4437 76.9519C9.12974 87.7845 1.50275 97.5802 0.17146 109.165C-1.12935 120.465 4.28729 132.447 13.9417 139.63C34.9579 155.266 61.289 141.267 84.1497 141.567C101.314 141.795 117.849 151.225 134.896 149.868C140.131 149.395 145.25 148.054 150.044 145.898C161.323 140.924 170.593 132.287 176.354 121.386C179.835 114.777 181.436 106.08 180.928 98.6324C180.155 87.2813 179.19 75.3608 172.655 65.6261C163.966 52.6889 149.891 50.5133 137.305 43.1271C123.712 35.1513 114.439 22.5852 103.047 12.2863C89.861 0.391243 68.9414 -3.22811 52.5746 3.01934C44.7952 6.00328 39.094 10.2072 34.7851 15.2448Z" fill="#0F3DB7"/>
<path d="M157.047 135.792C155.782 137.764 153.205 138.334 150.888 138.689C134.328 141.094 117.479 139.198 100.853 137.256C99.5674 137.103 98.1701 136.9 97.2961 135.949L99.2016 134.424C85.4493 136.225 71.5557 136.696 57.713 135.833C55.7516 135.711 53.6175 135.482 52.2354 134.089C51.2801 133.133 50.8228 131.73 49.7608 130.886C48.3177 129.743 46.2547 129.982 44.4306 130.241C38.4118 131.097 32.3439 131.561 26.265 131.629C21.8595 131.679 16.951 131.303 13.948 128.07C16.8037 125.874 20.2081 124.537 23.5618 123.221C27.8707 121.533 32.1999 119.84 36.7273 118.864C42.205 117.68 47.8452 117.578 53.4447 117.477L114.247 116.394C120.512 116.282 126.834 116.175 132.987 117.36C139.999 118.707 155.03 124.791 149.105 133.875C149.745 133.926 157.352 135.309 157.047 135.792Z" fill="url(#paint0_linear)"/>
<path d="M30.1066 127.689C41.677 127.689 51.0567 118.305 51.0567 106.73C51.0567 95.155 41.677 85.7715 30.1066 85.7715C18.5362 85.7715 9.15649 95.155 9.15649 106.73C9.15649 118.305 18.5362 127.689 30.1066 127.689Z" fill="#F8C244"/>
<path d="M47.3216 111.457C49.9363 101.947 44.3502 92.118 34.8447 89.5022C25.3391 86.8865 15.5138 92.4749 12.8991 101.984C10.2844 111.494 15.8705 121.323 25.376 123.939C34.8816 126.555 44.7069 120.966 47.3216 111.457Z" fill="#E8A825"/>
<path d="M27.2763 117.746L27.5811 114.894C26.0593 114.726 24.6145 114.136 23.4094 113.191L24.2834 111.376C25.4008 112.285 26.755 112.855 28.1858 113.018C30.2183 113.237 31.6716 112.236 31.8443 110.629C32.0171 109.023 31.0212 108.001 29.0293 106.923C26.2753 105.48 24.6391 103.99 24.9033 101.545C25.1574 99.2069 27.007 97.6107 29.6492 97.4785L29.9541 94.6318L31.7021 94.8199L31.4073 97.5497C32.6912 97.704 33.915 98.1815 34.9642 98.9375L34.0801 100.742C33.0779 99.9838 31.8856 99.5176 30.635 99.395C28.4653 99.1611 27.51 100.371 27.3881 101.494C27.2305 102.958 28.1909 103.802 30.5283 105.083C33.3027 106.583 34.5933 108.204 34.3392 110.711C34.1004 112.937 32.3067 114.859 29.3748 115.026L29.0598 117.954L27.2763 117.746Z" fill="#F8C244"/>
<path d="M54.7406 128.243C66.311 128.243 75.6907 118.86 75.6907 107.284C75.6907 95.7092 66.311 86.3257 54.7406 86.3257C43.1702 86.3257 33.7905 95.7092 33.7905 107.284C33.7905 118.86 43.1702 128.243 54.7406 128.243Z" fill="#F8C244"/>
<path d="M63.3126 122.955C71.9583 118.216 75.1267 107.362 70.3894 98.7128C65.6521 90.0635 54.803 86.8938 46.1572 91.6331C37.5115 96.3724 34.343 107.226 39.0804 115.875C43.8177 124.525 54.6668 127.694 63.3126 122.955Z" fill="#E8A825"/>
<path d="M60.3656 117.166L58.6024 114.909C57.3921 115.849 55.9438 116.431 54.4205 116.592L53.7853 114.676C55.2202 114.556 56.5906 114.027 57.7335 113.151C59.3341 111.905 59.6898 110.162 58.6939 108.886C57.6979 107.61 56.2752 107.574 54.1207 108.184C51.1431 109.069 48.9327 109.14 47.4185 107.198C45.9703 105.343 46.1939 102.908 47.9876 100.966L46.2295 98.7087L47.6167 97.626L49.3037 99.7915C50.3315 99.0082 51.5414 98.4992 52.8199 98.3122L53.4398 100.239C52.1925 100.392 51.0121 100.888 50.0303 101.672C48.3077 103.014 48.4652 104.544 49.1563 105.439C50.0658 106.598 51.3463 106.537 53.9124 105.831C56.9611 104.971 58.9936 105.226 60.5638 107.218C61.9408 108.982 62.0018 111.6 59.9997 113.771L61.8087 116.099L60.3656 117.166Z" fill="#F8C244"/>
<path d="M118.968 19.9472V123.724C118.968 126.128 118.013 128.433 116.314 130.133C114.615 131.833 112.311 132.788 109.908 132.788H65.0097C63.8182 132.79 62.6379 132.558 61.5364 132.104C60.4348 131.649 59.4337 130.982 58.5902 130.14C57.7468 129.298 57.0776 128.298 56.621 127.197C56.1645 126.096 55.9294 124.916 55.9294 123.724V19.9472C55.9288 18.7565 56.1626 17.5773 56.6176 16.4771C57.0726 15.3769 57.7399 14.3771 58.5812 13.5349C59.4226 12.6927 60.4216 12.0247 61.5211 11.5689C62.6206 11.113 63.7992 10.8784 64.9894 10.8784H109.887C111.079 10.8758 112.26 11.1084 113.362 11.563C114.464 12.0176 115.465 12.6853 116.309 13.5277C117.152 14.3702 117.821 15.3708 118.278 16.4724C118.734 17.574 118.968 18.7548 118.968 19.9472Z" fill="#0F3DB7"/>
<path d="M108.963 12.4136H65.9498C61.1117 12.4136 57.1897 16.3372 57.1897 21.1773V122.291C57.1897 127.131 61.1117 131.054 65.9498 131.054H108.963C113.801 131.054 117.723 127.131 117.723 122.291V21.1773C117.723 16.3372 113.801 12.4136 108.963 12.4136Z" fill="#473F47"/>
<path d="M116.005 22.2751V120.186C115.983 122.405 115.08 124.525 113.495 126.079C111.911 127.633 109.774 128.493 107.555 128.472H67.2557C65.7835 128.476 64.3354 128.098 63.0535 127.374C61.7681 126.664 60.6956 125.623 59.947 124.359C59.1984 123.096 58.8008 121.655 58.7954 120.186V22.2751C58.8195 20.0541 59.7243 17.9337 61.3108 16.3799C62.8973 14.8261 65.0357 13.9662 67.2557 13.9892H74.0646V15.2194C74.0819 16.0098 74.3323 16.7775 74.7843 17.4259C75.2363 18.0744 75.8699 18.5748 76.6053 18.8642C77.0988 19.0589 77.6246 19.1589 78.1551 19.159H96.8745C97.9421 19.1591 98.9669 18.7391 99.7275 17.9895C100.488 17.24 100.923 16.2213 100.939 15.1533V13.9892H107.545C109.713 13.9844 111.8 14.8061 113.384 16.2869C114.208 17.0512 114.867 17.9774 115.318 19.0077C115.769 20.038 116.003 21.1503 116.005 22.2751Z" fill="white"/>
<path opacity="0.18" d="M87.4689 53.2889C95.0038 53.2889 101.112 47.1781 101.112 39.6401C101.112 32.102 95.0038 25.9912 87.4689 25.9912C79.934 25.9912 73.8257 32.102 73.8257 39.6401C73.8257 47.1781 79.934 53.2889 87.4689 53.2889Z" fill="#0F3DB7"/>
<path opacity="0.18" d="M108.897 63.354H65.5435V98.6682H108.897V63.354Z" fill="#0F3DB7"/>
<g opacity="0.41">
<path opacity="0.41" d="M76.8491 90.7129H69.7048V96.94H76.8491V90.7129Z" fill="#0F3DB7"/>
</g>
<path d="M83.9375 85.8682H76.7932V96.9397H83.9375V85.8682Z" fill="#0F3DB7"/>
<g opacity="0.5">
<path opacity="0.5" d="M91.0259 80.7593H83.8816V96.9396H91.0259V80.7593Z" fill="#0F3DB7"/>
</g>
<path d="M98.1142 75.7827H90.97V96.9397H98.1142V75.7827Z" fill="#0F3DB7"/>
<path d="M105.203 70.7656H98.0583V96.9399H105.203V70.7656Z" fill="#0F3DB7"/>
<path d="M105.203 70.7656H98.0583V96.9399H105.203V70.7656Z" fill="url(#paint1_linear)"/>
<path d="M106.615 96.9399H66.9763V98.6734H106.615V96.9399Z" fill="url(#paint2_linear)"/>
<path opacity="0.18" d="M86.4376 101.921H65.5435V128.365H86.4376V101.921Z" fill="#0F3DB7"/>
<path opacity="0.18" d="M108.897 101.921H88.0027V128.365H108.897V101.921Z" fill="#0F3DB7"/>
<path d="M86.6661 49.7307V47.2449C85.3387 47.2504 84.0362 46.8841 82.906 46.1876L83.4802 44.5355C84.5324 45.2048 85.7546 45.5577 87.0015 45.5522C88.7596 45.5522 89.9232 44.5355 89.9182 43.1325C89.9131 41.7295 88.9527 40.9517 87.1285 40.2197C84.6184 39.2488 83.0635 38.1254 83.0635 35.9903C83.0635 33.957 84.4914 32.3964 86.7525 32.0152V29.5396H88.2769V31.9186C89.3966 31.9243 90.4964 32.2147 91.473 32.7624L90.8785 34.4145C89.9424 33.8603 88.8716 33.5754 87.784 33.591C85.8938 33.591 85.1875 34.7398 85.1926 35.7158C85.1926 36.9918 86.1123 37.6272 88.2413 38.5015C90.782 39.5182 92.0574 40.789 92.0726 42.9749C92.0726 44.9117 90.7362 46.7417 88.2159 47.1738V49.7154L86.6661 49.7307Z" fill="#0F3DB7"/>
<path d="M112.947 86.9816C112.779 87.2256 112.576 87.5865 112.311 87.6984C111.925 87.861 111.387 87.5662 111.067 87.373C110.528 87.0479 110.018 86.6772 109.542 86.2649C109.1 85.8887 108.689 85.4769 108.211 85.1465C107.746 84.7938 107.183 84.5932 106.6 84.5721C105.37 84.5721 104.72 85.7921 104.603 86.8749C104.486 87.9576 105.081 89.1573 106.128 89.3657C106.692 89.4775 107.276 89.2844 107.85 89.3352C109.786 89.4979 110.99 92.248 112.901 91.8769C113.568 91.6777 114.16 91.285 114.603 90.7484L116.57 88.7811C117.723 87.6272 118.943 86.3462 119.141 84.7144C119.288 83.4792 118.414 80.7342 116.9 81.5373C116.178 81.9186 115.442 83.5249 114.954 84.1908C114.308 85.0906 113.668 85.9954 113.008 86.8799C112.982 86.9257 112.962 86.9511 112.947 86.9816Z" fill="#F9C6D6"/>
<path d="M100.787 84.877L109.898 87.2966L113.084 98.9528L104.242 97.5091L100.787 84.877Z" fill="#0F3DB7"/>
<path d="M110.065 98.4243L109.781 97.189C109.786 97.0683 109.768 96.9476 109.726 96.8342C109.684 96.7207 109.62 96.6167 109.538 96.5282C109.456 96.4397 109.357 96.3685 109.246 96.3187C109.136 96.269 109.017 96.2417 108.897 96.2384C108.253 96.2075 107.639 95.9604 107.154 95.5369C106.836 95.1337 106.671 94.6317 106.686 94.1187C106.686 93.3511 106.915 92.492 107.591 92.126L112.083 95.2726L113.099 98.958L110.065 98.4243Z" fill="url(#paint3_linear)"/>
<path d="M113.628 84.1754C113.576 84.3295 113.551 84.4909 113.551 84.6532C113.585 84.8811 113.68 85.0955 113.826 85.2734C114.437 86.1694 114.927 87.1419 115.284 88.1659C115.377 88.4911 115.514 88.8023 115.691 89.091C115.779 89.2366 115.902 89.3588 116.048 89.4472C116.194 89.5357 116.359 89.5878 116.529 89.5994C116.736 89.5819 116.933 89.5015 117.093 89.3688C117.252 89.2361 117.368 89.0575 117.423 88.8572C117.534 88.4587 117.563 88.0421 117.51 87.6321C117.423 86.4375 117.189 85.0904 117.418 83.8958C117.667 82.564 118.114 81.2474 118.404 79.9206C117.987 79.7376 117.54 80.068 117.21 80.3781C116.143 81.3694 115.076 82.3606 114.09 83.4281C113.883 83.6405 113.725 83.8956 113.628 84.1754Z" fill="#0F3DB7"/>
<path d="M124.4 135.441C112.23 135.264 102.423 131.105 102.494 126.134C102.494 125.58 102.083 122.459 102.322 121.96C104.242 117.792 113.836 117.304 124.679 117.451C135.319 117.609 144.257 117.451 146.249 121.569C146.544 122.154 146.59 126.144 146.579 126.759C146.498 131.731 136.569 135.614 124.4 135.441Z" fill="#E8A825"/>
<path d="M146.405 122.617C146.476 117.651 136.67 113.484 124.503 113.31C112.337 113.136 102.416 117.02 102.345 121.986C102.274 126.952 112.079 131.119 124.246 131.293C136.413 131.467 146.334 127.583 146.405 122.617Z" fill="#F8C244"/>
<path d="M143.143 122.57C143.204 118.34 134.85 114.79 124.485 114.642C114.119 114.493 105.667 117.803 105.607 122.033C105.546 126.263 113.9 129.813 124.265 129.962C134.631 130.11 143.083 126.801 143.143 122.57Z" fill="#E8A825"/>
<path d="M112.535 121.401L115.538 121.447C115.597 121.055 115.749 120.684 115.983 120.364C116.217 120.045 116.524 119.787 116.879 119.612L118.871 119.922C118.527 120.081 118.228 120.323 118 120.627C117.772 120.93 117.623 121.285 117.565 121.66C117.565 122.525 118.77 123.13 120.462 123.145C121.115 123.196 121.772 123.105 122.386 122.877C123 122.648 123.557 122.289 124.019 121.823C124.681 121.132 125.49 120.6 126.387 120.267C127.284 119.933 128.244 119.806 129.196 119.896C131.666 119.896 133.541 120.674 133.973 121.798L136.976 121.843V122.596L134.085 122.55C134.038 122.876 133.917 123.186 133.732 123.459C133.547 123.731 133.303 123.957 133.017 124.121L131.061 123.79C131.338 123.633 131.574 123.414 131.751 123.149C131.927 122.884 132.039 122.581 132.077 122.265C132.077 121.345 130.731 120.959 129.537 120.944C128.893 120.909 128.25 121.022 127.657 121.275C127.064 121.528 126.537 121.914 126.117 122.403C124.852 123.633 123.292 124.243 120.609 124.243C118.246 124.243 116.036 123.506 115.568 122.245L112.474 122.199L112.535 121.401Z" fill="#F8C244"/>
<path d="M134.649 131.207C122.479 131.034 112.672 126.87 112.743 121.899C112.743 121.35 112.332 118.224 112.571 117.731C114.491 113.557 124.09 113.069 134.928 113.217C145.573 113.374 154.506 113.217 156.503 117.334C156.793 117.924 156.839 121.909 156.834 122.524C156.747 127.496 146.818 131.379 134.649 131.207Z" fill="#E8A825"/>
<path d="M156.654 118.384C156.725 113.418 146.919 109.251 134.752 109.077C122.585 108.903 112.665 112.787 112.593 117.753C112.522 122.719 122.328 126.886 134.495 127.06C146.662 127.234 156.583 123.35 156.654 118.384Z" fill="#F8C244"/>
<path d="M153.392 118.338C153.452 114.107 145.099 110.557 134.733 110.409C124.368 110.261 115.916 113.57 115.855 117.8C115.795 122.031 124.148 125.58 134.514 125.729C144.879 125.877 153.331 122.568 153.392 118.338Z" fill="#E8A825"/>
<path d="M122.784 117.166L125.787 117.212C125.846 116.821 125.998 116.449 126.232 116.129C126.466 115.81 126.773 115.552 127.128 115.377L129.12 115.687C128.777 115.847 128.478 116.089 128.251 116.392C128.024 116.696 127.876 117.051 127.819 117.426C127.819 118.29 129.019 118.895 130.711 118.915C131.364 118.965 132.02 118.873 132.634 118.645C133.248 118.417 133.806 118.058 134.268 117.593C134.929 116.901 135.738 116.368 136.635 116.033C137.532 115.698 138.493 115.571 139.445 115.662C141.92 115.662 143.79 116.444 144.222 117.563L147.225 117.609V118.361L144.334 118.315C144.288 118.641 144.168 118.952 143.983 119.225C143.798 119.497 143.553 119.723 143.266 119.886L141.31 119.555C141.587 119.399 141.823 119.179 142 118.914C142.176 118.649 142.288 118.347 142.326 118.03C142.326 117.115 140.975 116.729 139.786 116.709C139.143 116.673 138.5 116.786 137.908 117.039C137.316 117.292 136.79 117.679 136.371 118.168C135.101 119.403 133.541 120.008 130.858 120.008C128.5 120.008 126.285 119.271 125.817 118.015L122.723 117.969L122.784 117.166Z" fill="#F8C244"/>
<path d="M126.635 120.1C114.466 119.937 104.659 115.764 104.71 110.787C104.71 110.238 104.298 107.112 104.537 106.619C106.458 102.445 116.051 101.957 126.895 102.105C137.535 102.262 146.473 102.105 148.464 106.222C148.759 106.812 148.805 110.797 148.795 111.412C148.734 116.379 138.805 120.278 126.635 120.1Z" fill="#E8A825"/>
<path d="M148.639 107.275C148.71 102.309 138.904 98.1423 126.737 97.9681C114.57 97.7939 104.65 101.678 104.579 106.644C104.508 111.61 114.313 115.777 126.48 115.951C138.647 116.125 148.568 112.241 148.639 107.275Z" fill="#F8C244"/>
<path d="M145.377 107.228C145.438 102.998 137.084 99.448 126.718 99.2996C116.353 99.1512 107.901 102.46 107.841 106.691C107.78 110.921 116.134 114.471 126.499 114.619C136.865 114.768 145.317 111.459 145.377 107.228Z" fill="#E8A825"/>
<path d="M114.771 106.064L117.774 106.11C117.832 105.718 117.984 105.345 118.218 105.025C118.451 104.704 118.759 104.445 119.115 104.27L121.107 104.585C120.763 104.744 120.464 104.985 120.237 105.288C120.009 105.59 119.859 105.944 119.801 106.319C119.801 107.183 121.005 107.788 122.697 107.808C123.351 107.858 124.007 107.766 124.621 107.538C125.235 107.31 125.792 106.951 126.254 106.486C126.916 105.795 127.726 105.262 128.622 104.928C129.519 104.593 130.479 104.466 131.432 104.555C133.902 104.555 135.777 105.338 136.209 106.456L139.212 106.502V107.259L136.32 107.213C136.273 107.539 136.153 107.85 135.968 108.122C135.783 108.394 135.539 108.621 135.253 108.784L133.297 108.454C133.574 108.297 133.81 108.077 133.987 107.812C134.163 107.547 134.275 107.245 134.313 106.929C134.313 106.009 132.967 105.622 131.773 105.602C131.128 105.567 130.485 105.68 129.892 105.934C129.299 106.188 128.772 106.575 128.353 107.066C127.088 108.296 125.528 108.901 122.845 108.901C120.482 108.901 118.272 108.169 117.804 106.908L114.71 106.863L114.771 106.064Z" fill="#F8C244"/>
<path d="M109.867 122.657C110.06 123.277 110.233 124.014 109.867 124.543C109.69 124.772 109.453 124.949 109.181 125.051C108.869 125.203 108.521 125.264 108.176 125.227C107.831 125.19 107.503 125.057 107.23 124.842C106.942 124.523 106.738 124.137 106.636 123.719C106.148 122.189 105.797 120.619 105.584 119.027C105.546 118.882 105.546 118.73 105.584 118.585C105.665 118.431 105.795 118.309 105.955 118.239C106.793 117.787 108.094 117.426 108.561 118.427C109.171 119.703 109.451 121.289 109.867 122.657Z" fill="#F9C6D6"/>
<path d="M107.352 123.379C107.181 123.357 107.007 123.376 106.844 123.435C106.73 123.499 106.63 123.586 106.549 123.689L104.71 125.753C104.364 126.149 103.993 126.698 104.237 127.166C104.323 127.298 104.438 127.409 104.572 127.491C104.707 127.572 104.858 127.623 105.015 127.639C105.893 127.718 106.775 127.541 107.555 127.13C108.114 126.886 108.658 126.622 109.197 126.327C109.599 126.145 109.949 125.863 110.213 125.509C110.624 124.873 110.751 123.343 110.015 122.865C109.644 122.626 109.319 122.799 108.968 122.962C108.471 123.231 107.917 123.374 107.352 123.379Z" fill="#0F3DB7"/>
<path d="M99.8572 129.667C99.8408 129.783 99.853 129.902 99.8928 130.012C99.9533 130.125 100.045 130.219 100.157 130.282C100.499 130.522 100.903 130.66 101.321 130.678C101.53 130.684 101.737 130.641 101.927 130.553C102.116 130.465 102.283 130.334 102.413 130.17C102.603 129.861 102.719 129.514 102.754 129.153C102.906 128.368 102.981 127.569 102.977 126.769C102.986 126.656 102.951 126.543 102.881 126.454C102.819 126.409 102.748 126.381 102.672 126.373C102.017 126.235 100.726 125.864 100.396 126.698C100.059 127.652 99.8773 128.655 99.8572 129.667Z" fill="#F9C6D6"/>
<path d="M97.0879 129.595C96.5301 129.624 95.9793 129.732 95.4517 129.915C95.187 130.009 94.9441 130.155 94.7379 130.346C94.5317 130.536 94.3666 130.767 94.2525 131.024C94.147 131.279 94.1344 131.563 94.217 131.827C94.3991 132.211 94.7154 132.514 95.1062 132.681C96.9634 133.686 99.0664 134.146 101.173 134.008C101.715 134.026 102.243 133.831 102.642 133.464C102.936 133.024 103.074 132.497 103.033 131.969L103.104 129.468C102.637 129.397 102.2 129.702 101.752 129.86C100.98 130.124 100.675 129.483 100.035 129.351C99.222 129.128 97.9568 129.504 97.0879 129.595Z" fill="#0F3DB7"/>
<path d="M107.352 123.379C107.181 123.357 107.007 123.376 106.844 123.435C106.73 123.499 106.63 123.586 106.549 123.689L104.71 125.753C104.364 126.149 103.993 126.698 104.237 127.166C104.323 127.298 104.438 127.409 104.572 127.491C104.707 127.572 104.858 127.623 105.015 127.639C105.893 127.718 106.775 127.541 107.555 127.13C108.114 126.886 108.658 126.622 109.197 126.327C109.599 126.145 109.949 125.863 110.213 125.509C110.624 124.873 110.751 123.343 110.015 122.865C109.644 122.626 109.319 122.799 108.968 122.962C108.471 123.231 107.917 123.374 107.352 123.379Z" fill="url(#paint4_linear)"/>
<path d="M97.0879 129.595C96.5301 129.624 95.9793 129.732 95.4517 129.915C95.187 130.009 94.9441 130.155 94.7379 130.346C94.5317 130.536 94.3666 130.767 94.2525 131.024C94.147 131.279 94.1344 131.563 94.217 131.827C94.3991 132.211 94.7154 132.514 95.1062 132.681C96.9634 133.686 99.0664 134.146 101.173 134.008C101.715 134.026 102.243 133.831 102.642 133.464C102.936 133.024 103.074 132.497 103.033 131.969L103.104 129.468C102.637 129.397 102.2 129.702 101.752 129.86C100.98 130.124 100.675 129.483 100.035 129.351C99.222 129.128 97.9568 129.504 97.0879 129.595Z" fill="url(#paint5_linear)"/>
<path d="M103.775 102.013C103.242 102.119 102.749 102.373 102.352 102.745C101.95 103.327 101.769 104.034 101.844 104.738C101.855 109.779 102.792 114.776 104.608 119.479C104.651 119.652 104.728 119.815 104.835 119.958C104.941 120.101 105.075 120.222 105.228 120.313C105.505 120.395 105.802 120.383 106.072 120.277C107.162 119.972 108.235 119.611 109.288 119.195L107.86 109.607C107.793 109.34 107.809 109.058 107.906 108.799C108.012 108.619 108.16 108.467 108.338 108.357C109.959 107.152 111.675 106.081 113.47 105.154C115.706 103.995 117.133 102.648 117.535 100.071C117.672 99.3473 117.529 98.5984 117.133 97.9767C116.932 97.6718 116.643 97.434 116.306 97.2937C115.968 97.1534 115.597 97.1168 115.238 97.1888C114.972 97.2719 114.719 97.3916 114.486 97.5446C112.758 98.5867 105.568 101.479 103.775 102.013Z" fill="#282328"/>
<path d="M104.796 108.703C104.121 109.57 103.588 110.54 103.216 111.575C101.157 116.63 99.8207 121.95 99.2473 127.379C100.935 127.589 102.641 127.589 104.329 127.379C104.461 123.54 105.044 119.73 106.066 116.028C106.247 115.234 106.556 114.475 106.981 113.781C107.733 112.683 108.963 112.042 110.142 111.448C112.851 110.101 115.689 109.028 118.612 108.245C119.847 107.899 121.092 107.584 122.306 107.167C123.347 106.853 124.322 106.349 125.182 105.683C126.707 104.407 127.875 101.616 125.838 100.264C124.928 99.6542 123.78 99.5372 122.687 99.4305L119.298 99.1102C118.96 99.0551 118.614 99.069 118.282 99.1509C117.998 99.259 117.735 99.4155 117.504 99.6135C114.964 101.56 112.423 103.294 109.75 105.058C108.109 106.146 106.107 107.157 104.796 108.703Z" fill="#473F47"/>
<path d="M119.217 101.825C118.331 101.477 117.471 101.069 116.64 100.605C113.495 98.8408 116.071 97.9766 117.149 95.8518C117.896 94.3268 117.591 92.5425 117.205 90.9057C116.519 88.0335 115.604 85.0649 116.264 82.1877C116.349 81.7212 116.531 81.2778 116.798 80.8863C116.992 80.6477 117.214 80.4328 117.459 80.2458C118.121 79.6663 118.884 79.2132 119.71 78.9089C121.3 78.4006 123.063 78.7666 124.552 79.5291C130.65 82.6248 130.599 92.5171 130.025 98.3375C129.892 99.6795 129.689 101.088 128.871 102.16C127.672 103.736 126.554 103.177 125.03 102.902C123.002 102.557 121.173 102.587 119.217 101.825Z" fill="#0F3DB7"/>
<path d="M129.715 91.3836C129.715 92.4003 129.517 93.3611 129.471 94.3574C129.415 95.4605 129.532 96.5737 129.44 97.6718C129.289 99.4781 128.592 101.196 127.443 102.598C127.342 102.74 127.205 102.854 127.047 102.928C126.824 102.986 126.587 102.966 126.376 102.872L123.444 101.972C123.06 101.869 122.687 101.726 122.332 101.545C121.715 101.195 121.249 100.631 121.021 99.9593C120.953 99.7882 120.931 99.6027 120.955 99.4204C121.036 99.0239 121.463 98.7952 121.778 98.5766C123.043 97.7531 123.836 96.3857 124.583 95.0742C125.297 93.8915 125.924 92.658 126.458 91.3836C126.653 90.7741 126.924 90.1916 127.266 89.6502C127.611 89.1673 128.48 88.4658 129.085 88.8674C129.689 89.2689 129.72 90.7584 129.715 91.3836Z" fill="url(#paint6_linear)"/>
<path d="M122.753 83.0267C122.498 83.3476 122.179 83.6118 121.816 83.8026C121.453 83.9934 121.054 84.1066 120.645 84.1349C120.515 84.1513 120.383 84.1207 120.274 84.0485C120.158 83.9303 120.092 83.7718 120.091 83.6062C120.055 83.2758 120.004 82.8488 119.969 82.4269C119.933 82.005 119.867 81.4865 119.822 81.1256C119.723 80.1654 119.359 79.2518 118.77 78.4873C118.649 78.3222 118.511 78.1705 118.358 78.0349C117.342 77.1199 121.473 77.4808 122.017 76.2354C122.647 77.0436 122.591 78.1874 122.865 79.1888C123.046 79.6748 123.201 80.1703 123.328 80.6731C123.402 81.0838 123.389 81.5055 123.29 81.9109C123.191 82.3163 123.008 82.6964 122.753 83.0267Z" fill="#F9C6D6"/>
<path d="M120.025 82.62L119.969 82.4269C119.913 81.9541 119.867 81.4864 119.821 81.1255C119.723 80.1654 119.359 79.2517 118.77 78.4873V78.3856C118.77 78.3856 122.042 76.2353 122.392 78.7516C122.743 81.2679 120.025 82.62 120.025 82.62Z" fill="url(#paint7_linear)"/>
<path d="M116.59 76.9926C116.522 77.5177 116.62 78.0508 116.869 78.5177C116.999 78.7145 117.162 78.8867 117.352 79.026C118.653 80.0071 120.609 79.8088 121.925 78.7922C122.553 78.2524 123.059 77.5854 123.409 76.8352C123.76 76.085 123.947 75.2688 123.958 74.4408C124.051 73.5781 123.807 72.7127 123.277 72.0262C122.957 71.7152 122.564 71.4895 122.135 71.3696C121.705 71.2497 121.252 71.2395 120.817 71.3399C119.628 71.6165 118.544 72.2329 117.698 73.114C116.859 74.0341 116.651 75.8082 116.59 76.9926Z" fill="#F9C6D6"/>
<path d="M128.373 85.5834C128.399 85.7664 128.419 85.9494 128.439 86.1324C128.734 88.852 128.47 91.5259 128.368 94.2353C128.302 96.1009 128.165 98.5511 126.575 99.827C122.322 103.238 112.855 96.106 112.438 95.7959C111.803 95.3232 110.914 95.2876 110.152 95.2012C109.262 95.1445 108.428 94.7456 107.825 94.0879C107.533 93.7548 107.343 93.345 107.277 92.9071C107.211 92.4691 107.273 92.0215 107.454 91.6174C108.079 90.3872 109.837 90.1991 111.102 90.7481C112.367 91.2971 113.318 92.3646 114.415 93.1983C115.281 93.8187 116.193 94.371 117.144 94.8504C118.251 95.4401 122.154 96.289 123.409 96.3042C124.745 96.3042 124.222 88.4555 124.354 85.9494C124.359 85.3014 124.517 84.6638 124.816 84.0889C124.966 83.8082 125.184 83.57 125.451 83.3967C125.717 83.2233 126.024 83.1204 126.341 83.0977C126.677 83.1232 127 83.2366 127.278 83.4267C127.557 83.6167 127.78 83.8767 127.926 84.1804C128.157 84.6181 128.308 85.0931 128.373 85.5834Z" fill="#F9C6D6"/>
<path d="M121.513 75.6254C121.513 75.7067 121.488 75.788 121.478 75.8694L121.341 77.3385L121.051 80.3326L126.087 81.0391C126.305 79.4379 126.767 77.8722 126.966 76.2659C127.164 74.6595 127.083 72.9464 126.28 71.5434C125.629 70.3997 124.074 69.7134 122.916 69.1847C122.625 69.0535 122.322 68.9497 122.011 68.8746C120.816 68.5564 119.552 68.6186 118.394 69.0526C118.116 69.1463 117.858 69.2892 117.631 69.4745C117.485 69.6592 117.352 69.8546 117.235 70.0591C116.786 70.6427 116.404 71.2753 116.097 71.945C115.935 72.2617 115.836 72.6071 115.807 72.9617C115.794 72.9996 115.794 73.0407 115.807 73.0786C115.832 73.112 115.865 73.1383 115.904 73.1548L117.255 73.8818C117.285 73.8995 117.318 73.91 117.352 73.9123C117.403 73.9063 117.451 73.8808 117.484 73.8411L118.429 73.0176L118.17 73.592C118.157 73.6197 118.15 73.6502 118.15 73.681C118.15 73.7118 118.157 73.7422 118.17 73.7699C118.193 73.7989 118.222 73.8216 118.256 73.836L119.608 74.5019C119.635 74.5088 119.663 74.5088 119.689 74.5019C119.735 74.5019 119.766 74.4664 119.796 74.4359L120.451 73.7445L120.258 74.5985C120.245 74.6399 120.245 74.6842 120.258 74.7256C120.28 74.7617 120.315 74.7887 120.355 74.8019L121.076 75.1729C121.102 75.1729 121.127 75.1984 121.148 75.1729C121.17 75.1673 121.189 75.1548 121.203 75.1374L121.686 74.5934C121.654 74.9412 121.596 75.2861 121.513 75.6254Z" fill="#473F47"/>
<path d="M129.156 85.4414C129.76 86.9664 129.212 88.4101 129.181 89.9096C129.182 90.0603 129.165 90.2105 129.13 90.357C129.067 90.5627 128.953 90.7495 128.8 90.9009C128.499 91.181 128.144 91.3968 127.757 91.5349C127.37 91.673 126.959 91.7306 126.549 91.7041C125.729 91.6416 124.923 91.4601 124.156 91.1652C123.904 91.1151 123.681 90.9716 123.531 90.7637C123.465 90.6187 123.437 90.4596 123.449 90.3011C123.409 88.0085 122.819 84.3078 125.05 82.7828C126.818 81.5678 128.592 83.9469 129.156 85.4414Z" fill="#0F3DB7"/>
<path d="M117.245 85.2988C116.515 85.6946 115.85 86.2003 115.274 86.7984C115.158 86.9027 115.072 87.0361 115.025 87.1848C115.002 87.3006 115.002 87.4197 115.025 87.5355C115.14 88.1048 115.337 88.6544 115.609 89.1673C115.667 89.285 115.742 89.3931 115.833 89.4875C116.692 90.2704 116.89 88.847 116.951 88.3844C117.096 87.3576 117.195 86.3291 117.245 85.2988Z" fill="url(#paint8_linear)"/>
<path d="M117.012 75.9911C117.564 75.9911 118.013 75.5428 118.013 74.9897C118.013 74.4366 117.564 73.9883 117.012 73.9883C116.459 73.9883 116.01 74.4366 116.01 74.9897C116.01 75.5428 116.459 75.9911 117.012 75.9911Z" stroke="#473F47" stroke-width="0.32" stroke-miterlimit="10"/>
<path d="M118.978 76.8554C119.531 76.8554 119.979 76.407 119.979 75.854C119.979 75.3009 119.531 74.8525 118.978 74.8525C118.425 74.8525 117.977 75.3009 117.977 75.854C117.977 76.407 118.425 76.8554 118.978 76.8554Z" stroke="#473F47" stroke-width="0.32" stroke-miterlimit="10"/>
<path d="M106.341 85.2991L107.906 82.0508C107.906 82.0508 108.546 82.0813 108.668 82.4473L106.94 85.6396C106.94 85.6396 106.839 85.8786 106.341 85.2991Z" fill="#473F47"/>
</g>
<defs>
<linearGradient id="paint0_linear" x1="88.3886" y1="81.7862" x2="81.5233" y2="200.767" gradientUnits="userSpaceOnUse">
<stop offset="0.01"/>
<stop offset="0.13" stop-opacity="0.69"/>
<stop offset="0.25" stop-opacity="0.32"/>
<stop offset="1" stop-opacity="0"/>
</linearGradient>
<linearGradient id="paint1_linear" x1="83.6885" y1="71.1316" x2="147.893" y2="116.618" gradientUnits="userSpaceOnUse">
<stop offset="0.01"/>
<stop offset="0.08" stop-opacity="0.69"/>
<stop offset="0.21" stop-opacity="0.32"/>
<stop offset="1" stop-opacity="0"/>
</linearGradient>
<linearGradient id="paint2_linear" x1="6882.51" y1="393.114" x2="6882.19" y2="534.286" gradientUnits="userSpaceOnUse">
<stop offset="0.01"/>
<stop offset="0.08" stop-opacity="0.69"/>
<stop offset="0.21" stop-opacity="0.32"/>
<stop offset="1" stop-opacity="0"/>
</linearGradient>
<linearGradient id="paint3_linear" x1="1668.26" y1="1555.76" x2="1511.93" y2="1707.45" gradientUnits="userSpaceOnUse">
<stop offset="0.01"/>
<stop offset="0.13" stop-opacity="0.69"/>
<stop offset="0.25" stop-opacity="0.32"/>
<stop offset="1" stop-opacity="0"/>
</linearGradient>
<linearGradient id="paint4_linear" x1="1532.86" y1="1490.65" x2="1644.22" y2="1562.49" gradientUnits="userSpaceOnUse">
<stop offset="0.01"/>
<stop offset="0.13" stop-opacity="0.69"/>
<stop offset="0.25" stop-opacity="0.32"/>
<stop offset="1" stop-opacity="0"/>
</linearGradient>
<linearGradient id="paint5_linear" x1="1949.78" y1="1576.69" x2="1982.99" y2="1436.06" gradientUnits="userSpaceOnUse">
<stop offset="0.01"/>
<stop offset="0.13" stop-opacity="0.69"/>
<stop offset="0.25" stop-opacity="0.32"/>
<stop offset="1" stop-opacity="0"/>
</linearGradient>
<linearGradient id="paint6_linear" x1="2327.18" y1="3101.83" x2="2786.76" y2="3315.82" gradientUnits="userSpaceOnUse">
<stop offset="0.01"/>
<stop offset="0.13" stop-opacity="0.69"/>
<stop offset="0.25" stop-opacity="0.32"/>
<stop offset="1" stop-opacity="0"/>
</linearGradient>
<linearGradient id="paint7_linear" x1="1036.62" y1="1004.31" x2="1113.14" y2="1124.28" gradientUnits="userSpaceOnUse">
<stop offset="0.01"/>
<stop offset="0.13" stop-opacity="0.69"/>
<stop offset="0.25" stop-opacity="0.32"/>
<stop offset="1" stop-opacity="0"/>
</linearGradient>
<linearGradient id="paint8_linear" x1="685.947" y1="995.508" x2="637.627" y2="999.638" gradientUnits="userSpaceOnUse">
<stop offset="0.01"/>
<stop offset="0.13" stop-opacity="0.69"/>
<stop offset="0.25" stop-opacity="0.32"/>
<stop offset="1" stop-opacity="0"/>
</linearGradient>
<clipPath id="clip0">
<rect width="181" height="150" fill="white"/>
</clipPath>
</defs>
</svg>
