<svg width="201" height="145" viewBox="0 0 201 145" fill="none" xmlns="http://www.w3.org/2000/svg">
<g clip-path="url(#clip0)">
<path opacity="0.24" d="M54.4732 140.935C92.7067 147.207 131.786 146.219 169.651 138.023C174.503 136.969 179.459 135.743 183.541 132.923C187.054 130.499 189.712 127.032 191.998 123.438C200.555 109.971 204.492 92.1912 197.054 78.0814C189.151 63.0929 171.411 56.6391 158.368 45.7801C148.343 37.4492 141.073 26.4146 133.194 16.0549C129.962 11.7976 126.461 7.51631 121.702 5.06017C117.784 3.06331 113.317 2.42431 108.947 1.83324C90.9626 -0.598933 70.6849 -2.44403 56.5102 8.87417C38.5863 23.1957 38.5182 52.4936 20.1252 66.216C16.5965 68.8479 12.5426 70.7609 9.21847 73.6443C-2.77088 84.036 -2.46614 106.88 6.66822 119.021C17.2942 133.143 38.0771 138.231 54.4732 140.935Z" fill="#0F3DB7"/>
<path d="M137.837 32.9479L133.487 33.2794L133.082 27.9917L87.8631 79.5626L63.1145 59.2346L4.20628 112.774L1.26709 109.575L62.9701 53.4797L87.3538 73.5201L129.429 25.5276L123.538 27.1491L122.388 22.9636L136.779 19.0059L137.837 32.9479Z" fill="#0F3DB7"/>
<path d="M137.837 32.9479L133.487 33.2794L133.082 27.9917L87.8631 79.5626L63.1145 59.2346L4.20628 112.774L1.26709 109.575L62.9701 53.4797L87.3538 73.5201L129.429 25.5276L123.538 27.1491L122.388 22.9636L136.779 19.0059L137.837 32.9479Z" fill="url(#paint0_linear)"/>
<path d="M21.4845 96.9754C24.9449 99.2318 27.2385 102.878 30.4183 105.514L27.6115 113.102L25.7709 111.105C24.1951 109.412 22.5992 107.702 20.6865 106.393C18.7738 105.083 16.4882 104.216 14.1746 104.368C14.1746 104.368 15.3454 97.3268 15.9268 96.6319C17.631 94.5911 19.3031 95.5536 21.4845 96.9754Z" fill="#0F3DB7"/>
<path d="M16.9656 97.2671L16.3801 101.576C16.7751 101.664 17.1318 101.874 17.3986 102.177C17.6653 102.48 17.8283 102.86 17.8638 103.262C17.8638 103.262 23.678 105.175 25.8272 109.28C25.8272 109.28 27.2868 108.881 27.8322 109.536L28.983 106.74C28.983 106.74 28.2171 105.774 28.4216 104.983C28.4216 104.983 22.864 97.6026 19.3835 96.9756C18.6217 97.2996 17.783 97.4008 16.9656 97.2671Z" fill="white"/>
<path d="M61.1737 22.6724H54.1445V119.061H61.1737V22.6724Z" fill="#0F3DB7"/>
<path d="M98.461 11.1025H90.293V119.061H98.461V11.1025Z" fill="#0F3DB7"/>
<path d="M119.921 119.065H127.536L127.536 11.1067H119.921L119.921 119.065Z" fill="#0F3DB7"/>
<path d="M61.1737 22.6724H54.1445V119.061H61.1737V22.6724Z" fill="url(#paint1_linear)"/>
<path d="M98.461 11.1025H90.293V119.061H98.461V11.1025Z" fill="url(#paint2_linear)"/>
<path d="M119.921 119.065H127.536L127.536 11.1067H119.921L119.921 119.065Z" fill="url(#paint3_linear)"/>
<path d="M45.4834 59.4224H147.866C148.624 59.4224 149.374 59.571 150.074 59.8599C150.774 60.1487 151.41 60.572 151.946 61.1056C152.482 61.6393 152.907 62.2728 153.197 62.9701C153.487 63.6673 153.636 64.4146 153.636 65.1693V127H39.6973V65.1693C39.6973 64.4133 39.847 63.6647 40.138 62.9664C40.429 62.2681 40.8555 61.6338 41.393 61.1C41.9305 60.5661 42.5685 60.1431 43.2704 59.8553C43.9723 59.5674 44.7243 59.4203 45.4834 59.4224Z" fill="#0F3DB7"/>
<path d="M147.497 64.3188H46.165V121.816H147.497V64.3188Z" fill="white"/>
<path opacity="0.26" d="M50.6599 78.3328L51.0609 79.6907C51.0609 79.6907 66.627 79.487 67.9903 78.8919C68.4033 78.6908 68.7689 78.405 69.0633 78.0533C69.3577 77.7016 69.5741 77.2919 69.6985 76.8511L69.1532 73.3846L65.6686 67.1943L50.6599 78.3328Z" fill="url(#paint4_linear)"/>
<path d="M32.652 126.708H160.393V127.108C160.393 129.438 159.463 131.673 157.809 133.321C156.154 134.968 153.911 135.894 151.571 135.894H41.4695C39.1299 135.894 36.8861 134.968 35.2317 133.321C33.5774 131.673 32.6479 129.438 32.6479 127.108V126.708H32.652Z" fill="#0F3DB7"/>
<path d="M32.652 126.708H160.393V127.108C160.393 129.438 159.463 131.673 157.809 133.321C156.154 134.968 153.911 135.894 151.571 135.894H41.4695C39.1299 135.894 36.8861 134.968 35.2317 133.321C33.5774 131.673 32.6479 129.438 32.6479 127.108V126.708H32.652Z" fill="url(#paint5_linear)"/>
<path d="M46.4257 15.0521C46.7866 14.4092 47.2277 13.7821 47.348 13.0553C47.4683 12.3284 47.1275 11.4578 46.4097 11.2741C45.6919 11.0904 44.8058 11.7374 44.076 11.4219C43.6108 11.2222 43.3943 10.699 43.1537 10.2557C42.6196 9.22135 41.702 8.43491 40.5955 8.06313C40.0438 7.88836 39.456 7.85905 38.8896 7.97804C38.3232 8.09703 37.7974 8.36027 37.3636 8.74206C37.1372 8.99367 36.8889 9.22487 36.6217 9.43298C36.2988 9.59663 35.9374 9.67005 35.5758 9.64544C35.2143 9.62083 34.8663 9.4991 34.5687 9.2932C34.0715 8.99766 33.4861 8.55436 32.9648 8.84191C32.8484 8.92131 32.75 9.02421 32.6761 9.14392C32.6022 9.26364 32.5543 9.3975 32.5357 9.53681C32.2911 10.7988 33.2214 11.961 33.6224 13.1991C34.1397 14.7686 33.8069 16.4779 33.47 18.0954C32.9808 20.3798 32.4596 22.744 30.9799 24.5692C29.5003 26.3943 27.2308 27.3927 25.703 29.162C24.1753 30.9312 23.5257 33.2875 23.0565 35.5799C22.8562 36.2618 22.8562 36.9866 23.0565 37.6686C23.2755 38.124 23.5836 38.5314 23.9628 38.8667C25.4624 40.3963 27.0343 41.9658 29.0432 42.7206C31.2125 43.5194 33.6104 43.2957 35.928 43.2518C37.532 43.2199 39.1559 43.2877 40.7398 43.0162C42.3237 42.7446 43.9076 42.0976 44.9461 40.8795C45.8419 39.7362 46.3439 38.3357 46.3776 36.8858C46.4075 35.4477 46.2987 34.01 46.0528 32.5926C45.6385 29.5174 45.3458 26.4316 45.1747 23.3351C45.0103 20.4716 44.9702 17.6481 46.4257 15.0521Z" fill="#0F3DB7"/>
<path opacity="0.26" d="M30.699 27.1933C30.4705 27.6606 30.254 28.2597 30.5908 28.659L34.3279 26.0072C34.4035 25.9387 34.5025 25.9016 34.6046 25.9034C34.7249 25.9034 34.7971 26.0431 34.8532 26.151L35.7915 28.0041L37.5679 25.484L41.2409 29.1343C41.5777 29.4698 42.115 29.8172 42.4719 29.5017C42.7686 29.2421 42.6283 28.7589 42.4719 28.3994C41.3772 26.0352 41.0043 22.9919 40.4229 20.4559C40.1943 19.4615 40.078 18.4591 39.8454 17.4566C39.256 14.9166 36.9624 13.3032 35.0337 11.522C35.3905 12.7201 35.7073 13.9422 35.984 15.1642L35.0417 14.7569C33.7766 16.8879 32.9734 19.2591 32.6839 21.7179C32.4193 23.7627 31.6173 25.3283 30.699 27.1933Z" fill="url(#paint6_linear)"/>
<path d="M35.6273 15.0964C36.3143 15.2855 36.9848 15.53 37.6322 15.8273C37.9536 15.9773 38.2416 16.19 38.4792 16.4527C38.7168 16.7154 38.8992 17.0228 39.0155 17.3569C39.0644 17.4857 39.0775 17.6253 39.0535 17.7609C39.0296 17.8965 38.9693 18.0232 38.8792 18.1277C38.7618 18.2034 38.6288 18.2521 38.49 18.2701C38.3513 18.288 38.2102 18.2748 38.0772 18.2315C36.4887 17.9548 34.927 17.5419 33.4098 16.9974C33.0038 16.8749 32.6234 16.68 32.2871 16.4223C32.1196 16.2921 31.9873 16.1225 31.9019 15.9287C31.8165 15.7349 31.7807 15.523 31.7979 15.3121C32.0906 13.1235 34.5647 14.757 35.6273 15.0964Z" fill="url(#paint7_linear)"/>
<path d="M35.2263 17.4967C35.9126 17.6883 36.5829 17.9326 37.2312 18.2275C37.5522 18.3776 37.8396 18.5903 38.0766 18.8531C38.3135 19.1158 38.4951 19.4232 38.6106 19.7571C38.6612 19.8861 38.6757 20.0263 38.6523 20.1628C38.629 20.2993 38.5689 20.4269 38.4783 20.5319C38.3606 20.6071 38.2277 20.6555 38.089 20.6734C37.9503 20.6914 37.8094 20.6785 37.6763 20.6357C36.0923 20.3561 34.5349 19.9433 33.0209 19.4017C32.6136 19.2791 32.2319 19.0843 31.8942 18.8266C31.7272 18.695 31.5953 18.5246 31.51 18.3303C31.4246 18.136 31.3886 17.9238 31.405 17.7123C31.7217 15.5278 34.1998 17.1532 35.2263 17.4967Z" fill="url(#paint8_linear)"/>
<path d="M34.7851 19.633C35.4713 19.8233 36.1416 20.0663 36.79 20.3599C37.1112 20.5106 37.3988 20.724 37.6357 20.9875C37.8727 21.2509 38.0541 21.559 38.1694 21.8935C38.2191 22.0222 38.2327 22.1619 38.2087 22.2977C38.1847 22.4335 38.1239 22.5603 38.033 22.6643C37.9154 22.7395 37.7824 22.7879 37.6438 22.8058C37.5051 22.8238 37.3641 22.8109 37.2311 22.7681C35.6429 22.495 34.0813 22.0861 32.5637 21.546C32.1564 21.4235 31.7746 21.2287 31.4369 20.9709C31.2699 20.8394 31.138 20.6689 31.0527 20.4746C30.9674 20.2803 30.9313 20.0681 30.9477 19.8567C31.2645 17.6602 33.7425 19.2816 34.7851 19.633Z" fill="url(#paint9_linear)"/>
<path d="M34.2921 21.7577C34.9791 21.9468 35.6496 22.1912 36.297 22.4885C36.618 22.6391 36.9057 22.852 37.1433 23.1146C37.3808 23.3772 37.5634 23.6844 37.6803 24.0181C37.7292 24.1469 37.7423 24.2865 37.7184 24.4221C37.6944 24.5578 37.6341 24.6844 37.544 24.7889C37.4274 24.8664 37.2945 24.9164 37.1555 24.9351C37.0166 24.9538 36.8752 24.9407 36.742 24.8967C35.1525 24.6184 33.5897 24.2055 32.0706 23.6627C31.6646 23.5401 31.2842 23.3452 30.9479 23.0876C30.7801 22.9567 30.6476 22.7864 30.5622 22.5919C30.4768 22.3974 30.4412 22.1849 30.4587 21.9733C30.7754 19.7887 33.2495 21.4062 34.2921 21.7577Z" fill="url(#paint10_linear)"/>
<path d="M47.6005 18.5907C45.5073 15.4596 41.6419 13.9579 37.8927 13.4947C37.2591 13.4148 36.4291 13.4947 36.2447 14.0897C36.1858 14.3356 36.2201 14.5944 36.3409 14.8166C36.9785 16.1545 38.9673 16.4141 39.6009 17.752C39.7724 18.1889 39.8647 18.6527 39.8735 19.1218C40.2144 23.1155 41.3973 27.285 44.3886 29.9688C44.8653 30.4409 45.4502 30.7905 46.0928 30.9872C46.6434 31.097 47.2088 31.1132 47.7649 31.0351C48.5668 30.9632 49.3688 30.8913 50.1708 30.7675C50.9727 30.6437 51.2253 30.5718 51.073 29.7651C50.8284 28.5031 50.271 27.257 50.0023 25.979C49.461 23.451 49.0681 20.7872 47.6005 18.5907Z" fill="url(#paint11_linear)"/>
<path d="M52.28 29.6654C52.3175 29.7607 52.3259 29.8649 52.3041 29.965C52.2552 30.0649 52.175 30.1462 52.0755 30.1966L47.2638 33.3117C47.0751 33.459 46.8486 33.5504 46.6102 33.5753C46.3853 33.5532 46.1719 33.4657 45.9967 33.3237C45.0018 32.6164 44.2767 31.5944 43.9396 30.4242C43.9146 30.3711 43.9016 30.3132 43.9016 30.2545C43.9016 30.1958 43.9146 30.1379 43.9396 30.0848C44.0075 29.9982 44.1042 29.9387 44.2123 29.917C46.1009 29.274 47.6647 27.8004 49.4251 26.8898C51.5382 25.7995 51.7548 27.8962 52.28 29.6654Z" fill="white"/>
<path d="M150.589 13.4908C150.222 12.9553 149.951 12.3608 149.787 11.7336C149.682 11.0906 149.979 10.3198 150.609 10.1601C151.238 10.0003 152.024 10.5594 152.666 10.2919C153.067 10.1161 153.267 9.65686 153.468 9.26548C153.939 8.35538 154.747 7.66358 155.721 7.33651C156.207 7.18274 156.724 7.15672 157.223 7.26099C157.722 7.36526 158.185 7.59627 158.568 7.93158C158.765 8.1541 158.982 8.35738 159.218 8.53862C159.502 8.68344 159.82 8.74877 160.139 8.72768C160.457 8.70658 160.764 8.59983 161.026 8.41881C161.463 8.15522 161.98 7.76783 162.422 8.01944C162.523 8.08926 162.609 8.17924 162.674 8.28371C162.739 8.38818 162.781 8.50488 162.798 8.62648C163.031 9.74073 162.225 10.7751 161.868 11.8574C161.415 13.2392 161.708 14.7449 162.005 16.1666C162.426 18.1635 162.883 20.2762 164.186 21.8697C165.489 23.4632 167.49 24.3577 168.833 25.9113C170.177 27.4649 170.758 29.5336 171.159 31.5664C171.335 32.1676 171.335 32.8064 171.159 33.4075C170.965 33.8123 170.693 34.1748 170.357 34.4738C169.034 35.8157 167.654 37.2016 165.886 37.8645C163.973 38.5834 161.876 38.3717 159.819 38.3318C158.405 38.3681 156.989 38.3 155.585 38.1281C154.189 37.8885 152.798 37.3294 151.88 36.2431C151.09 35.2376 150.649 34.0047 150.621 32.7286C150.594 31.4617 150.689 30.1952 150.905 28.9465C151.27 26.2428 151.527 23.5191 151.679 20.7954C151.836 18.2633 151.872 15.7792 150.589 13.4908Z" fill="#0F3DB7"/>
<path opacity="0.26" d="M152.221 11.7895C152.622 11.6098 152.998 12.0211 153.335 12.2967C153.63 12.5399 153.985 12.698 154.363 12.7537C154.742 12.8095 155.128 12.7608 155.481 12.6129C155.833 12.465 156.138 12.2236 156.362 11.9151C156.586 11.6065 156.721 11.2426 156.752 10.8629C156.978 10.9307 157.188 11.0445 157.368 11.1971C157.548 11.3497 157.695 11.5378 157.798 11.7495C157.886 11.9373 157.967 12.1489 158.167 12.2168C158.28 12.2401 158.397 12.2246 158.5 12.1729C159.069 11.879 159.551 11.4427 159.899 10.9069L160.629 9.96436C161.207 10.5474 161.01 11.5059 160.85 12.3127C160.434 14.4219 160.572 16.6023 161.251 18.6427C161.407 19.1611 161.646 19.6507 161.96 20.0924C162.412 20.6098 162.922 21.0734 163.48 21.4743C164.448 22.2777 165.262 23.2492 165.882 24.3417L161.676 22.3449C161.195 22.1172 160.565 21.9056 160.18 22.273C159.997 22.5009 159.889 22.7801 159.871 23.0717C159.672 24.1652 159.286 25.2163 158.729 26.1789L158.223 23.0598C158.211 22.7563 158.08 22.4695 157.858 22.261C157.369 21.9056 156.72 22.4607 156.459 23.0118C155.857 24.2858 155.849 25.7715 155.312 27.0735C154.959 27.9241 154.39 28.6709 154.013 29.5136C153.65 30.353 153.485 31.2644 153.533 32.1772C153.58 33.0899 153.838 33.9796 154.286 34.7773C154.506 35.1767 154.783 35.5761 154.707 36.0154C154.637 36.271 154.477 36.4927 154.256 36.6396C154.034 36.7865 153.767 36.8485 153.504 36.8141C152.983 36.7241 152.508 36.4608 152.156 36.0673C150.821 34.7414 150.236 32.8004 150.248 30.9234C150.311 29.4373 150.545 27.9633 150.945 26.5303C151.247 25.0726 151.677 23.6441 152.229 22.261C152.958 20.5837 154.077 18.9742 154.069 17.1451C154.069 15.9469 153.496 15.0284 152.934 14.034C152.662 13.5587 151.354 12.1849 152.221 11.7895Z" fill="url(#paint12_linear)"/>
<path d="M160.116 13.5305C159.514 13.6974 158.927 13.9125 158.36 14.1734C158.079 14.3069 157.829 14.4947 157.622 14.7258C157.416 14.9569 157.257 15.2266 157.157 15.5193C157.113 15.6324 157.1 15.7552 157.121 15.8748C157.141 15.9943 157.194 16.1061 157.273 16.1983C157.375 16.266 157.491 16.3095 157.613 16.3255C157.735 16.3414 157.858 16.3293 157.975 16.2901C159.374 16.0467 160.749 15.6832 162.085 15.2038C162.443 15.0965 162.779 14.9246 163.075 14.6966C163.222 14.5809 163.337 14.4312 163.412 14.2606C163.487 14.09 163.518 13.9038 163.504 13.7182C163.216 11.7932 161.034 13.2189 160.116 13.5305Z" fill="url(#paint13_linear)"/>
<path d="M160.437 15.6472C159.836 15.8142 159.25 16.0292 158.684 16.2901C158.404 16.4229 158.152 16.6104 157.946 16.8416C157.739 17.0728 157.581 17.3429 157.481 17.636C157.438 17.7494 157.426 17.8725 157.447 17.9921C157.468 18.1116 157.522 18.2232 157.602 18.315C157.704 18.3827 157.82 18.4262 157.942 18.4422C158.063 18.4581 158.187 18.446 158.303 18.4068C159.701 18.1629 161.075 17.7994 162.409 17.3205C162.768 17.2141 163.104 17.0421 163.4 16.8133C163.547 16.6985 163.664 16.549 163.739 16.3782C163.814 16.2073 163.845 16.0206 163.829 15.8349C163.54 13.9099 161.355 15.3356 160.437 15.6472Z" fill="url(#paint14_linear)"/>
<path d="M160.842 17.5243C160.24 17.6913 159.653 17.9063 159.086 18.1673C158.805 18.3008 158.555 18.4886 158.348 18.7196C158.142 18.9507 157.983 19.2205 157.883 19.5132C157.839 19.6269 157.826 19.7504 157.847 19.8705C157.867 19.9907 157.92 20.1032 157.999 20.1961C158.102 20.261 158.219 20.3028 158.34 20.3186C158.461 20.3345 158.584 20.324 158.701 20.288C160.098 20.0408 161.471 19.6761 162.807 19.1977C163.165 19.0919 163.501 18.9213 163.797 18.6945C163.945 18.5788 164.062 18.4286 164.137 18.2573C164.213 18.0859 164.245 17.8986 164.23 17.712C163.941 15.791 161.76 17.2128 160.842 17.5243Z" fill="url(#paint15_linear)"/>
<path d="M161.271 19.3976C160.674 19.566 160.093 19.781 159.53 20.0406C159.25 20.1741 158.999 20.3619 158.793 20.593C158.586 20.8241 158.428 21.0938 158.327 21.3865C158.284 21.5003 158.271 21.6237 158.292 21.7439C158.312 21.864 158.365 21.9765 158.444 22.0694C158.547 22.1343 158.663 22.1761 158.784 22.192C158.906 22.2078 159.029 22.1974 159.145 22.1613C160.543 21.9141 161.916 21.5494 163.252 21.071C163.61 20.9652 163.946 20.7946 164.242 20.5678C164.39 20.4521 164.506 20.302 164.582 20.1306C164.658 19.9592 164.689 19.7719 164.675 19.5853C164.37 17.6604 162.193 19.0861 161.271 19.3976Z" fill="url(#paint16_linear)"/>
<path d="M149.558 16.606C151.398 13.8504 154.807 12.5324 158.103 12.1211C158.66 12.0492 159.394 12.1211 159.554 12.6443C159.605 12.8604 159.575 13.0875 159.47 13.2833C158.909 14.4614 157.157 14.6891 156.599 15.8672C156.45 16.2497 156.369 16.6551 156.359 17.0653C156.062 20.5838 155.015 24.254 152.385 26.6183C151.968 27.0437 151.451 27.3593 150.881 27.5369C150.396 27.6322 149.899 27.6457 149.41 27.5768C148.708 27.5129 147.998 27.449 147.3 27.3412C146.603 27.2333 146.37 27.1694 146.498 26.4585C146.711 25.3483 147.204 24.25 147.441 23.1278C147.902 20.8873 148.263 18.543 149.558 16.606Z" fill="url(#paint17_linear)"/>
<path d="M144.233 28.5672C144.213 28.6753 144.227 28.7868 144.273 28.8867C144.346 28.9824 144.449 29.0512 144.566 29.0824L150.34 31.3029C150.572 31.4166 150.833 31.4623 151.09 31.4347C151.322 31.3639 151.528 31.2247 151.679 31.0353C152.572 30.0711 153.11 28.8332 153.203 27.5248C153.215 27.4626 153.214 27.3987 153.2 27.3369C153.186 27.2751 153.16 27.2168 153.123 27.1654C153.031 27.0903 152.917 27.0494 152.798 27.0496C150.661 26.79 148.684 25.5839 146.619 25.0128C144.149 24.3418 144.39 26.5863 144.233 28.5672Z" fill="white"/>
<path d="M121.513 121.82H75.3242C75.3242 120.762 76.6755 115.502 77.7101 114.748C78.7446 113.993 81.0262 114.46 82.3093 114.46C86.3512 114.46 90.3851 114.401 94.4109 114.284C98.4568 114.14 102.487 113.937 106.517 113.645C107.651 113.573 117.82 112.124 118.069 112.631C119.172 114.835 121.497 120.818 121.513 121.82Z" fill="#606161"/>
<path d="M49.0119 78.4966L65.396 77.598C66.0777 77.5621 66.8476 77.4822 67.2726 76.955C67.6977 76.4279 67.6215 75.685 67.5333 75.0181C67.0389 71.1495 66.981 67.2379 67.3608 63.3564C67.4972 61.9466 67.7177 60.4849 68.5397 59.3307C69.3617 58.1766 70.9456 57.4577 72.2448 58.0607C72.4604 58.1923 72.696 58.2881 72.9425 58.3443C73.7445 58.4322 74.1053 57.1981 73.5921 56.5791C73.0788 55.96 72.1806 55.8482 71.3787 55.7803C67.0521 55.4568 62.7014 55.6326 58.3829 55.2971C55.9008 55.1054 53.3666 54.3106 51.0529 55.5886C43.9836 59.5065 47.5483 72.502 49.0119 78.4966Z" fill="#0F3DB7"/>
<path opacity="0.26" d="M58.7157 55.4167L56.394 55.1411C56.394 55.1411 59.2611 63.7116 62.5371 68.7437C65.8131 73.7758 70.1838 82.0708 70.3201 84.1116C70.4565 86.1524 75.6452 106.824 73.7365 112.806C71.8278 118.789 69.6385 121.852 69.6385 121.852H93.942L92.5666 79.351L60.1111 55.3887" fill="url(#paint18_linear)"/>
<path d="M50.1106 56.1636C50.1106 56.1636 46.7664 58.2723 50.9126 73.5044C50.9126 73.5044 52.5165 73.4524 52.4804 75.2896L63.2347 74.4908C63.2347 74.4908 62.6212 73.0131 64.6181 72.6058C64.6181 72.6058 61.699 61.6909 62.3125 59.6501C62.6596 58.3535 62.5169 56.9751 61.9115 55.7762C61.9115 55.7762 56.6546 55.1612 55.7685 55.0933C54.8823 55.0254 52.6368 54.1228 50.1106 56.1636Z" fill="url(#paint19_linear)"/>
<path d="M66.0095 22.6285C68.1508 21.5861 70.6569 21.8297 73.0227 21.5462C75.5348 21.2635 77.9487 20.4125 80.08 19.0581C79.9083 22.7224 80.3959 26.3877 81.5195 29.8811C79.3261 29.7932 76.9844 29.7413 75.1038 30.8795C73.4397 31.8899 72.3891 33.7071 70.693 34.6895C68.8044 35.7998 66.4586 35.672 64.2773 35.5122C64.975 34.0825 64.0287 32.4291 63.0743 31.1591C61.8954 29.5975 60.9812 28.2836 61.9997 26.5024C62.947 24.8636 64.336 23.5216 66.0095 22.6285Z" fill="#0F3DB7"/>
<path d="M66.591 22.8958C68.4836 21.9733 70.7051 22.173 72.7982 21.9413C75.0223 21.6911 77.1593 20.937 79.0455 19.7368C78.8915 22.982 79.3234 26.2285 80.3206 29.3217C78.3758 29.2419 76.3108 29.1979 74.6467 30.2044C73.1751 31.0989 72.2408 32.7044 70.7572 33.5751C69.0851 34.5575 67.008 34.4457 65.0753 34.3019C65.6928 33.0399 64.8507 31.5742 64.0007 30.452C62.9581 29.0701 62.1481 27.908 63.0503 26.3304C63.8855 24.8789 65.112 23.6891 66.591 22.8958Z" fill="url(#paint20_linear)"/>
<path d="M169.748 24.0145C169.439 22.0696 170.108 19.8291 171.837 18.8706C172.863 18.2995 174.09 18.2556 175.265 18.2276L183.225 18.0239C182.932 20.5359 183.61 23.0645 185.121 25.0968C186.509 26.9419 188.522 28.2918 189.805 30.1928C190.823 31.8091 191.281 33.7129 191.11 35.6132C190.939 37.5135 190.148 39.3059 188.858 40.7162C185.108 40.1993 181.292 40.4273 177.631 41.3872C178.433 39.2186 177.009 36.8743 175.433 35.169C172.735 32.2376 170.377 28.0442 169.748 24.0145Z" fill="#0F3DB7"/>
<path opacity="0.26" d="M170.998 24.8688C170.597 23.0516 171.063 20.907 172.506 19.9086C173.364 19.3175 174.427 19.2097 175.445 19.1098L182.342 18.4868C182.223 20.848 182.949 23.1746 184.391 25.0525C185.706 26.7179 187.535 27.8481 188.762 29.6013C190.767 32.4768 190.695 36.838 188.565 39.5856C185.28 39.2993 181.972 39.7216 178.866 40.8237C179.447 38.735 178.064 36.6063 176.588 35.0847C174.078 32.4529 171.784 28.6269 170.998 24.8688Z" fill="url(#paint21_linear)"/>
<path d="M13.12 75.5051C12.9633 75.6047 12.8447 75.7538 12.7831 75.9285C12.7757 76.0474 12.7936 76.1666 12.8358 76.2781C12.8779 76.3896 12.9434 76.491 13.0277 76.5754C14.6805 78.7372 16.4487 80.809 18.3247 82.7817C18.4741 82.9679 18.6748 83.1067 18.9021 83.181C19.1676 83.2083 19.4348 83.1495 19.664 83.0133L22.9801 81.4837C24.155 80.9406 25.3619 80.3775 26.2682 79.4509C28.0565 77.6138 28.2731 74.8142 28.3934 72.2622C25.9033 70.1256 23.5295 65.8403 20.466 67.8212C17.8315 69.5265 15.6943 73.4124 13.12 75.5051Z" fill="#0F3DB7"/>
<path d="M165.69 103.497C167.996 105.376 170.454 107.062 173.04 108.537C174.219 103.493 179.095 100.498 183.245 98.0337C175.57 89.1717 167.442 104.927 165.69 103.497Z" fill="#0F3DB7"/>
<g opacity="0.24">
<path opacity="0.24" d="M161.993 85.9088V82.5741C157.582 82.2107 155.003 79.6068 154.635 76.0923H157.87C158.049 77.0974 158.545 78.0195 159.287 78.7242C160.028 79.4289 160.976 79.8794 161.993 80.0101V71.1441C157.101 69.6784 155.176 67.8453 155.176 64.4386C155.176 60.7404 158.043 58.2843 161.993 58.0287V55.5366H164.09V58.0646C168.982 58.5399 170.562 61.6909 170.782 63.9634H167.618C167.217 62.4617 166.331 60.996 164.09 60.5927V68.5801C169.703 70.1776 171.335 72.5379 171.335 75.7968C171.335 79.8624 168.613 82.2466 164.09 82.5861V85.9208L161.993 85.9088ZM161.993 67.9571V60.5208C159.342 60.7404 158.384 62.314 158.384 64.0752C158.384 65.8364 159.234 67.0066 161.993 67.9571ZM164.09 71.7671V80.0461C166.628 79.7905 167.987 78.5085 167.987 76.1282C167.987 74.1873 167.149 72.8294 164.09 71.7671Z" fill="#0F3DB7"/>
</g>
<path d="M163.007 85.6574V82.3226C158.596 81.9552 156.018 79.3553 155.649 75.8368H158.885C159.063 76.8427 159.558 77.7657 160.3 78.4712C161.042 79.1767 161.99 79.6278 163.007 79.7587V70.8926C158.115 69.4269 156.19 67.5938 156.19 64.1872C156.19 60.489 159.057 58.0328 163.007 57.7772V55.2852H165.104V57.8132C169.996 58.2884 171.58 61.4395 171.8 63.7119H168.637C168.236 62.2103 167.35 60.7446 165.104 60.3412V68.3286C170.718 69.9261 172.35 72.2824 172.35 75.5453C172.35 79.6109 169.627 81.9912 165.104 82.3346V85.6694L163.007 85.6574ZM163.007 67.7056V60.2853C160.356 60.505 159.398 62.0785 159.398 63.8357C159.398 65.593 160.248 66.7511 163.007 67.7056ZM165.104 71.5156V79.7946C167.642 79.539 169.002 78.257 169.002 75.8728C169.002 73.9318 168.156 72.578 165.104 71.5156Z" fill="white"/>
<g opacity="0.24">
<path opacity="0.24" d="M161.86 35.7036V34.5055C160.301 34.3777 159.39 33.4592 159.262 32.2171H160.405C160.466 32.5727 160.641 32.8992 160.903 33.1482C161.165 33.3971 161.501 33.5552 161.86 33.599V30.4679C160.132 29.9527 159.454 29.3057 159.454 28.0996C159.454 26.7937 160.469 25.927 161.86 25.8352V24.9565H162.598V25.8471C164.33 26.0189 164.888 27.1291 164.964 27.9319H163.849C163.792 27.6274 163.64 27.3483 163.416 27.1336C163.192 26.9188 162.906 26.7791 162.598 26.7337V29.5533C164.603 30.1244 165.16 30.9511 165.16 32.1053C165.16 33.539 164.198 34.3817 162.598 34.5015V35.6997L161.86 35.7036ZM161.86 29.3616V26.7377C160.922 26.8136 160.585 27.3687 160.585 27.9918C160.585 28.6148 160.886 29.0261 161.86 29.3616ZM162.598 30.7075V33.6349C163.496 33.543 163.978 33.0878 163.978 32.2491C163.978 31.5622 163.677 31.0829 162.598 30.7075Z" fill="#0F3DB7"/>
</g>
<path d="M162.217 35.6159V34.4178C160.657 34.286 159.751 33.3674 159.619 32.1254H160.761C160.821 32.4838 160.994 32.8138 161.256 33.0663C161.518 33.3188 161.855 33.4804 162.217 33.5272V30.3961C160.489 29.8769 159.811 29.2299 159.811 28.0278C159.811 26.7219 160.822 25.8512 162.217 25.7634V24.8848H162.959V25.7794C164.687 25.9471 165.244 27.0613 165.325 27.8641H164.206C164.15 27.5594 164 27.2799 163.776 27.0649C163.552 26.8499 163.267 26.7103 162.959 26.666V29.4935C164.964 30.0646 165.517 30.8913 165.517 32.0415C165.517 33.4792 164.555 34.3219 162.959 34.4377V35.6359L162.217 35.6159ZM162.217 29.2739V26.646C161.283 26.7259 160.946 27.281 160.946 27.9C160.946 28.5191 161.243 28.9384 162.217 29.2739ZM162.959 30.6197V33.5272C163.857 33.4393 164.334 32.984 164.334 32.1453C164.342 31.4744 164.037 30.9952 162.959 30.6197Z" fill="white"/>
<g opacity="0.24">
<path opacity="0.24" d="M33.915 39.3379V38.1398C32.3552 38.012 31.445 37.0895 31.3167 35.8474H32.4594C32.5204 36.2035 32.6949 36.5305 32.9571 36.7801C33.2192 37.0297 33.5551 37.1886 33.915 37.2332V34.1022C32.1868 33.583 31.5091 32.936 31.5091 31.7339C31.5091 30.4279 32.5236 29.5613 33.915 29.4694V28.5908H34.6528V29.4814C36.381 29.6492 36.9424 30.7634 37.0186 31.5661H35.9039C35.8469 31.2614 35.6957 30.9821 35.4713 30.7672C35.247 30.5524 34.9608 30.4128 34.6528 30.368V33.1876C36.6577 33.7587 37.2151 34.5854 37.2151 35.7356C37.2151 37.1733 36.2527 38.016 34.6528 38.1318V39.3299L33.915 39.3379ZM33.915 32.9959V30.368C32.9767 30.4479 32.6399 31.003 32.6399 31.626C32.6399 32.2491 32.9406 32.6604 33.915 32.9959ZM34.6528 34.3258V37.2492C35.551 37.1773 36.0282 36.722 36.0282 35.8834C36.0282 35.1964 35.7315 34.7252 34.6528 34.3258Z" fill="#0F3DB7"/>
</g>
<path d="M34.2719 39.2462V38.072C32.7121 37.9402 31.8059 37.0217 31.6736 35.7796H32.8204C32.8826 36.1352 33.0574 36.4616 33.3194 36.7109C33.5813 36.9603 33.9165 37.1196 34.276 37.1654V34.0344C32.5477 33.5152 31.8701 32.8682 31.8701 31.6661C31.8701 30.3562 32.8805 29.4895 34.276 29.4017V28.519H35.0178V29.4136C36.746 29.5814 37.3034 30.6956 37.3836 31.4944H36.2608C36.2035 31.1904 36.0527 30.9118 35.8292 30.6971C35.6058 30.4824 35.3208 30.3423 35.0138 30.2962V33.1278C37.0187 33.6949 37.572 34.5256 37.572 35.6758C37.572 37.1135 36.6097 37.9522 35.0138 38.072V39.2462H34.2719ZM34.2719 32.9081V30.2803C33.3377 30.3562 33.0008 30.9153 33.0008 31.5343C33.0008 32.1533 33.2976 32.5687 34.2719 32.9081ZM35.0138 34.254V37.1774C35.912 37.0856 36.3891 36.6343 36.3891 35.7916C36.3891 35.1247 36.0924 34.6294 35.0138 34.254Z" fill="white"/>
<g opacity="0.24">
<path opacity="0.24" d="M9.61947 95.4298V93.8323C7.51832 93.6606 6.29533 92.4185 6.1189 90.7452H7.65867C7.73879 91.2279 7.97267 91.6721 8.32576 92.0123C8.67884 92.3524 9.13241 92.5705 9.61947 92.6342V88.4008C7.28976 87.7019 6.37953 86.8313 6.37953 85.2059C6.37953 83.4446 7.74688 82.2745 9.61947 82.1547V80.9565H10.6179V82.1547C12.9476 82.3823 13.7015 83.8799 13.8057 84.9503H12.298C12.2191 84.5432 12.015 84.1708 11.7139 83.8845C11.4128 83.5982 11.0298 83.4124 10.6179 83.3528V87.1548C13.2965 87.9216 14.0664 89.0398 14.0664 90.5894C14.0664 92.5264 12.7712 93.6606 10.6179 93.8163V95.4138L9.61947 95.4298ZM9.61947 86.8832V83.3448C8.36038 83.4486 7.90326 84.1955 7.90326 85.0341C7.90326 85.8728 8.30826 86.4279 9.61947 86.8832ZM10.6179 88.6964V92.6342C11.8209 92.5104 12.4745 91.9033 12.4745 90.7691C12.4745 89.8386 12.0735 89.2036 10.6179 88.6964Z" fill="#0F3DB7"/>
</g>
<path d="M10.1047 95.3063V93.7088C8.00353 93.533 6.77653 92.295 6.6001 90.6216H8.14388C8.22628 91.101 8.46145 91.5412 8.8146 91.8771C9.16774 92.213 9.62008 92.4268 10.1047 92.4867V88.2813C7.77497 87.5824 6.86475 86.7118 6.86475 85.0863C6.86475 83.3251 8.22808 82.1549 10.1047 82.0311V80.833H11.1031V82.0311C13.4288 82.2588 14.1827 83.7564 14.2869 84.8267H12.7712C12.6923 84.4197 12.4881 84.0472 12.1871 83.761C11.886 83.4747 11.503 83.2889 11.0911 83.2292V87.0432C13.7696 87.81 14.5395 88.9283 14.5395 90.4779C14.5395 92.4148 13.2444 93.549 11.0911 93.7048V95.3023L10.1047 95.3063ZM10.1047 86.7637V83.2213C8.84158 83.3291 8.38847 84.0759 8.38847 84.9146C8.38847 85.7533 8.78946 86.3084 10.1047 86.7637ZM11.1031 88.5768V92.5186C12.3061 92.3948 12.9557 91.7838 12.9557 90.6536C12.9557 89.727 12.5547 89.084 11.1031 88.5768Z" fill="white"/>
<g opacity="0.24">
<path opacity="0.24" d="M60.7528 60.5287H59.614C59.4937 62.0224 58.6115 62.893 57.4126 63.0208V61.9265C57.757 61.8696 58.0733 61.7023 58.3136 61.45C58.5539 61.1977 58.7049 60.8743 58.7438 60.5287H55.7244C55.2272 62.1861 54.6057 62.8331 53.4429 62.8371C52.1798 62.8371 51.3417 61.8706 51.2495 60.5407H50.3994V59.8458H51.2655C51.4219 58.1924 52.4965 57.6532 53.2704 57.5774V58.6477C52.9776 58.7031 52.7096 58.8485 52.5039 59.0634C52.2983 59.2782 52.1653 59.5518 52.1236 59.8458H54.8463C55.3916 57.9408 56.1896 57.3896 57.3003 57.3896C58.6877 57.3896 59.5017 58.3042 59.618 59.8338H60.7568L60.7528 60.5287ZM54.6338 60.5287H52.0956C52.1718 61.4233 52.7131 61.7468 53.2985 61.7468C53.8839 61.7468 54.309 61.4832 54.6338 60.5447V60.5287ZM55.929 59.8138H58.7358C58.6476 58.9552 58.2105 58.4959 57.3965 58.4959C56.751 58.5119 56.2898 58.7954 55.929 59.8298V59.8138Z" fill="#0F3DB7"/>
</g>
<path d="M60.6645 60.1853H59.5297C59.4094 61.679 58.5233 62.5496 57.3243 62.6774V61.5831C57.6676 61.5227 57.9824 61.3544 58.2227 61.1029C58.463 60.8513 58.6161 60.5298 58.6596 60.1853H55.6362C55.139 61.8427 54.5175 62.4897 53.3546 62.4937C52.0915 62.4937 51.2535 61.5272 51.1653 60.1973H50.3152V59.4864H51.1773C51.3377 57.833 52.4083 57.2939 53.1822 57.218V58.2883C52.8894 58.3438 52.6213 58.4891 52.4157 58.704C52.21 58.9189 52.077 59.1925 52.0354 59.4864H54.7581C55.3034 57.5814 56.1013 57.0303 57.2161 57.0303C58.5995 57.0303 59.4135 57.9448 59.5297 59.4744H60.6685L60.6645 60.1853ZM54.5455 60.1853H52.0073C52.0875 61.0839 52.6248 61.3834 53.2103 61.3834C53.7957 61.3834 54.2207 61.1318 54.5455 60.2013V60.1853ZM55.8407 59.4704H58.6476C58.5594 58.6118 58.1223 58.1525 57.3083 58.1525C56.6627 58.1685 56.2016 58.452 55.8407 59.4864V59.4704Z" fill="white"/>
<g opacity="0.24">
<path opacity="0.24" d="M71.5031 30.2926L71.2866 29.5577C70.2841 29.7614 69.5464 29.3501 69.2376 28.5953L69.9513 28.3876C70.0561 28.5987 70.2257 28.771 70.4356 28.8795C70.6454 28.988 70.8846 29.0269 71.1182 28.9906L70.5408 27.0297C69.3659 27.0297 68.8246 26.7382 68.6 25.9874C68.3594 25.1686 68.8366 24.4378 69.6907 24.1303L69.5263 23.5791L69.9914 23.4434L70.1558 24.0025C71.2666 23.7908 71.8239 24.4019 72.0204 24.8731L71.3187 25.0768C71.2266 24.8983 71.0809 24.7528 70.902 24.6605C70.7231 24.5682 70.5198 24.5336 70.3202 24.5616L70.8375 26.3388C72.1888 26.3388 72.6981 26.7382 72.9106 27.465C73.1752 28.3676 72.7301 29.0625 71.7477 29.4339L71.9643 30.1688L71.5031 30.2926ZM70.3363 26.3388L69.8511 24.6974C69.7455 24.7244 69.6465 24.7725 69.5602 24.8389C69.4739 24.9053 69.4021 24.9885 69.3492 25.0834C69.2963 25.1783 69.2634 25.283 69.2525 25.3911C69.2415 25.4991 69.2529 25.6083 69.2857 25.7118C69.402 26.0952 69.6626 26.2909 70.3363 26.3388ZM71.046 27.0457L71.5833 28.8788C71.7006 28.851 71.8106 28.7989 71.9063 28.7259C72.002 28.6529 72.0811 28.5607 72.1386 28.4552C72.1961 28.3497 72.2307 28.2333 72.24 28.1136C72.2494 27.9939 72.2333 27.8736 72.1928 27.7606C72.0645 27.3133 71.7918 27.0697 71.046 27.0297V27.0457Z" fill="#0F3DB7"/>
</g>
<path d="M71.7156 30.1726L71.499 29.4337C70.4966 29.6374 69.7588 29.23 69.45 28.4752L70.1638 28.2676C70.2681 28.4788 70.4379 28.651 70.6479 28.7589C70.858 28.8667 71.0973 28.9045 71.3306 28.8666L70.7532 26.9057C69.5783 26.9057 69.033 26.6181 68.8125 25.8633C68.5719 25.0646 69.049 24.3178 69.8991 24.0063L69.7387 23.4551L70.2039 23.3193L70.3683 23.8785C71.479 23.6708 72.0363 24.2778 72.2328 24.7531L71.5311 24.9568C71.4396 24.7775 71.2942 24.6312 71.1153 24.5381C70.9363 24.4451 70.7326 24.4099 70.5327 24.4376L71.0499 26.2068C72.4012 26.2068 72.9105 26.6062 73.123 27.333C73.3877 28.2316 72.9386 28.9305 71.9602 29.2979L72.1767 30.0368L71.7156 30.1726ZM70.5447 26.2028L70.0635 24.5574C69.9575 24.5843 69.858 24.6326 69.7714 24.6992C69.6848 24.7659 69.6128 24.8495 69.5598 24.9449C69.5068 25.0403 69.4741 25.1455 69.4634 25.254C69.4528 25.3625 69.4646 25.472 69.4981 25.5758C69.6104 25.9752 69.8711 26.1709 70.5407 26.2028H70.5447ZM71.2584 26.9097L71.7918 28.7348C71.909 28.707 72.019 28.6549 72.1147 28.5819C72.2104 28.5089 72.2896 28.4167 72.3471 28.3112C72.4046 28.2057 72.4391 28.0893 72.4484 27.9696C72.4578 27.8499 72.4417 27.7297 72.4012 27.6166C72.2729 27.1932 72.0003 26.9456 71.2544 26.9097H71.2584Z" fill="white"/>
<g opacity="0.24">
<path opacity="0.24" d="M176.937 101.392L176.488 101.069C176.315 101.318 176.052 101.493 175.755 101.557C175.457 101.622 175.146 101.571 174.884 101.416L175.201 100.981C175.354 101.056 175.527 101.081 175.695 101.051C175.863 101.022 176.017 100.94 176.135 100.817L174.932 99.9467C174.255 100.458 173.821 100.534 173.364 100.202C173.249 100.115 173.152 100.006 173.08 99.8809C173.007 99.756 172.96 99.6181 172.942 99.4751C172.923 99.3321 172.933 99.1869 172.971 99.0477C173.009 98.9086 173.075 98.7784 173.164 98.6647L172.831 98.4171L173.036 98.1375L173.376 98.3851C173.536 98.1625 173.773 98.007 174.041 97.9487C174.309 97.8904 174.59 97.9335 174.828 98.0696L174.515 98.4929C174.383 98.4303 174.235 98.4101 174.092 98.4351C173.948 98.4602 173.816 98.5293 173.713 98.6327L174.788 99.4315C175.558 98.8364 176.031 98.8524 176.472 99.1719C177.017 99.5712 177.073 100.166 176.672 100.805L177.122 101.129L176.937 101.392ZM174.531 99.6351L173.529 98.9083C173.479 98.9692 173.442 99.0399 173.421 99.1158C173.4 99.1917 173.395 99.2712 173.406 99.3491C173.418 99.4271 173.446 99.5017 173.489 99.5681C173.531 99.6346 173.587 99.6914 173.653 99.735C173.886 99.9107 174.122 99.9107 174.519 99.6351H174.531ZM175.249 99.727L176.364 100.526C176.419 100.459 176.459 100.381 176.482 100.297C176.504 100.213 176.509 100.126 176.495 100.04C176.482 99.9547 176.45 99.8729 176.403 99.8003C176.355 99.7278 176.293 99.666 176.219 99.6192C175.947 99.4434 175.678 99.4235 175.237 99.727H175.249Z" fill="#0F3DB7"/>
</g>
<path d="M177.001 101.233L176.552 100.909C176.379 101.159 176.117 101.333 175.819 101.398C175.521 101.462 175.21 101.412 174.948 101.257L175.265 100.821C175.418 100.896 175.59 100.92 175.757 100.89C175.924 100.861 176.078 100.779 176.195 100.658L174.993 99.787C174.319 100.298 173.882 100.374 173.425 100.039C173.309 99.9513 173.213 99.842 173.14 99.717C173.068 99.5921 173.021 99.454 173.003 99.3108C172.984 99.1677 172.995 99.0224 173.034 98.8833C173.072 98.7443 173.138 98.6143 173.228 98.501L172.891 98.2574L173.096 97.9778L173.437 98.2254C173.596 98.0029 173.833 97.8473 174.101 97.789C174.37 97.7307 174.65 97.7738 174.888 97.9099L174.579 98.3333C174.448 98.27 174.3 98.2495 174.156 98.2746C174.012 98.2996 173.88 98.3691 173.778 98.473L174.852 99.2718C175.622 98.6767 176.095 98.6927 176.536 99.0122C177.082 99.4116 177.138 100.007 176.737 100.642L177.186 100.969L177.001 101.233ZM174.596 99.4755L173.593 98.7486C173.543 98.8097 173.506 98.8806 173.486 98.9567C173.465 99.0329 173.46 99.1124 173.473 99.1904C173.485 99.2683 173.513 99.3429 173.556 99.4092C173.599 99.4755 173.655 99.5321 173.721 99.5753C173.966 99.751 174.187 99.751 174.584 99.4755H174.596ZM175.313 99.5673L176.432 100.366C176.487 100.299 176.527 100.221 176.549 100.138C176.571 100.054 176.576 99.9668 176.562 99.8815C176.548 99.7962 176.516 99.7149 176.468 99.6428C176.42 99.5707 176.357 99.5096 176.284 99.4635C176.011 99.2838 175.746 99.2638 175.301 99.5673H175.313Z" fill="white"/>
<path d="M182.154 83.397C181.913 85.8651 179.479 86.4681 179.652 88.9403C181.637 88.1974 183.786 88.2973 185.811 88.8045C187.836 89.3117 189.656 90.402 191.633 91.0569C191.722 90.2875 191.936 89.5376 192.267 88.8364C192.636 88.1215 193.097 87.4546 193.45 86.7317C192.912 86.8316 192.419 86.4442 191.978 86.1247C190.206 84.8307 188.004 84.3435 185.851 84.1837C185.35 84.1478 182.066 84.3155 182.154 83.397Z" fill="#0F3DB7"/>
<g opacity="0.24">
<path opacity="0.24" d="M185.675 88.1093L185.831 87.7459C185.632 87.6662 185.469 87.5149 185.377 87.3219C185.284 87.1289 185.267 86.9082 185.33 86.7035L185.683 86.8513C185.654 86.9685 185.665 87.0917 185.712 87.2026C185.76 87.3134 185.842 87.4059 185.947 87.4663L186.348 86.5038C185.883 86.1045 185.759 85.8329 185.915 85.4615C185.956 85.3665 186.016 85.2807 186.09 85.2089C186.165 85.1372 186.253 85.0811 186.35 85.0439C186.447 85.0067 186.55 84.9891 186.654 84.9923C186.757 84.9954 186.859 85.0191 186.954 85.0621L187.07 84.7905L187.299 84.8864L187.178 85.1619C187.356 85.238 187.501 85.3758 187.585 85.5498C187.669 85.7239 187.687 85.9223 187.635 86.1085L187.291 85.9647C187.312 85.8641 187.301 85.7594 187.26 85.6651C187.219 85.5707 187.15 85.4913 187.062 85.4375L186.693 86.3041C187.23 86.7395 187.299 87.0669 187.146 87.4224C187.103 87.5228 187.04 87.6133 186.96 87.6884C186.881 87.7635 186.787 87.8215 186.684 87.8589C186.581 87.8964 186.471 87.9124 186.362 87.906C186.252 87.8996 186.145 87.8709 186.048 87.8218L185.891 88.1852L185.675 88.1093ZM186.505 86.1564L186.849 85.3576C186.799 85.3322 186.744 85.3178 186.687 85.3152C186.63 85.3127 186.574 85.3221 186.521 85.3428C186.469 85.3636 186.421 85.3952 186.381 85.4356C186.342 85.476 186.312 85.5243 186.292 85.5773C186.212 85.765 186.252 85.9287 186.505 86.1564ZM186.557 86.6676L186.176 87.5702C186.231 87.5967 186.292 87.6113 186.354 87.613C186.415 87.6148 186.477 87.6036 186.534 87.5803C186.591 87.5569 186.642 87.5219 186.685 87.4776C186.728 87.4332 186.76 87.3804 186.781 87.3225C186.87 87.1109 186.841 86.9232 186.557 86.6676Z" fill="#0F3DB7"/>
</g>
<path d="M185.799 88.1293L185.951 87.7659C185.753 87.6847 185.592 87.5332 185.5 87.3407C185.407 87.1481 185.389 86.9283 185.45 86.7235L185.803 86.8713C185.776 86.989 185.788 87.112 185.836 87.2226C185.885 87.3332 185.967 87.4256 186.072 87.4863L186.473 86.5238C186.007 86.1245 185.887 85.8529 186.044 85.4815C186.084 85.3867 186.143 85.3009 186.217 85.2292C186.292 85.1576 186.38 85.1014 186.476 85.0642C186.573 85.027 186.676 85.0094 186.779 85.0125C186.882 85.0155 186.984 85.0392 187.078 85.0821L187.194 84.8105L187.423 84.9064L187.307 85.182C187.484 85.2587 187.628 85.3968 187.711 85.5708C187.794 85.7447 187.812 85.9428 187.76 86.1285L187.419 85.9847C187.441 85.8841 187.43 85.7792 187.389 85.6848C187.348 85.5903 187.279 85.5109 187.19 85.4575L186.821 86.3242C187.359 86.7595 187.423 87.087 187.275 87.4424C187.232 87.5433 187.168 87.6343 187.088 87.7098C187.008 87.7852 186.914 87.8435 186.81 87.881C186.707 87.9184 186.597 87.9343 186.487 87.9275C186.377 87.9208 186.27 87.8916 186.172 87.8418L186.019 88.2052L185.799 88.1293ZM186.629 86.1764L186.974 85.3777C186.923 85.3523 186.867 85.338 186.811 85.3358C186.754 85.3335 186.697 85.3432 186.645 85.3644C186.592 85.3855 186.544 85.4176 186.505 85.4584C186.466 85.4993 186.435 85.548 186.416 85.6013C186.332 85.785 186.372 85.9448 186.629 86.1764ZM186.681 86.6876L186.28 87.5862C186.336 87.6134 186.396 87.6285 186.458 87.6305C186.52 87.6326 186.582 87.6216 186.639 87.5982C186.696 87.5747 186.748 87.5395 186.79 87.4948C186.833 87.45 186.865 87.3968 186.886 87.3386C186.994 87.1269 186.962 86.9432 186.681 86.6876Z" fill="white"/>
<g opacity="0.24">
<path opacity="0.24" d="M176.628 30.3322L177.507 30.0607C177.242 28.8625 177.719 27.9919 178.617 27.6085L178.878 28.4552C178.627 28.5838 178.424 28.7887 178.299 29.0401C178.173 29.2916 178.132 29.5764 178.18 29.853L180.518 29.1341C180.518 27.7363 180.835 27.0853 181.721 26.8098C182.695 26.5102 183.577 27.0574 183.962 28.0678L184.62 27.8641L184.792 28.4112L184.127 28.6189C184.395 29.9368 183.694 30.6158 183.116 30.8474L182.856 30.0207C183.069 29.9086 183.242 29.7327 183.35 29.5179C183.457 29.303 183.495 29.0599 183.457 28.8226L181.352 29.4736C181.388 31.0711 180.899 31.6901 180.041 31.9577C178.97 32.2891 178.12 31.77 177.663 30.6118L176.785 30.8834L176.628 30.3322ZM181.36 28.8705L183.321 28.2675C183.289 28.1405 183.23 28.0216 183.149 27.9185C183.069 27.8153 182.967 27.7301 182.851 27.6685C182.735 27.6068 182.607 27.5699 182.476 27.5603C182.345 27.5507 182.214 27.5684 182.09 27.6125C181.617 27.7603 181.384 28.0718 181.36 28.8705ZM180.526 29.7292L178.341 30.4041C178.617 31.0471 179.066 31.2987 179.692 31.103C180.205 30.9473 180.494 30.6158 180.526 29.7292Z" fill="#0F3DB7"/>
</g>
<path d="M176.773 30.5761L177.651 30.3045C177.386 29.1064 177.863 28.2358 178.762 27.8564L179.026 28.7031C178.775 28.8295 178.571 29.0334 178.445 29.2846C178.319 29.5358 178.278 29.8207 178.329 30.0969L180.662 29.374C180.662 27.9762 180.979 27.3292 181.865 27.0497C182.84 26.7501 183.722 27.3013 184.111 28.3077L184.764 28.104L184.937 28.6551L184.271 28.8588C184.544 30.1767 183.842 30.8557 183.261 31.0913L183.004 30.2646C183.216 30.1511 183.388 29.975 183.495 29.7605C183.603 29.546 183.642 29.3036 183.605 29.0665L181.5 29.7135C181.532 31.311 181.047 31.934 180.185 32.1976C179.114 32.529 178.264 32.0099 177.811 30.8557L176.929 31.1273L176.773 30.5761ZM181.508 29.1344L183.469 28.5313C183.437 28.4044 183.379 28.2855 183.298 28.1823C183.217 28.0792 183.115 27.994 182.999 27.9323C182.883 27.8706 182.756 27.8338 182.625 27.8242C182.494 27.8145 182.362 27.8323 182.238 27.8764C181.765 28.0042 181.536 28.3356 181.508 29.1344ZM180.674 29.993L178.493 30.668C178.766 31.311 179.215 31.5626 179.844 31.3709C180.353 31.1912 180.642 30.8597 180.674 29.9731V29.993Z" fill="white"/>
<g opacity="0.24">
<path opacity="0.24" d="M22.7196 105.234L22.8278 104.711C22.5413 104.657 22.2857 104.497 22.1112 104.265C21.9368 104.032 21.8563 103.742 21.8855 103.453L22.3948 103.557C22.3891 103.721 22.4363 103.882 22.5294 104.017C22.6225 104.152 22.7566 104.254 22.912 104.308L23.2047 102.914C22.483 102.515 22.2424 102.175 22.3547 101.636C22.3849 101.499 22.4422 101.37 22.5231 101.256C22.6041 101.141 22.7071 101.044 22.8261 100.97C22.9452 100.895 23.0779 100.845 23.2166 100.823C23.3553 100.8 23.4971 100.805 23.6338 100.837L23.714 100.438L24.0468 100.506L23.9626 100.905C24.2228 100.957 24.4546 101.102 24.6131 101.314C24.7716 101.526 24.8456 101.788 24.8207 102.051L24.3235 101.948C24.3256 101.807 24.2839 101.67 24.2042 101.554C24.1245 101.438 24.0107 101.349 23.8784 101.301L23.6178 102.559C24.4478 102.994 24.6282 103.417 24.52 103.928C24.3876 104.567 23.8824 104.855 23.1566 104.759L23.0484 105.282L22.7196 105.234ZM23.309 102.411L23.5536 101.241C23.4792 101.222 23.4017 101.219 23.326 101.231C23.2503 101.244 23.178 101.272 23.1136 101.313C23.0492 101.355 22.9942 101.409 22.9519 101.473C22.9096 101.537 22.881 101.609 22.8679 101.684C22.7957 101.968 22.904 102.171 23.309 102.411ZM23.5135 103.078L23.2408 104.38C23.323 104.404 23.4094 104.411 23.4943 104.399C23.5792 104.387 23.6604 104.356 23.7324 104.31C23.8044 104.264 23.8655 104.202 23.9115 104.13C23.9575 104.058 23.9872 103.977 23.9987 103.893C24.0468 103.585 23.9586 103.345 23.5135 103.078Z" fill="#0F3DB7"/>
</g>
<path d="M22.888 105.231L22.9963 104.703C22.7098 104.649 22.4541 104.49 22.2797 104.257C22.1053 104.024 22.0247 103.734 22.054 103.445L22.5632 103.549C22.5563 103.713 22.6029 103.875 22.6962 104.01C22.7895 104.146 22.9243 104.247 23.0805 104.3L23.3732 102.906C22.6514 102.507 22.4108 102.167 22.5231 101.632C22.5529 101.495 22.6098 101.366 22.6906 101.251C22.7714 101.136 22.8745 101.039 22.9937 100.964C23.1129 100.89 23.2458 100.84 23.3847 100.818C23.5235 100.795 23.6655 100.8 23.8022 100.833L23.8824 100.434L24.2153 100.502L24.1311 100.901C24.3912 100.953 24.623 101.098 24.7816 101.31C24.9401 101.522 25.0141 101.785 24.9892 102.048L24.4919 101.944C24.4938 101.804 24.452 101.667 24.3722 101.552C24.2925 101.436 24.1788 101.349 24.0468 101.301L23.7862 102.555C24.6162 102.994 24.7967 103.413 24.6884 103.929C24.5561 104.568 24.0468 104.851 23.3251 104.755L23.2168 105.282L22.888 105.231ZM23.4775 102.407L23.7221 101.237C23.6479 101.217 23.5703 101.213 23.4944 101.224C23.4185 101.236 23.3459 101.263 23.2812 101.305C23.2166 101.346 23.1614 101.401 23.1193 101.465C23.0771 101.529 23.0488 101.601 23.0364 101.676C22.9762 101.96 23.0725 102.167 23.4775 102.407ZM23.682 103.074L23.4093 104.376C23.4907 104.397 23.5756 104.401 23.6585 104.387C23.7414 104.373 23.8205 104.342 23.8905 104.296C23.9605 104.249 24.0199 104.189 24.0648 104.118C24.1097 104.047 24.1391 103.968 24.1511 103.885C24.2153 103.581 24.127 103.338 23.682 103.074Z" fill="#0F3DB7"/>
<g opacity="0.24">
<path opacity="0.24" d="M35.6472 67.4379V65.2254C32.7161 64.9818 31.0039 63.2525 30.7593 60.9162H32.9085C33.0286 61.5834 33.3587 62.1954 33.851 62.6635C34.3434 63.1316 34.9724 63.4316 35.6472 63.5201V57.6333C32.3953 56.6589 31.1242 55.4408 31.1242 53.1803C31.1242 50.7202 33.0328 49.0908 35.6472 48.919V47.2656H37.0386V48.943C40.2906 49.2585 41.3412 51.3392 41.4855 52.8608H39.3844C39.2743 52.2919 38.9894 51.7711 38.5692 51.3704C38.149 50.9698 37.6141 50.7091 37.0386 50.6243V55.928C40.7798 56.9983 41.8504 58.5559 41.8504 60.7205C41.8504 63.4242 40.042 65.0057 37.0386 65.2254V67.4379H35.6472ZM35.6472 55.5167V50.5764C33.8869 50.7202 33.2414 51.7745 33.2414 52.9367C33.2414 54.0989 33.8148 54.8816 35.6472 55.5167ZM37.0386 58.0447V63.544C38.7268 63.3763 39.629 62.5216 39.629 60.9401C39.637 59.6502 39.0676 58.7516 37.0386 58.0447Z" fill="#0F3DB7"/>
</g>
<path d="M36.3211 67.2703V65.0777C33.3899 64.8341 31.6777 63.1048 31.4331 60.7685H33.5864C33.7021 61.437 34.0303 62.0508 34.5226 62.5196C35.0149 62.9883 35.6453 63.2873 36.3211 63.3724V57.4657C33.0731 56.4912 31.802 55.2731 31.802 53.0127C31.802 50.5525 33.7067 48.9231 36.3211 48.7514V47.106H37.7125V48.7833C40.9644 49.0988 42.015 51.1795 42.1594 52.7012H40.0582C39.9481 52.1322 39.6633 51.6114 39.243 51.2108C38.8228 50.8101 38.288 50.5494 37.7125 50.4647V55.7683C41.4536 56.8387 42.5243 58.3962 42.5243 60.5608C42.5243 63.2646 40.7158 64.8461 37.7125 65.0657V67.2782L36.3211 67.2703ZM36.3211 55.349V50.4088C34.5608 50.5525 33.9152 51.6069 33.9152 52.769C33.9152 53.9312 34.4886 54.714 36.3211 55.349ZM37.7125 57.889V63.3884C39.4006 63.2206 40.3028 62.366 40.3028 60.7844C40.3028 59.4865 39.7414 58.5839 37.7125 57.889Z" fill="white"/>
<path d="M150.408 34.5416C141.142 49.3663 121.514 78.2169 119.432 95.5616C118.923 99.8788 118.851 104.244 118.691 108.589C118.631 109.735 118.647 111.66 118.049 112.631C117.031 114.268 114.805 113.981 112.9 114.168C106.12 114.851 98.9303 114.923 92.0495 114.863C86.9851 114.835 82.0971 114.731 77.6743 114.747C77.3976 109.663 76.9044 103.964 76.6277 98.8804C76.3791 94.3316 76.1185 89.7228 74.8073 85.3617C73.6885 81.6954 71.856 78.2888 70.0236 74.9261C62.9075 61.9864 55.4866 49.2212 47.7611 36.6303C47.2518 35.8036 44.7938 32.7324 45.0705 31.8019C45.1032 31.7128 45.1421 31.6261 45.1868 31.5423C45.4168 31.1319 45.7229 30.7687 46.089 30.472C47.2877 29.4454 48.6254 28.5917 50.0627 27.936C50.3714 27.7696 50.7182 27.6856 51.0692 27.6923C51.5624 27.7482 53.876 30.2283 54.2249 30.5878L74.1216 50.7281C78.4161 55.0773 83.288 56.4511 89.1664 58.2044C91.8169 59.0031 94.6077 59.1748 97.3745 59.2068C103.862 59.2627 111.81 59.3066 116.666 54.598C122.44 48.9749 138.836 33.7308 144.193 27.6724L149.923 31.0351C150.329 31.2249 150.68 31.515 150.942 31.8778C151.427 32.7005 150.918 33.7308 150.408 34.5416Z" fill="#0F3DB7"/>
<path d="M96.0751 65.2092C96.8246 65.8256 97.7354 66.2159 98.7001 66.334C99.6648 66.4522 100.643 66.2934 101.52 65.8762C102.234 65.5889 102.837 65.0842 103.245 64.4345C103.579 63.7484 103.765 63 103.79 62.2379L104.055 59.6979C104.249 58.3235 104.292 56.9321 104.183 55.5484C104.027 54.2025 103.529 52.9126 102.579 52.1817C101.332 51.2152 99.5115 51.4149 97.9878 52.2456C93.0718 54.9494 92.2979 61.9584 96.0751 65.2092Z" fill="url(#paint22_linear)"/>
<path opacity="0.26" d="M103.501 54.8379C103.501 54.8379 99.8163 64.0235 94.387 62.1824C94.387 62.1824 92.9555 61.8748 94.2867 56.06C95.618 50.2451 103.501 54.8379 103.501 54.8379Z" fill="url(#paint23_linear)"/>
<path d="M88.1117 47.6932C88.5327 51.3115 90.1727 55.0496 93.3605 56.7549C96.3158 58.3524 100.037 57.8372 103.012 56.2717C104.263 55.662 105.355 54.7705 106.2 53.6678C106.919 52.5689 107.438 51.3521 107.732 50.0734C108.329 47.9128 108.762 45.6803 108.57 43.4438C108.414 41.57 107.817 39.7592 106.826 38.1587C105.835 36.5582 104.479 35.2132 102.868 34.2332C101.257 33.2532 99.4364 32.6659 97.5544 32.519C95.6723 32.372 93.782 32.6697 92.0373 33.3877C89.5151 34.418 88.3763 35.9876 88.248 38.6474C88.1037 41.6587 87.7548 44.6819 88.1117 47.6932Z" fill="url(#paint24_linear)"/>
<path d="M86.6162 39.1183C86.6162 37.9841 86.8006 36.8299 86.5119 35.7356C86.2393 34.7173 85.5656 33.8466 85.2047 32.8562C84.8996 31.9882 84.8347 31.0545 85.0167 30.153C85.1988 29.2514 85.621 28.4153 86.2393 27.7322C86.9895 26.9542 87.9351 26.3902 88.978 26.0988C90.3063 25.7007 91.7177 25.6662 93.064 25.999C93.91 26.2106 94.712 26.5621 95.5621 26.7458C96.765 27.0014 98.0281 26.9055 99.2631 26.8975C101.224 26.8975 103.229 27.1052 105.005 27.9319C106.782 28.7586 108.313 30.2563 108.819 32.1453C108.903 32.6699 109.067 33.1788 109.304 33.6549C109.622 34.049 109.97 34.4175 110.346 34.7572C111.148 35.6638 111.273 36.9577 111.365 38.1558C111.504 39.1025 111.447 40.0677 111.196 40.9914C110.9 41.846 110.286 42.5449 109.817 43.3157C109.223 44.3834 108.759 45.5176 108.434 46.6944C108.205 46.2471 108.281 45.716 108.229 45.2167C108.177 44.7175 107.872 44.1504 107.367 44.1504C107.171 44.1754 106.987 44.2551 106.835 44.3802C106.683 44.5053 106.57 44.6707 106.509 44.8573C106.395 45.2336 106.237 45.5954 106.04 45.9356C106 46.0049 105.941 46.0609 105.87 46.0965C105.798 46.1321 105.718 46.1456 105.639 46.1353C105.502 46.0954 105.438 45.9436 105.394 45.8118C105.037 44.6137 105.446 43.3277 105.502 42.0737C105.539 41.1357 105.376 40.2005 105.025 39.3293C104.674 38.4581 104.143 37.6704 103.465 37.0176C102.127 35.8275 100.455 35.0748 98.6737 34.861C96.902 34.6554 95.1123 34.6554 93.3406 34.861C92.3021 34.9489 91.2154 35.0687 90.3573 35.6598C89.391 36.3187 88.8697 37.4569 88.589 38.5872C88.3685 39.4897 88.4366 41.3269 87.7871 41.9698C86.8608 41.4387 86.6322 40.0489 86.6162 39.1183Z" fill="#E08142"/>
<path d="M15.3617 74.8625C15.3617 74.8625 15.462 76.7675 14.8164 77.0391L17.9842 80.917C17.9842 80.917 19.3154 79.8946 20.1695 80.4058C20.1695 80.4058 22.832 76.7675 24.8129 74.9304C26.7937 73.0933 28.0889 72.0429 28.0889 72.0429C28.0889 72.0429 25.5988 69.0476 24.6084 68.4486C23.6179 67.8495 22.9403 67.4741 22.9403 67.4741C22.9403 67.4741 20.7549 67.7217 15.3617 74.8625Z" fill="white"/>
<path d="M21.5408 81.2203C21.5408 81.2203 26.4568 73.74 27.2066 74.1474C27.9565 74.5548 26.8979 77.9894 26.557 78.6044C26.2162 79.2194 23.5176 81.2203 23.5176 81.2203L20.823 82.4184L21.5408 81.2203Z" fill="url(#paint25_linear)"/>
<path d="M88.0716 114.847L77.7063 114.747C77.4296 109.663 76.9364 103.964 76.6597 98.8803C76.4111 94.3314 76.1504 89.7227 74.8392 85.3615C73.7205 81.6953 71.888 78.2886 70.0555 74.9259C62.9394 61.9863 55.5186 49.221 47.793 36.6301C47.2838 35.8034 44.8258 32.7323 45.1025 31.8017C45.1352 31.7127 45.1741 31.6259 45.2187 31.5421L47.6567 29.5732L49.1684 32.8321C49.1684 32.8321 71.2825 64.1189 76.7399 68.2045C82.1973 72.2901 86.0266 82.0707 85.7499 84.2473C85.5013 86.1922 90.9988 108.857 92.1656 113.897C92.314 114.504 88.0716 114.847 88.0716 114.847Z" fill="url(#paint26_linear)"/>
<g opacity="0.24">
<path opacity="0.24" d="M24.9451 73.3206L24.5442 72.8373C24.283 73.0586 23.9482 73.1747 23.6055 73.1629C23.2628 73.1511 22.9368 73.0122 22.6916 72.7734L23.1608 72.3741C23.3071 72.4998 23.4901 72.5755 23.6829 72.5899C23.8756 72.6043 24.0679 72.5566 24.2314 72.4539L23.1648 71.164C22.2786 71.5394 21.7774 71.4994 21.3684 71.0082C21.2666 70.88 21.1914 70.7329 21.147 70.5756C21.1026 70.4183 21.0899 70.2537 21.1096 70.0915C21.1294 69.9292 21.1812 69.7725 21.2621 69.6303C21.343 69.4881 21.4513 69.3632 21.5809 69.2629L21.2842 68.8995L21.5929 68.6719L21.8977 69.0393C22.1353 68.8389 22.4393 68.7336 22.7506 68.7439C23.0618 68.7542 23.3581 68.8795 23.5818 69.0952L23.1167 69.4706C22.9888 69.3659 22.8315 69.3031 22.6664 69.2909C22.5012 69.2788 22.3364 69.3178 22.1944 69.4027L23.1608 70.5609C24.1712 70.1216 24.6885 70.2694 25.0815 70.7446C25.5707 71.3317 25.4825 72.0026 24.8449 72.5937L25.2459 73.077L24.9451 73.3206ZM22.7959 70.7167L21.8977 69.6344C21.8257 69.6879 21.7657 69.7559 21.7216 69.8339C21.6775 69.9119 21.6502 69.9982 21.6416 70.0873C21.6329 70.1764 21.643 70.2663 21.6712 70.3513C21.6994 70.4363 21.7451 70.5145 21.8055 70.5809C21.9939 70.8445 22.2666 70.9084 22.7959 70.7167ZM23.5577 71.0162L24.5562 72.2143C24.6356 72.1562 24.7017 72.0819 24.7502 71.9965C24.7986 71.9111 24.8284 71.8164 24.8375 71.7186C24.8466 71.6209 24.8348 71.5224 24.8029 71.4295C24.771 71.3367 24.7197 71.2516 24.6524 71.1799C24.3998 70.9004 24.1151 70.8045 23.5417 71.0162H23.5577Z" fill="#0F3DB7"/>
</g>
<path d="M25.0612 73.1609L24.6603 72.6776C24.3995 72.8994 24.065 73.0162 23.7223 73.0052C23.3796 72.9941 23.0534 72.8559 22.8077 72.6177L23.2809 72.2183C23.4277 72.3435 23.6109 72.4184 23.8036 72.4321C23.9964 72.4457 24.1884 72.3974 24.3515 72.2942L23.2809 71.0082C22.3947 71.3797 21.8975 71.3437 21.4845 70.8485C21.3824 70.7202 21.307 70.573 21.2626 70.4155C21.2182 70.2579 21.2058 70.0931 21.2259 69.9307C21.2461 69.7683 21.2984 69.6115 21.38 69.4694C21.4616 69.3274 21.5707 69.2029 21.701 69.1032L21.4003 68.7438L21.705 68.4922L22.0098 68.8596C22.2463 68.6589 22.5493 68.5531 22.8599 68.5627C23.1704 68.5723 23.4663 68.6966 23.6899 68.9115L23.2328 69.3109C23.1048 69.2076 22.948 69.1461 22.7838 69.1347C22.6195 69.1232 22.4556 69.1625 22.3145 69.247L23.2769 70.4052C24.2873 69.9659 24.8046 70.1096 25.1976 70.5849C25.6868 71.176 25.5986 71.8469 24.965 72.434L25.366 72.9212L25.0612 73.1609ZM22.8959 70.5569L21.9937 69.4706C21.9217 69.5242 21.8618 69.5922 21.8177 69.6702C21.7736 69.7482 21.7463 69.8345 21.7376 69.9236C21.7289 70.0127 21.739 70.1026 21.7672 70.1876C21.7955 70.2726 21.8412 70.3508 21.9015 70.4172C22.122 70.6688 22.3947 70.7486 22.8959 70.5569ZM23.6618 70.8605L24.6603 72.0586C24.7389 71.9994 24.8043 71.9244 24.852 71.8385C24.8998 71.7526 24.929 71.6576 24.9377 71.5598C24.9464 71.4619 24.9344 71.3634 24.9025 71.2705C24.8706 71.1775 24.8195 71.0923 24.7525 71.0202C24.5159 70.7447 24.2312 70.6688 23.6618 70.8605Z" fill="#0F3DB7"/>
</g>
<defs>
<linearGradient id="paint0_linear" x1="55.9529" y1="23.6945" x2="124.273" y2="237.646" gradientUnits="userSpaceOnUse">
<stop stop-color="#010101" stop-opacity="0"/>
<stop offset="0.95" stop-color="#010101"/>
</linearGradient>
<linearGradient id="paint1_linear" x1="1091.51" y1="8496.18" x2="-7688.2" y2="23672.3" gradientUnits="userSpaceOnUse">
<stop stop-color="#010101" stop-opacity="0"/>
<stop offset="0.95" stop-color="#010101"/>
</linearGradient>
<linearGradient id="paint2_linear" x1="2039.09" y1="9368.92" x2="-7616.47" y2="26664.1" gradientUnits="userSpaceOnUse">
<stop stop-color="#010101" stop-opacity="0"/>
<stop offset="0.95" stop-color="#010101"/>
</linearGradient>
<linearGradient id="paint3_linear" x1="2547.32" y1="12458.7" x2="-7452.28" y2="29157.5" gradientUnits="userSpaceOnUse">
<stop stop-color="#010101" stop-opacity="0"/>
<stop offset="0.95" stop-color="#010101"/>
</linearGradient>
<linearGradient id="paint4_linear" x1="2883.79" y1="2252.06" x2="3225.93" y2="4952.98" gradientUnits="userSpaceOnUse">
<stop stop-color="#010101" stop-opacity="0"/>
<stop offset="0.95" stop-color="#010101"/>
</linearGradient>
<linearGradient id="paint5_linear" x1="96.4" y1="132.603" x2="96.6029" y2="123.014" gradientUnits="userSpaceOnUse">
<stop stop-color="white" stop-opacity="0"/>
<stop offset="0.95" stop-color="white"/>
</linearGradient>
<linearGradient id="paint6_linear" x1="1045.42" y1="1398.08" x2="1418.65" y2="1398.08" gradientUnits="userSpaceOnUse">
<stop stop-color="#010101" stop-opacity="0"/>
<stop offset="0.95" stop-color="#010101"/>
</linearGradient>
<linearGradient id="paint7_linear" x1="31.7618" y1="16.2306" x2="39.0276" y2="16.2306" gradientUnits="userSpaceOnUse">
<stop stop-color="#E5C6D6"/>
<stop offset="0.42" stop-color="#EAD4D0"/>
<stop offset="1" stop-color="#F0E9CB"/>
</linearGradient>
<linearGradient id="paint8_linear" x1="651.944" y1="309.74" x2="783.46" y2="309.74" gradientUnits="userSpaceOnUse">
<stop stop-color="#E5C6D6"/>
<stop offset="0.42" stop-color="#EAD4D0"/>
<stop offset="1" stop-color="#F0E9CB"/>
</linearGradient>
<linearGradient id="paint9_linear" x1="644.416" y1="333.561" x2="776.191" y2="333.561" gradientUnits="userSpaceOnUse">
<stop stop-color="#E5C6D6"/>
<stop offset="0.42" stop-color="#EAD4D0"/>
<stop offset="1" stop-color="#F0E9CB"/>
</linearGradient>
<linearGradient id="paint10_linear" x1="634.918" y1="357.892" x2="766.754" y2="357.892" gradientUnits="userSpaceOnUse">
<stop stop-color="#E5C6D6"/>
<stop offset="0.42" stop-color="#EAD4D0"/>
<stop offset="1" stop-color="#F0E9CB"/>
</linearGradient>
<linearGradient id="paint11_linear" x1="1488.22" y1="1437.11" x2="2041.55" y2="1437.11" gradientUnits="userSpaceOnUse">
<stop stop-color="#E5C6D6"/>
<stop offset="0.42" stop-color="#EAD4D0"/>
<stop offset="1" stop-color="#F0E9CB"/>
</linearGradient>
<linearGradient id="paint12_linear" x1="6119.65" y1="2255.11" x2="6729.86" y2="2255.11" gradientUnits="userSpaceOnUse">
<stop stop-color="#010101" stop-opacity="0"/>
<stop offset="0.95" stop-color="#010101"/>
</linearGradient>
<linearGradient id="paint13_linear" x1="5405.4" y1="234.019" x2="5303.38" y2="234.019" gradientUnits="userSpaceOnUse">
<stop stop-color="#E5C6D6"/>
<stop offset="0.42" stop-color="#EAD4D0"/>
<stop offset="1" stop-color="#F0E9CB"/>
</linearGradient>
<linearGradient id="paint14_linear" x1="5409.63" y1="255.191" x2="5307.62" y2="255.191" gradientUnits="userSpaceOnUse">
<stop stop-color="#E5C6D6"/>
<stop offset="0.42" stop-color="#EAD4D0"/>
<stop offset="1" stop-color="#F0E9CB"/>
</linearGradient>
<linearGradient id="paint15_linear" x1="5416.21" y1="273.89" x2="5314.19" y2="273.89" gradientUnits="userSpaceOnUse">
<stop stop-color="#E5C6D6"/>
<stop offset="0.42" stop-color="#EAD4D0"/>
<stop offset="1" stop-color="#F0E9CB"/>
</linearGradient>
<linearGradient id="paint16_linear" x1="5422.6" y1="292.779" x2="5320.64" y2="292.779" gradientUnits="userSpaceOnUse">
<stop stop-color="#E5C6D6"/>
<stop offset="0.42" stop-color="#EAD4D0"/>
<stop offset="1" stop-color="#F0E9CB"/>
</linearGradient>
<linearGradient id="paint17_linear" x1="11339.9" y1="1172.55" x2="10911.1" y2="1172.55" gradientUnits="userSpaceOnUse">
<stop stop-color="#E5C6D6"/>
<stop offset="0.42" stop-color="#EAD4D0"/>
<stop offset="1" stop-color="#F0E9CB"/>
</linearGradient>
<linearGradient id="paint18_linear" x1="5605.6" y1="16508.8" x2="9121.59" y2="16508.8" gradientUnits="userSpaceOnUse">
<stop stop-color="#010101" stop-opacity="0"/>
<stop offset="0.95" stop-color="#010101"/>
</linearGradient>
<linearGradient id="paint19_linear" x1="2610.88" y1="3105.01" x2="1496.85" y2="5651.1" gradientUnits="userSpaceOnUse">
<stop stop-color="white" stop-opacity="0"/>
<stop offset="0.95" stop-color="white"/>
</linearGradient>
<linearGradient id="paint20_linear" x1="3216.91" y1="1056.27" x2="4486.31" y2="5208.87" gradientUnits="userSpaceOnUse">
<stop stop-color="#010101" stop-opacity="0"/>
<stop offset="0.95" stop-color="#010101"/>
</linearGradient>
<linearGradient id="paint21_linear" x1="9699.15" y1="1811.47" x2="6452.18" y2="3362.09" gradientUnits="userSpaceOnUse">
<stop stop-color="#010101" stop-opacity="0"/>
<stop offset="0.95" stop-color="#010101"/>
</linearGradient>
<linearGradient id="paint22_linear" x1="2633.67" y1="2613.1" x2="2911.49" y2="2613.1" gradientUnits="userSpaceOnUse">
<stop stop-color="#E5C6D6"/>
<stop offset="0.42" stop-color="#EAD4D0"/>
<stop offset="1" stop-color="#F0E9CB"/>
</linearGradient>
<linearGradient id="paint23_linear" x1="2509.32" y1="1824.64" x2="2616.38" y2="1389.32" gradientUnits="userSpaceOnUse">
<stop stop-color="#010101" stop-opacity="0"/>
<stop offset="0.95" stop-color="#010101"/>
</linearGradient>
<linearGradient id="paint24_linear" x1="4767.64" y1="3516.69" x2="5832.04" y2="3516.69" gradientUnits="userSpaceOnUse">
<stop stop-color="#E5C6D6"/>
<stop offset="0.42" stop-color="#EAD4D0"/>
<stop offset="1" stop-color="#F0E9CB"/>
</linearGradient>
<linearGradient id="paint25_linear" x1="413.492" y1="1905.9" x2="523.69" y2="1905.9" gradientUnits="userSpaceOnUse">
<stop stop-color="#010101" stop-opacity="0"/>
<stop offset="0.95" stop-color="#010101"/>
</linearGradient>
<linearGradient id="paint26_linear" x1="9634.68" y1="16834.5" x2="-3611.23" y2="19426.1" gradientUnits="userSpaceOnUse">
<stop stop-color="#010101" stop-opacity="0"/>
<stop offset="0.95" stop-color="#010101"/>
</linearGradient>
<clipPath id="clip0">
<rect width="201" height="145" fill="white"/>
</clipPath>
</defs>
</svg>
