<svg width="280" height="220" viewBox="0 0 280 220" fill="none" xmlns="http://www.w3.org/2000/svg">
<path d="M108.555 183.585C90.1843 185.758 72.0792 189.768 54.5124 195.553C52.517 196.211 50.2741 197.141 49.6475 199.139C68.6904 201.559 87.9312 202.034 107.071 200.554C119.637 199.584 132.129 197.774 144.696 196.869C171.173 194.961 197.864 197.083 224.259 194.221C225.57 194.172 226.853 193.826 228.011 193.209C228.576 192.889 229.024 192.397 229.288 191.805C229.553 191.213 229.619 190.552 229.478 189.919C229.046 188.989 228.269 188.263 227.31 187.895C222.874 185.699 217.712 185.658 212.756 185.724C179.328 186.176 145.71 189.688 112.587 185.164" fill="url(#paint0_linear)"/>
<path d="M160.676 94.6095C146.658 88.136 131.973 81.7777 116.545 82.1807C110.872 82.3288 105.24 83.3981 99.5588 83.431C90.0838 83.4731 80.8173 80.6575 72.9746 75.3535C68.7363 89.9292 64.5365 104.516 60.3752 119.113C59.229 123.136 57.7035 127.257 56.9449 131.369C55.6916 138.172 71.1193 141.569 76.0833 142.194C81.8058 142.918 87.6273 142.359 93.3993 142.548C98.3097 142.587 103.15 143.711 107.574 145.838C111.878 148.026 116.891 149.235 121.476 150.954C132.764 155.174 144.671 158.802 156.677 157.724C168.683 156.646 180.87 149.869 185.133 138.624C186.147 135.951 186.691 133.121 187.607 130.399C189.965 123.53 197.452 114.573 189.569 108.905C181.175 102.81 170.076 98.9361 160.676 94.6095Z" fill="#0F3DB7"/>
<path d="M150.014 95.9011C144.02 93.1784 138.042 90.2913 131.635 88.7531C116.289 85.0927 99.8145 89.4852 84.5599 85.4629C83.8399 87.0811 82.5052 88.3479 80.8492 88.9849C79.1933 89.6219 77.3515 89.577 75.7288 88.86H75.6875C74.9867 91.5991 75.0031 94.9223 74.4589 97.8094C73.7773 101.385 72.9719 104.935 72.0429 108.461C70.2178 115.4 67.9315 122.209 65.199 128.844C66.5678 128.705 67.7222 130.037 67.9036 131.402C67.9713 132.778 67.6875 134.148 67.079 135.384C66.9883 135.597 71.4905 136.946 71.9192 137.029C73.5624 137.226 75.2235 137.226 76.8667 137.029C80.4453 136.741 83.925 135.713 87.4789 135.219C100.895 133.36 114.005 139.151 127.108 142.622C131.506 143.776 135.97 144.668 140.474 145.295C143.707 145.748 147.021 146.052 150.204 145.295C153.387 144.539 156.479 142.737 159.274 140.788C164.626 137.037 169.598 132.562 173.086 127.076C175.865 122.683 181.134 111.02 175.939 106.742C172.839 104.192 166.976 103.123 163.241 101.585C158.782 99.7753 154.374 97.8807 150.014 95.9011Z" fill="url(#paint1_linear)"/>
<path d="M145.933 98.1146C131.091 93.9031 115.572 89.8891 100.4 92.7104C94.8093 93.7468 89.4166 95.6798 83.8178 96.6011C74.4611 98.1169 64.8637 96.775 56.2853 92.7515C54.3778 107.815 52.5143 122.879 50.6947 137.943C50.1917 142.096 49.3342 146.398 49.227 150.585C49.0538 157.495 64.8197 158.449 69.8413 158.293C75.6133 158.112 81.2534 156.647 86.9759 155.948C91.832 155.191 96.7965 155.529 101.505 156.935C106.098 158.416 111.243 158.835 116.042 159.814C127.85 162.224 140.177 163.927 151.87 161.023C163.562 158.12 174.529 149.508 176.986 137.721C177.563 134.924 177.662 132.045 178.157 129.232C179.419 122.076 185.413 112.065 176.731 107.697C167.429 103.05 155.894 100.961 145.933 98.1146Z" fill="#0F3DB7"/>
<path d="M135.601 101.067C129.252 99.3069 122.894 97.3904 116.331 96.8721C100.598 95.6465 84.9968 102.556 69.3299 100.985C69.1024 101.837 68.7081 102.636 68.1699 103.336C67.6316 104.035 66.9599 104.622 66.1935 105.061C65.4271 105.501 64.5811 105.785 63.7043 105.897C62.8274 106.009 61.9369 105.947 61.0842 105.715C60.8203 108.536 61.3563 111.81 61.2656 114.763C61.1501 118.398 60.911 122.042 60.5482 125.661C59.834 132.799 58.6412 139.88 56.9778 146.859C58.3136 146.505 59.6659 147.681 60.0534 148.964C60.3266 150.316 60.25 151.714 59.8308 153.028C59.7731 153.258 64.4319 153.891 64.8689 153.891C66.5113 153.841 68.1418 153.596 69.7257 153.159C73.2219 152.337 76.4954 150.766 79.9256 149.721C92.8879 145.798 106.741 149.474 120.214 150.823C124.74 151.277 129.288 151.464 133.836 151.383C137.134 151.317 140.433 151.111 143.451 149.902C146.609 148.652 149.223 146.398 151.696 144.037C156.388 139.497 160.61 134.339 163.191 128.343C165.244 123.58 168.633 111.234 162.828 107.779C159.365 105.739 153.403 105.599 149.478 104.662C144.828 103.543 140.202 102.345 135.601 101.067Z" fill="url(#paint2_linear)"/>
<path d="M87.8088 148.808C87.4807 147.304 87.2385 145.782 87.0832 144.251C87.1077 142.737 87.265 141.229 87.5532 139.743C88.3118 134.24 87.5532 128.655 87.2233 123.103C86.8935 117.551 86.8605 111.817 88.9549 106.652C89.7319 104.511 91.0874 102.626 92.8717 101.206C94.999 99.6601 97.6954 99.1583 100.293 98.854C103.591 98.4674 107.054 98.3275 110.188 99.512C109.384 99.934 108.676 100.517 108.108 101.225C107.54 101.933 107.126 102.75 106.889 103.625C106.441 105.392 106.274 107.218 106.395 109.037C106.56 114.867 107.236 120.672 108.415 126.385C109.577 132.069 111.194 138.073 109.239 143.535C108.143 146.578 106.024 149.12 104.416 151.933C103.352 153.8 102.041 156.104 99.8805 156.046C99.2075 155.972 98.5458 155.817 97.9098 155.585C96.2985 155.265 94.6396 155.265 93.0283 155.585C91.9564 155.733 89.6393 156.515 88.6663 155.939C86.9842 155.018 88.0644 150.461 87.8088 148.808Z" fill="url(#paint3_linear)"/>
<path d="M203.719 99.167H108.11C101.069 99.167 95.3618 104.86 95.3618 111.884V179.506C95.3618 186.529 101.069 192.222 108.11 192.222H203.719C210.759 192.222 216.467 186.529 216.467 179.506V111.884C216.467 104.86 210.759 99.167 203.719 99.167Z" fill="#0F3DB7"/>
<path d="M203.719 99.167H108.11C101.069 99.167 95.3618 104.86 95.3618 111.884V179.506C95.3618 186.529 101.069 192.222 108.11 192.222H203.719C210.759 192.222 216.467 186.529 216.467 179.506V111.884C216.467 104.86 210.759 99.167 203.719 99.167Z" fill="#1E7CFF"/>
<path d="M216.467 119.978H95.3618V173.575H216.467V119.978Z" fill="#1E7CFF"/>
<path d="M214.117 140.508H167.149C162.222 140.508 158.227 144.492 158.227 149.408V156.26C158.227 161.175 162.222 165.16 167.149 165.16H214.117C219.044 165.16 223.039 161.175 223.039 156.26V149.408C223.039 144.492 219.044 140.508 214.117 140.508Z" fill="url(#paint4_linear)"/>
<path d="M215.436 133.566H168.468C163.541 133.566 159.546 137.551 159.546 142.466V149.318C159.546 154.234 163.541 158.218 168.468 158.218H215.436C220.363 158.218 224.358 154.234 224.358 149.318V142.466C224.358 137.551 220.363 133.566 215.436 133.566Z" fill="#0F3DB7"/>
<path d="M171.857 153.891C176.398 153.891 180.078 150.219 180.078 145.69C180.078 141.161 176.398 137.489 171.857 137.489C167.317 137.489 163.636 141.161 163.636 145.69C163.636 150.219 167.317 153.891 171.857 153.891Z" fill="url(#paint5_linear)"/>
<path d="M69.7504 193.275C79.5688 193.275 87.5282 185.335 87.5282 175.541C87.5282 165.747 79.5688 157.807 69.7504 157.807C59.932 157.807 51.9727 165.747 51.9727 175.541C51.9727 185.335 59.932 193.275 69.7504 193.275Z" fill="#F8C244"/>
<path d="M69.7589 190.668C78.1291 190.668 84.9145 183.899 84.9145 175.549C84.9145 167.199 78.1291 160.431 69.7589 160.431C61.3887 160.431 54.6033 167.199 54.6033 175.549C54.6033 183.899 61.3887 190.668 69.7589 190.668Z" fill="#E8A825"/>
<path d="M68.3653 185.066V182.64C67.0657 182.633 65.7931 182.269 64.6877 181.587L65.2649 179.942C66.2885 180.607 67.4821 180.963 68.7034 180.97C70.4268 180.97 71.5729 179.991 71.5729 178.626C71.5729 177.26 70.6412 176.487 68.8601 175.763C66.3864 174.801 64.8856 173.699 64.8856 171.651C64.8856 169.602 66.3039 168.146 68.522 167.785V165.366H70.0145V167.686C71.1085 167.697 72.1824 167.98 73.1396 168.508L72.5459 170.153C71.6326 169.606 70.5852 169.321 69.5197 169.331C67.6644 169.331 66.9718 170.441 66.9718 171.396C66.9718 172.646 67.8623 173.263 69.9485 174.135C72.4222 175.138 73.6756 176.388 73.6756 178.519C73.6676 179.552 73.2749 180.545 72.5739 181.305C71.8729 182.065 70.9136 182.538 69.8825 182.632V185.099L68.3653 185.066Z" fill="#F8C244"/>
<path d="M71.8781 168.303C70.5652 171.525 70.3792 175.095 71.3504 178.437C72.1007 180.986 73.5025 183.306 74.2611 185.839C74.5091 186.578 74.6154 187.357 74.5744 188.134C74.4178 189.689 73.3128 190.964 72.2656 192.124C73.6757 192.412 75.1022 191.762 76.3885 191.063C78.3845 190.087 80.1389 188.683 81.5256 186.95C82.479 185.54 83.1664 183.967 83.554 182.311C84.9228 177.207 84.9228 171.835 83.554 166.732C83.0346 164.832 80.9896 159.592 78.285 160.817C75.5804 162.043 72.9913 165.564 71.8781 168.303Z" fill="url(#paint6_linear)"/>
<path d="M91.4614 193.76C101.28 193.76 109.239 185.821 109.239 176.026C109.239 166.232 101.28 158.292 91.4614 158.292C81.643 158.292 73.6836 166.232 73.6836 176.026C73.6836 185.821 81.643 193.76 91.4614 193.76Z" fill="#F8C244"/>
<path d="M91.4615 191.145C99.8318 191.145 106.617 184.376 106.617 176.027C106.617 167.677 99.8318 160.908 91.4615 160.908C83.0913 160.908 76.3059 167.677 76.3059 176.027C76.3059 184.376 83.0913 191.145 91.4615 191.145Z" fill="#E8A825"/>
<path d="M84.3701 182.549L85.9038 180.666C84.8979 179.845 84.1389 178.764 83.7104 177.54L85.1699 176.652C85.5481 177.812 86.2521 178.84 87.1984 179.613C88.5342 180.69 90.0432 180.649 90.909 179.613C91.7748 178.576 91.5274 177.367 90.6039 175.689C89.301 173.394 88.8228 171.576 90.1339 169.931C91.4449 168.286 93.4321 168.105 95.3946 169.216L96.9201 167.332L98.0827 168.27L96.615 170.071C97.4581 170.771 98.1128 171.671 98.5197 172.687L97.0685 173.575C96.699 172.579 96.0631 171.703 95.2297 171.042C93.7867 169.874 92.5499 170.301 91.9314 171.042C91.1069 172.012 91.4449 173.057 92.5169 175.039C93.8114 177.375 93.9929 179.152 92.6488 180.797C91.9906 181.588 91.0632 182.109 90.044 182.261C89.0248 182.413 87.9852 182.185 87.1242 181.62L85.5245 183.52L84.3701 182.549Z" fill="#F8C244"/>
<path d="M199.34 92.2907C209.159 92.2907 217.118 84.3509 217.118 74.5565C217.118 64.7622 209.159 56.8223 199.34 56.8223C189.522 56.8223 181.562 64.7622 181.562 74.5565C181.562 84.3509 189.522 92.2907 199.34 92.2907Z" fill="#F8C244"/>
<path d="M199.34 89.6667C207.71 89.6667 214.496 82.8979 214.496 74.5482C214.496 66.1985 207.71 59.4297 199.34 59.4297C190.97 59.4297 184.185 66.1985 184.185 74.5482C184.185 82.8979 190.97 89.6667 199.34 89.6667Z" fill="#E8A825"/>
<path d="M200.247 84.1309L199.67 81.7784C198.405 82.0807 197.08 82.0266 195.844 81.6221L196.026 79.9194C197.179 80.3224 198.423 80.388 199.612 80.1086C201.262 79.7056 202.169 78.4635 201.847 77.1557C201.526 75.8478 200.429 75.2967 198.549 75.017C195.935 74.6551 194.203 73.9395 193.709 71.916C193.214 69.8925 194.253 68.1816 196.322 67.3097L195.745 64.9572L197.196 64.6035L197.749 66.8573C198.819 66.613 199.933 66.6412 200.99 66.9396L200.792 68.6422C199.775 68.327 198.69 68.2986 197.658 68.56C195.852 68.9959 195.44 70.2051 195.671 71.1675C195.968 72.3766 196.982 72.8126 199.217 73.1169C201.864 73.5118 203.34 74.433 203.876 76.5058C204.102 77.5082 203.949 78.5587 203.447 79.4558C202.945 80.3529 202.129 81.0336 201.154 81.3671L201.748 83.8348L200.247 84.1309Z" fill="#F8C244"/>
<path d="M173.375 111.76C179.237 115.457 186.131 117.187 193.049 116.695C191.226 123.014 190.204 129.535 190.006 136.108C189.888 137.228 190.058 138.361 190.501 139.398C191.251 140.821 192.876 141.545 194.426 141.981C197.196 142.763 200.092 143 202.952 142.68C201.908 137.248 201.242 131.752 200.957 126.229C200.825 121.729 201.204 117.246 201.319 112.755C201.369 110.839 201.74 108.355 201.319 106.479C200.899 104.604 198.846 103.584 197.559 102.366C195.506 100.4 193.981 97.9506 193.123 95.2431C192.58 93.7355 192.463 92.1077 192.785 90.5381C193.263 88.6956 194.616 87.1986 195.259 85.4136C195.902 83.6287 195.523 81.1117 193.676 80.6017C192.274 80.2151 190.559 81.1857 189.396 80.2974C188.984 79.9766 188.736 79.4748 188.299 79.1705C187.896 78.9621 187.434 78.8926 186.987 78.973C186.539 79.0533 186.131 79.2789 185.826 79.6146C185.235 80.3098 184.767 81.0996 184.44 81.9507C182.641 85.3739 179.882 88.2006 176.5 90.0857C174.376 91.3083 172.136 92.3168 169.813 93.0963C168.064 93.7132 165.302 93.8613 163.801 94.8648C162.086 96.0081 163.496 98.8953 164.255 100.738C166.138 105.229 169.311 109.064 173.375 111.76Z" fill="url(#paint7_linear)"/>
<path d="M198.763 140.887C198.936 141.093 199.161 141.25 199.414 141.34C203.026 142.935 207.116 142.985 211.074 142.985C211.333 143.01 211.595 142.967 211.833 142.861C212.04 142.711 212.187 142.491 212.246 142.242C212.305 141.993 212.272 141.731 212.154 141.504C211.894 141.064 211.521 140.7 211.074 140.451C209.921 139.693 208.707 139.03 207.446 138.469C206.448 138.033 205.327 137.556 204.923 136.552C204.767 136.016 204.673 135.464 204.642 134.907C204.263 132.596 200.627 133.731 199.406 134.907C198.318 136.018 197.947 139.727 198.763 140.887Z" fill="#FCAB9A"/>
<path d="M163.859 86.7883C163.859 86.7883 161.6 98.304 171.544 103.124C178.437 106.464 186.782 107.072 194.319 107.36C195.646 107.41 197.13 107.278 198.442 107.459C201.064 107.796 200.305 109.45 199.992 111.646C199.283 117.206 198.524 122.756 197.716 128.294C197.105 131.179 197.147 134.163 197.84 137.03L205.764 135.969C206.607 127.906 208.121 119.927 210.291 112.115C211.231 108.726 212.534 104.506 210.588 101.273C208.667 98.369 205.943 96.0831 202.746 94.693L182.824 85.4229L163.859 86.7883Z" fill="#473F47"/>
<path d="M191.111 55.9255C193.337 55.0207 195.877 54.1817 198.095 55.1029C198.657 55.3099 199.129 55.7054 199.431 56.2216C199.614 56.7308 199.625 57.2859 199.461 57.8016C199.297 58.3174 198.968 58.7651 198.524 59.0759C197.608 59.6669 196.577 60.0567 195.498 60.2192C193.585 60.6552 191.688 61.1898 189.817 61.8067C189.495 61.8971 189.187 62.0299 188.901 62.2016C188.587 62.4331 188.309 62.7103 188.077 63.0241C186.351 65.0804 184.376 66.9151 182.198 68.4859C182.791 68.0581 182.577 64.1346 182.734 63.3202C182.786 62.8208 182.959 62.3414 183.237 61.9231C183.516 61.5048 183.892 61.1601 184.333 60.9184C186.766 59.372 188.365 57.0441 191.111 55.9255Z" fill="#FCAB9A"/>
<path d="M185.677 35.3938C185.974 36.0847 186.708 36.5618 186.881 37.3103C187.054 38.0589 186.37 39.0048 185.941 39.852C185.372 40.9871 185.331 42.3197 184.754 43.4877C184.652 43.7411 184.477 43.9586 184.251 44.1128C184.039 44.2117 183.809 44.2676 183.575 44.2774C182.663 44.3506 181.746 44.2868 180.854 44.0882C180.691 44.0138 180.51 43.9908 180.334 44.0224C180.185 44.1227 180.079 44.2754 180.037 44.4501C179.222 46.651 178.956 49.0167 179.262 51.3431C179.361 52.0998 179.46 53.0375 178.842 53.4982C178.624 53.654 178.367 53.7453 178.1 53.7614C176.327 53.9588 174.801 52.4782 173.845 51.0141C172.972 49.6821 172.261 48.2519 171.726 46.7532C171.544 46.3203 171.446 45.857 171.437 45.3878C171.47 44.8344 171.61 44.2926 171.849 43.792C172.583 41.981 173.136 40.1019 173.498 38.1822C173.952 35.7146 174.15 33.1318 175.329 30.9602C175.718 30.2146 176.332 29.6101 177.085 29.2329C177.953 28.9578 178.879 28.9237 179.765 29.1342C181.595 29.2501 183.31 30.0629 184.556 31.4044C184.886 31.8897 185.298 34.5301 185.677 35.3938Z" fill="#FCAB9A"/>
<path d="M181.472 87.4214C180.179 88.2724 178.716 88.8336 177.184 89.0665C175.004 89.5695 172.908 90.381 170.959 91.4765C169.788 92.1757 168.996 93.3684 167.965 94.2568C167.146 94.9482 166.184 95.4506 165.148 95.7279C164.112 96.0051 163.027 96.0505 161.971 95.8608C161.872 95.5729 161.765 95.2767 161.666 94.9806C158.367 85.11 158.895 74.4168 159.876 64.2089C160.346 59.3723 164.156 43.8836 171.47 45.685C171.47 45.685 178.405 50.4641 180.26 53.7296C181.95 56.7484 184.383 59.1749 183.962 62.9011C183.352 68.1407 180.54 72.7717 180.268 78.2252C180.171 79.0151 180.268 79.8165 180.548 80.5613C181.051 81.6224 182.239 82.2557 182.734 83.3086C183.001 84.0376 183.023 84.834 182.795 85.5764C182.568 86.3188 182.103 86.9667 181.472 87.4214Z" fill="white"/>
<path d="M170.398 79.0306C170.555 79.7702 170.834 80.4788 171.222 81.1281C172.275 82.4596 173.796 83.3419 175.477 83.5957C177.379 84.0555 179.306 84.4043 181.249 84.6404C184.119 85.0023 186.419 86.2855 189.412 85.1668C191.466 84.2909 193.296 82.9637 194.764 81.2844C195.226 80.7991 195.588 79.8778 195.011 79.5735C194.851 79.5131 194.68 79.4851 194.508 79.4912H189.52C189.421 79.0964 189.709 78.718 189.907 78.3643C190.105 78.0106 190.188 77.4677 189.825 77.2703C189.462 77.0729 189.157 77.3279 188.876 77.5253C187.471 78.4763 185.858 79.0766 184.172 79.2755C182.486 79.4745 180.776 79.2664 179.188 78.6686C176.252 77.5582 176.03 73.9143 175.601 71.1258C175.597 70.7786 175.51 70.4372 175.348 70.1298C175.186 69.8224 174.954 69.5576 174.669 69.3573C174.436 69.272 174.189 69.2338 173.941 69.2451C173.693 69.2564 173.45 69.3169 173.226 69.4232C171.522 69.9556 170.08 71.1062 169.186 72.6476C168.452 74.2022 169.944 77.3114 170.398 79.0306Z" fill="#FCAB9A"/>
<path d="M171.956 55.4391C171.956 55.4391 176.805 68.1229 177.728 69.0524C178.652 69.9818 168.707 75.7315 168.707 75.7315C168.707 75.7315 162.061 63.3932 162.309 58.0466C162.556 52.7 168.221 50.4051 171.956 55.4391Z" fill="white"/>
<path d="M186.205 31.4295C184.663 33.7409 183.245 32.3425 181.488 30.7961L182 32.9677L178.99 34.3413L177.341 32.7949C177.737 34.6292 177.019 36.4964 176.426 38.2814C175.551 40.9053 174.941 43.7842 175.832 46.4C176.557 48.5386 178.256 50.4305 178.198 52.6843L174.686 49.394C173.863 48.5286 172.909 47.7985 171.857 47.2307C171.339 46.959 170.766 46.8075 170.18 46.7876C169.595 46.7677 169.013 46.8798 168.477 47.1156C168.006 47.4056 167.576 47.7569 167.199 48.1602C165.401 49.9369 163.348 51.6067 162.301 53.9674C161.377 56.0321 161.402 58.6231 159.827 60.4245C157.683 62.9497 153.601 62.2835 150.641 60.8111C148.594 59.888 146.807 58.4753 145.438 56.6983C144.748 55.7075 144.261 54.5907 144.004 53.4118C143.747 52.233 143.725 51.0151 143.941 49.828C144.156 48.6408 144.603 47.5076 145.258 46.4932C145.912 45.4787 146.761 44.6029 147.755 43.9158C148.503 43.399 149.322 42.9944 150.188 42.7149C151.631 42.2543 153.321 42.0651 154.245 40.8642C155.341 39.4329 154.739 37.4012 154.805 35.5998C154.86 34.4222 155.223 33.2792 155.856 32.2839C156.489 31.2885 157.372 30.4752 158.417 29.9242C161.328 28.4272 165.426 28.9454 167.339 26.2968C167.894 25.3181 168.384 24.3042 168.806 23.2615C170.563 19.9713 175.692 19.2146 178.347 21.8303C178.845 22.4744 179.471 23.0092 180.186 23.4014C180.742 23.565 181.322 23.6318 181.901 23.5988C182.859 23.5814 183.805 23.807 184.652 24.2544C185.499 24.7019 186.217 25.3565 186.741 26.1569C187.508 27.5141 187.17 29.8995 186.353 31.2156L186.205 31.4295Z" fill="#FC682D"/>
<path d="M198.17 138.461C197.573 139.421 197.331 140.558 197.485 141.677C197.511 142.037 197.649 142.379 197.881 142.656C198.135 142.869 198.438 143.016 198.763 143.084C202.878 144.35 207.156 145.009 211.462 145.041C212.021 145.075 212.581 145 213.111 144.819C213.373 144.728 213.608 144.573 213.794 144.367C213.98 144.162 214.111 143.913 214.174 143.643C214.208 143.27 214.14 142.895 213.977 142.557C213.444 141.304 212.435 140.313 211.17 139.801C209.906 139.289 208.489 139.298 207.232 139.826L207.083 139.892C206.651 140.137 206.195 140.338 205.723 140.493C205.253 140.574 204.774 140.574 204.304 140.493C203.091 140.353 201.891 140.114 200.717 139.777C199.845 139.384 198.994 138.945 198.17 138.461Z" fill="#473F47"/>
<defs>
<linearGradient id="paint0_linear" x1="140.878" y1="127.479" x2="137.973" y2="281.008" gradientUnits="userSpaceOnUse">
<stop offset="0.01"/>
<stop offset="0.13" stop-opacity="0.69"/>
<stop offset="0.25" stop-opacity="0.32"/>
<stop offset="1" stop-opacity="0"/>
</linearGradient>
<linearGradient id="paint1_linear" x1="34142.7" y1="-7041.3" x2="17374.2" y2="-29740.4" gradientUnits="userSpaceOnUse">
<stop offset="0.01"/>
<stop offset="0.13" stop-opacity="0.69"/>
<stop offset="0.25" stop-opacity="0.32"/>
<stop offset="1" stop-opacity="0"/>
</linearGradient>
<linearGradient id="paint2_linear" x1="27114.8" y1="-6368.04" x2="8192.08" y2="-25599.2" gradientUnits="userSpaceOnUse">
<stop offset="0.01"/>
<stop offset="0.13" stop-opacity="0.69"/>
<stop offset="0.25" stop-opacity="0.32"/>
<stop offset="1" stop-opacity="0"/>
</linearGradient>
<linearGradient id="paint3_linear" x1="5213.75" y1="6597.75" x2="111.343" y2="8079.69" gradientUnits="userSpaceOnUse">
<stop offset="0.01"/>
<stop offset="0.13" stop-opacity="0.69"/>
<stop offset="0.25" stop-opacity="0.32"/>
<stop offset="1" stop-opacity="0"/>
</linearGradient>
<linearGradient id="paint4_linear" x1="17377.7" y1="-4482.78" x2="17425.9" y2="-1284.09" gradientUnits="userSpaceOnUse">
<stop offset="0.01"/>
<stop offset="0.13" stop-opacity="0.69"/>
<stop offset="0.25" stop-opacity="0.32"/>
<stop offset="1" stop-opacity="0"/>
</linearGradient>
<linearGradient id="paint5_linear" x1="3849.93" y1="-2861.13" x2="4743.49" y2="-823.249" gradientUnits="userSpaceOnUse">
<stop offset="0.01"/>
<stop offset="0.13" stop-opacity="0.69"/>
<stop offset="0.25" stop-opacity="0.32"/>
<stop offset="1" stop-opacity="0"/>
</linearGradient>
<linearGradient id="paint6_linear" x1="2289.89" y1="3522.4" x2="990.072" y2="3397.68" gradientUnits="userSpaceOnUse">
<stop offset="0.01"/>
<stop offset="0.13" stop-opacity="0.69"/>
<stop offset="0.25" stop-opacity="0.32"/>
<stop offset="1" stop-opacity="0"/>
</linearGradient>
<linearGradient id="paint7_linear" x1="238.706" y1="39.4165" x2="87.8136" y2="256.597" gradientUnits="userSpaceOnUse">
<stop offset="0.01"/>
<stop offset="0.08" stop-opacity="0.69"/>
<stop offset="0.21" stop-opacity="0.32"/>
<stop offset="1" stop-opacity="0"/>
</linearGradient>
</defs>
</svg>
