<svg width="272" height="201" viewBox="0 0 272 201" fill="none" xmlns="http://www.w3.org/2000/svg">
<path d="M190.179 114.525C190.179 114.525 193.072 121.833 177.881 126.361C162.691 130.889 154.353 148.8 154.681 163.867V173.581C154.681 173.581 201.917 190.996 241.973 174.923C241.973 174.923 245.83 134.23 218.445 124.684C218.445 124.684 212.768 123.007 214.433 116.299C214.433 116.299 227.457 108.927 225.117 89.4995C222.777 70.0722 215.34 64.0415 207.651 63.6029C176.602 61.8291 176.493 102.69 190.179 114.525Z" fill="#F7AF87"/>
<path d="M245.727 174.587C245.727 174.587 246.305 146.207 241.606 136.571C237.64 128.425 227.406 126.335 218.766 123.671C218.286 123.491 217.772 123.421 217.262 123.465C216.63 123.627 216.048 123.942 215.565 124.38C210.868 127.927 205.035 129.617 199.177 129.128C193.318 128.639 187.844 126.006 183.795 121.729C173.433 124.896 165.326 124.832 159.888 134.236C154.45 143.64 151.756 162.003 152.778 172.826C152.752 172.833 199.442 191.815 245.727 174.587Z" fill="#0F3DB7"/>
<path d="M163.726 134.501C163.726 134.501 171.569 126.432 174.725 126.394C177.881 126.355 197.224 181.405 197.224 181.405L168.354 180.025L163.726 134.501Z" fill="url(#paint0_linear)"/>
<path d="M180.639 66.6091C182.445 60.5848 186.932 54.9991 193.046 53.5995C194.872 53.1802 196.755 53.148 198.594 52.7932C199.712 52.5739 200.805 52.245 201.911 51.9677C206.444 50.768 211.215 50.8126 215.725 52.0966C220.253 53.4138 224.135 56.3663 226.622 60.3848C228.884 64.2548 229.521 68.873 229.193 73.3363C228.865 77.7997 226.287 85.7074 225.072 90.0095C222.912 87.1715 224.352 79.122 221.331 77.2257C219.184 75.8776 216.42 76.4904 213.919 76.9161C208.12 77.9159 202.176 77.6963 196.466 76.2711C193.759 75.5874 190.982 74.6328 188.25 75.1875C185.878 75.6648 185.036 77.4901 183.75 79.5154C182.838 80.915 182.291 87.9003 181.513 89.2613C179.7 88.6163 179.347 77.5482 179.366 75.955C179.352 72.7952 179.78 69.6491 180.639 66.6091Z" fill="#404040"/>
<path d="M226.757 88.1517C227.045 87.8771 227.385 87.664 227.757 87.5254C228.13 87.3868 228.526 87.3256 228.923 87.3455C229.226 87.4113 229.511 87.5446 229.755 87.7355C230 87.9264 230.199 88.17 230.337 88.4484C230.611 89.0073 230.76 89.6191 230.775 90.2415C230.922 92.7292 230.112 95.1789 228.512 97.0849C227.631 98.1169 226.32 99.0199 225.002 98.7038C224.738 98.6569 224.495 98.5284 224.308 98.3362C224.164 98.1556 224.058 97.9469 223.999 97.7234C223.486 95.772 223.451 93.7252 223.896 91.7572C224.044 90.8994 224.128 90.0609 224.848 89.5062C225.445 89.0418 226.14 88.6161 226.757 88.1517Z" fill="#F7AF87"/>
<path d="M95.3015 117.673C96.3172 117.505 97.4229 117.279 98.085 116.492C98.5688 115.793 98.8431 114.97 98.8757 114.119C100.116 104.76 103.568 77.1864 94.3758 61.384C93.0901 59.1265 89.773 58.6041 87.9859 56.869C83.7946 52.7411 78.4269 47.7359 71.0084 47.7875C53.2274 47.9101 45.134 56.7401 37.8506 73.0197C33.4278 82.8946 32.065 112.803 35.7292 115.699C39.5862 118.75 49.7432 118.505 54.5259 118.982C68.1167 120.327 81.8242 119.887 95.3015 117.673Z" fill="#404040"/>
<path d="M87.748 71.7297C88.0864 71.2645 88.5261 70.8829 89.0337 70.6139C90.5315 69.8786 92.3444 70.7429 93.5336 71.9039C95.0341 73.4917 96.0782 75.4576 96.555 77.5927C97.0115 79.7114 97.2272 81.8752 97.1978 84.0427C97.2364 86.7044 97.155 89.366 96.9536 92.0277C96.7481 95.9429 95.9325 99.8016 94.5365 103.464C93.0386 107.082 90.5894 110.391 87.2338 112.384C84.7395 103.431 84.5081 94.0272 84.296 84.7393C84.2574 83.2622 84.2253 81.7916 84.2574 80.3211C84.2574 79.7406 84.0967 78.6183 84.3731 78.1023C84.6495 77.5863 85.1445 77.6895 85.5945 77.3476C86.3081 76.8123 86.1859 75.819 86.3466 75.0063C86.5952 73.8325 87.0713 72.7192 87.748 71.7297Z" fill="url(#paint1_linear)"/>
<path d="M40.6599 90.8091C40.0054 90.8994 39.3818 91.1448 38.8406 91.525C38.3796 91.9399 38.0209 92.4566 37.7928 93.0343C36.7782 95.2718 36.3074 97.719 36.4192 100.175C36.5309 102.63 37.222 105.024 38.4356 107.16C38.4356 107.16 41.4634 103.902 41.727 103.567C42.7698 102.208 43.6946 100.763 44.4912 99.2456C45.2176 97.8589 49.0297 91.4283 47.1076 90.6349C45.8926 90.1383 42.1256 90.4995 40.6599 90.8091Z" fill="url(#paint2_linear)"/>
<path d="M45.0119 114.525C43.604 111.255 43.8869 107.521 44.369 103.993C44.7997 100.923 45.4233 97.762 47.2168 95.2401C48.8868 93.0268 51.1831 91.3701 53.806 90.4865C56.4134 89.6184 59.1288 89.1191 61.8736 89.003C65.8169 88.732 69.776 88.7967 73.7084 89.1965C76.4761 89.385 79.1925 90.0391 81.7439 91.1315C85.2156 92.8351 87.9817 95.7064 89.5609 99.2455C91.1174 102.782 91.6456 106.689 91.0845 110.514C90.9578 112.16 90.3695 113.736 89.3873 115.061C88.2368 116.244 86.7849 117.087 85.1896 117.499C79.404 119.356 73.2713 119.215 67.28 118.976C62.3108 118.782 57.2902 119.066 52.3981 118.099C49.531 117.538 46.3233 117.583 45.0119 114.525Z" fill="url(#paint3_linear)"/>
<path d="M106.455 174.917C66.3735 190.997 19.163 173.575 19.163 173.575V163.9C18.803 148.794 27.16 130.876 42.3633 126.361C57.5665 121.847 56.5058 116.564 56.5058 116.564C42.8261 104.735 41.0776 61.8361 72.1462 63.6163C79.8603 64.0549 87.2852 70.0663 89.6123 89.5193C91.9394 108.972 76.7554 117.467 76.7554 117.467C76.5508 118.422 76.6237 119.416 76.9656 120.331C77.3074 121.245 77.9038 122.042 78.6839 122.627C79.9424 123.601 81.3864 124.305 82.9267 124.697C110.28 134.224 106.455 174.917 106.455 174.917Z" fill="#F7AF87"/>
<path d="M55.2588 91.9824C61.3144 91.9824 67.4343 91.1117 72.982 88.6865C78.5297 86.2613 83.4732 82.1656 86.3017 76.8057C87.2561 75.1238 87.8084 73.2427 87.9152 71.3103C87.986 67.6596 85.6782 64.2476 82.6118 62.2804C79.5454 60.3131 75.8362 59.6036 72.2042 59.4488C64.3807 59.1199 56.3002 61.3322 50.3475 66.4341C47.8808 68.5355 45.8674 71.1197 44.4304 74.0287C42.9935 76.9377 42.1632 80.1103 41.9905 83.3524C41.7012 90.4344 49.4861 91.976 55.2588 91.9824Z" fill="#404040"/>
<path d="M110.177 174.587C110.177 174.587 107.123 151.425 102.424 141.77C98.4578 133.624 91.8494 126.335 83.2096 123.678C82.7296 123.498 82.2158 123.427 81.7053 123.471C81.0753 123.633 80.4947 123.947 80.0146 124.387C75.3177 127.934 69.4848 129.624 63.6266 129.135C57.7683 128.646 52.2938 126.013 48.2453 121.736C37.8907 124.954 29.1336 131.985 23.7337 141.415C18.2952 150.813 16.2317 162.01 17.2281 172.833C17.2281 172.833 63.8857 191.815 110.177 174.587Z" fill="#0F3DB7"/>
<path d="M76.8519 180.715C76.8519 180.715 59.0644 182.695 55.4517 180.883C55.4517 180.883 64.4515 132.347 85.871 125.361C85.871 125.361 95.1537 126.909 102.424 141.77C104.539 146.085 76.8519 180.715 76.8519 180.715Z" fill="url(#paint4_linear)"/>
<path d="M76.9033 190.887V161.501C76.9033 161.501 83.9167 135.056 108.287 132.025C132.657 128.993 159.027 133.031 159.027 133.031C159.027 133.031 184.74 136.378 189.401 168.196V193.319C189.401 193.319 124.641 212.101 76.9033 190.887Z" fill="#0F3DB7"/>
<path d="M109.174 97.9037C108.133 97.2587 106.853 96.8137 105.709 97.2587C105.235 97.4452 104.811 97.7388 104.468 98.1166C102.662 100.052 102.765 103.064 103.337 105.644C103.655 107.092 104.085 108.513 104.623 109.894C104.847 110.534 105.17 111.135 105.581 111.674C106.866 113.203 109.116 113.409 111.096 113.177C112.266 113.042 113.571 112.687 114.105 111.629C114.288 111.223 114.393 110.785 114.413 110.339C114.947 105.121 113.725 100.664 109.174 97.9037Z" fill="#F7AF87"/>
<path d="M158.197 100.019C159.657 99.0001 161.553 98.2132 163.192 98.9227C163.834 99.2481 164.379 99.7358 164.775 100.338C165.171 100.939 165.403 101.635 165.449 102.354C165.523 103.793 165.272 105.231 164.716 106.559C164.151 108.266 163.268 109.849 162.112 111.223C160.939 112.6 159.281 113.469 157.484 113.648C156.59 113.718 155.695 113.53 154.904 113.108C154.112 112.685 153.457 112.045 153.016 111.262C152.58 110.215 152.378 109.086 152.425 107.953C152.345 107.082 152.443 106.204 152.714 105.373C153.421 103.599 156.7 101.064 158.197 100.019Z" fill="#F7AF87"/>
<path d="M118.129 134.869C117.558 135.853 117.224 136.957 117.152 138.094C117.194 138.762 117.355 139.417 117.628 140.029C119.98 145.834 124.853 148.762 129.552 150.116C130.963 150.557 132.428 150.798 133.904 150.832C138.34 150.832 142.724 147.775 145.392 142.841C145.548 142.588 145.647 142.304 145.681 142.009C145.666 141.625 145.558 141.251 145.366 140.919C143.708 137.332 144.01 132.708 144.447 128.496C144.514 128.148 144.492 127.788 144.383 127.451C144.317 127.323 144.226 127.21 144.116 127.118C144.005 127.026 143.877 126.957 143.74 126.916C140.866 125.703 137.781 126.458 134.74 126.342C130.562 126.187 126.512 124.258 122.327 124.252C120.462 124.252 120.321 124.949 120.058 127.29C119.826 129.904 119.174 132.463 118.129 134.869Z" fill="#F7AF87"/>
<path d="M118.18 122.801C118.18 122.801 120.591 132.282 126.435 138.494C132.278 144.705 146.112 143.518 144.479 137.971C143.103 133.321 145.681 122.801 145.681 122.801H118.18Z" fill="url(#paint5_linear)"/>
<path d="M180.601 87.7963C179.958 87.1513 179.206 86.5063 178.299 86.4482C177.945 86.449 177.595 86.5293 177.276 86.6833C176.957 86.8373 176.676 87.0612 176.454 87.3383C176.012 87.901 175.718 88.5665 175.599 89.2733C175.295 90.9862 175.43 92.7485 175.991 94.3946C176.634 96.407 177.785 98.4452 179.739 99.2127C180.075 99.3755 180.448 99.4486 180.821 99.4248C181.193 99.4011 181.554 99.2814 181.867 99.0773C182.288 98.6544 182.549 98.0981 182.606 97.5035C183.371 93.7044 183.493 90.6214 180.601 87.7963Z" fill="#F7AF87"/>
<path d="M156.687 104.922C154.842 120.473 146.228 133.301 133.319 133.301C120.411 133.301 109.952 120.602 109.952 104.922C109.952 89.2418 118.251 71.5625 131.166 71.5625C144.08 71.5625 160.46 73.1363 156.687 104.922Z" fill="#F7AF87"/>
<path d="M106.429 99.7941C105.572 93.6409 105.009 87.4532 104.739 81.2312C104.623 78.4899 104.668 75.4262 106.5 73.4074C106.983 72.9653 107.414 72.4698 107.786 71.9303C108.09 71.2383 108.258 70.4936 108.281 69.7373C108.975 63.8614 113.211 58.953 118.071 55.6055C123.396 51.9467 129.571 49.7254 136 49.1555C138.067 48.93 140.156 49.0192 142.197 49.42C144.248 49.9223 146.218 50.715 148.047 51.7742C150.953 53.3545 153.749 55.2637 155.813 57.8501C157.876 60.4365 159.142 63.7969 158.705 67.08C160.122 67.6879 161.394 68.5895 162.439 69.7255C163.484 70.8616 164.277 72.2064 164.767 73.6718C165.715 76.7121 166.017 79.9177 165.654 83.0823C165.012 90.6159 162.157 98.3494 156.166 102.929C156.263 97.6619 155.099 92.4486 152.772 87.7263C151.882 86.1168 151.073 84.4635 150.348 82.7727C149.666 80.9626 149.334 79.0382 149.371 77.1032C146.864 78.4448 145.392 81.1925 143.026 82.7792C141.513 83.6989 139.837 84.3145 138.089 84.5916C132.466 85.7058 126.663 85.5027 121.131 83.9982C118.945 83.4048 116.162 82.7856 114.786 84.5916C113.931 85.7074 114.079 87.2554 113.963 88.6615C113.773 90.1938 113.404 91.6983 112.864 93.1442L109.457 103.464C108.3 102.477 106.648 101.31 106.429 99.7941Z" fill="#404040"/>
<path d="M78.787 122.903C67.9808 129.85 60.4531 118.072 60.106 117.485C62.6438 118.91 65.5034 119.658 68.4115 119.658C71.3196 119.658 74.1792 118.91 76.717 117.485C76.5124 118.44 76.5853 119.434 76.9272 120.349C77.2691 121.264 77.8655 122.061 78.6456 122.645L78.787 122.903Z" fill="url(#paint6_linear)"/>
<path d="M180.504 94.7816C180.054 94.1946 179.578 93.4916 179.797 92.7692C180.015 92.0468 180.774 91.6727 180.78 90.9761C180.766 90.7782 180.71 90.5856 180.615 90.4111C180.521 90.2365 180.391 90.084 180.234 89.9634C179.865 89.622 179.391 89.4152 178.891 89.3765C178.718 89.3636 178.546 89.4017 178.396 89.4861C178.225 89.6097 178.097 89.7832 178.029 89.9828C177.277 91.6727 177.528 93.6593 178.19 95.3878C178.301 95.7162 178.473 96.0205 178.698 96.2844C179.015 96.5749 179.399 96.7811 179.816 96.8842C180.459 97.0906 181.218 97.0971 181.365 96.2908C181.475 95.7103 180.8 95.1943 180.504 94.7816Z" fill="url(#paint7_linear)"/>
<path d="M226.281 94.9115C226.731 94.3246 227.207 93.6215 226.988 92.8991C226.769 92.1767 226.011 91.8026 225.998 91.106C226.014 90.9078 226.072 90.7152 226.167 90.5408C226.262 90.3663 226.393 90.2139 226.551 90.0934C226.919 89.7498 227.393 89.5427 227.894 89.5065C228.065 89.4933 228.235 89.5315 228.383 89.6161C228.555 89.7393 228.685 89.9127 228.756 90.1128C229.502 91.8026 229.251 93.7892 228.589 95.5178C228.489 95.8963 228.284 96.2384 227.997 96.5035C227.71 96.7687 227.353 96.9459 226.969 97.0142C226.326 97.2206 225.567 97.227 225.413 96.4208C225.31 95.8532 225.959 95.3243 226.281 94.9115Z" fill="url(#paint8_linear)"/>
<path d="M156.725 107.159C157.437 107.242 158.154 107.068 158.75 106.669C159.062 106.522 159.333 106.3 159.541 106.024C160.068 105.192 159.489 104.038 159.869 103.135C160.056 102.806 160.316 102.526 160.63 102.315C160.943 102.105 161.301 101.97 161.675 101.922C161.938 101.835 162.222 101.835 162.485 101.922C162.681 102.054 162.839 102.236 162.943 102.449C163.047 102.662 163.093 102.898 163.077 103.135C163.207 105.179 162.554 107.196 161.251 108.772C160.599 109.547 159.796 110.181 158.892 110.636C157.988 111.09 157.002 111.356 155.992 111.416C155.889 111.431 155.785 111.415 155.69 111.371C155.587 111.302 155.514 111.196 155.485 111.075C155.28 110.491 155.232 109.864 155.345 109.257C155.458 108.649 155.728 108.081 156.127 107.611" fill="url(#paint9_linear)"/>
<path d="M106.333 104.496C106.628 104.992 107.226 105.186 107.721 105.476C108.217 105.775 108.628 106.195 108.918 106.697C109.208 107.199 109.367 107.766 109.38 108.346C109.417 108.729 109.331 109.113 109.135 109.443C108.938 109.773 108.641 110.031 108.287 110.178C107.573 110.378 106.86 109.868 106.358 109.32C105.711 108.596 105.212 107.752 104.89 106.834C104.568 105.917 104.429 104.945 104.481 103.973C104.52 103.328 104.796 101.703 105.825 102.038C106.648 102.328 105.934 103.825 106.333 104.496Z" fill="url(#paint10_linear)"/>
<path d="M108.653 84.7784C107.966 85.7349 107.558 86.8654 107.477 88.0421C107.347 89.742 107.408 91.4511 107.657 93.1376L108.628 101.903C109.836 97.7106 112.691 94.0535 113.34 89.7384C113.546 88.3646 113.507 86.9327 113.944 85.604C114.137 85.0235 115.281 83.5916 114.857 83.024C114.433 82.4564 111.996 82.9079 111.36 83.0885C110.305 83.3569 109.359 83.9474 108.653 84.7784Z" fill="url(#paint11_linear)"/>
<path d="M156.655 70.1436C156.752 70.088 156.865 70.0654 156.976 70.0791C157.117 70.1114 157.201 70.2468 157.278 70.3758C158.757 72.9107 160.261 75.4971 160.91 78.3673C161.247 79.9541 161.383 81.5773 161.315 83.1983C161.15 88.6502 159.469 93.9472 156.462 98.4912C155.857 96.4853 155.922 94.331 155.44 92.2863C154.797 89.5129 153.183 87.0812 151.775 84.6044C150.49 82.3469 148.246 78.535 149.879 76.0711C151.501 73.4643 153.86 71.4009 156.655 70.1436Z" fill="url(#paint12_linear)"/>
<path d="M190.179 114.525C190.179 114.525 193.837 119.002 201.795 119.24C210.383 119.498 214.433 116.312 214.433 116.312C214.433 116.312 210.647 124.697 201.191 126.567C195.206 127.767 188.475 125.187 187.273 122.052C187.273 122.085 191.195 118.428 190.179 114.525Z" fill="url(#paint13_linear)"/>
<path d="M118.354 132.43C118.354 132.43 120.675 143.55 128.922 146.136C137.17 148.723 144.132 140.447 144.389 135.016C144.646 129.586 145.938 131.146 145.938 131.146L148.002 132.436V152.87L132.278 150.535L116.811 154.934C116.811 154.934 112.684 136.306 115.005 131.134" fill="#0F3DB7"/>
<defs>
<linearGradient id="paint0_linear" x1="138.642" y1="136.204" x2="279.274" y2="208.293" gradientUnits="userSpaceOnUse">
<stop stop-opacity="0"/>
<stop offset="0.99"/>
</linearGradient>
<linearGradient id="paint1_linear" x1="82.3803" y1="96.6459" x2="104.165" y2="77.71" gradientUnits="userSpaceOnUse">
<stop stop-opacity="0"/>
<stop offset="0.6" stop-opacity="0.36"/>
<stop offset="0.99"/>
</linearGradient>
<linearGradient id="paint2_linear" x1="764.551" y1="3486.16" x2="836.839" y2="2856.29" gradientUnits="userSpaceOnUse">
<stop stop-opacity="0"/>
<stop offset="0.99"/>
</linearGradient>
<linearGradient id="paint3_linear" x1="5087.63" y1="5497.67" x2="5064.39" y2="7137.21" gradientUnits="userSpaceOnUse">
<stop stop-opacity="0"/>
<stop offset="0.99"/>
</linearGradient>
<linearGradient id="paint4_linear" x1="3999.06" y1="14805.7" x2="10581.3" y2="17637.9" gradientUnits="userSpaceOnUse">
<stop stop-opacity="0"/>
<stop offset="0.99"/>
</linearGradient>
<linearGradient id="paint5_linear" x1="5398.62" y1="5280.9" x2="6096.75" y2="3910.08" gradientUnits="userSpaceOnUse">
<stop stop-opacity="0"/>
<stop offset="0.99"/>
</linearGradient>
<linearGradient id="paint6_linear" x1="2031.33" y1="1935.76" x2="2057.1" y2="1641.35" gradientUnits="userSpaceOnUse">
<stop stop-opacity="0"/>
<stop offset="0.99"/>
</linearGradient>
<linearGradient id="paint7_linear" x1="1225.59" y1="1476.33" x2="1294.48" y2="1478.04" gradientUnits="userSpaceOnUse">
<stop stop-opacity="0"/>
<stop offset="0.99"/>
</linearGradient>
<linearGradient id="paint8_linear" x1="5904.86" y1="1477.99" x2="5835.97" y2="1479.71" gradientUnits="userSpaceOnUse">
<stop stop-opacity="0"/>
<stop offset="0.99"/>
</linearGradient>
<linearGradient id="paint9_linear" x1="2157.79" y1="2078.22" x2="1926.9" y2="1994.32" gradientUnits="userSpaceOnUse">
<stop stop-opacity="0"/>
<stop offset="0.99"/>
</linearGradient>
<linearGradient id="paint10_linear" x1="905.353" y1="1782.24" x2="995.444" y2="1755.16" gradientUnits="userSpaceOnUse">
<stop stop-opacity="0"/>
<stop offset="0.99"/>
</linearGradient>
<linearGradient id="paint11_linear" x1="1446.04" y1="3793.07" x2="1170.64" y2="3323.45" gradientUnits="userSpaceOnUse">
<stop stop-opacity="0"/>
<stop offset="0.6" stop-opacity="0.36"/>
<stop offset="0.99"/>
</linearGradient>
<linearGradient id="paint12_linear" x1="3265.04" y1="4339.58" x2="2630.63" y2="4640.11" gradientUnits="userSpaceOnUse">
<stop stop-opacity="0"/>
<stop offset="0.6" stop-opacity="0.36"/>
<stop offset="0.99"/>
</linearGradient>
<linearGradient id="paint13_linear" x1="8844.84" y1="3169.8" x2="8737.56" y2="2102.93" gradientUnits="userSpaceOnUse">
<stop stop-opacity="0"/>
<stop offset="0.99"/>
</linearGradient>
</defs>
</svg>
