<svg width="254" height="213" viewBox="0 0 254 213" fill="none" xmlns="http://www.w3.org/2000/svg">
<path d="M123.916 189.826C151.792 189.826 174.39 186.442 174.39 182.269C174.39 178.095 151.792 174.712 123.916 174.712C96.0403 174.712 73.4424 178.095 73.4424 182.269C73.4424 186.442 96.0403 189.826 123.916 189.826Z" fill="url(#paint0_linear)"/>
<path d="M125.972 76.1865H121.282C107.259 76.1865 93.8099 81.7545 83.8939 91.6656C73.9778 101.577 68.407 115.019 68.407 129.035V133.722C68.407 147.739 73.9778 161.181 83.8939 171.092C93.8099 181.003 107.259 186.571 121.282 186.571H125.972C139.996 186.571 153.445 181.003 163.361 171.092C173.277 161.181 178.848 147.739 178.848 133.722V129.035C178.848 115.019 173.277 101.577 163.361 91.6656C153.445 81.7545 139.996 76.1865 125.972 76.1865ZM175.799 133.204C175.799 139.732 174.513 146.196 172.014 152.228C169.515 158.259 165.852 163.739 161.234 168.355C156.616 172.972 151.133 176.634 145.099 179.132C139.065 181.63 132.597 182.916 126.066 182.916H121.668C115.136 182.917 108.668 181.631 102.633 179.133C96.5987 176.635 91.1154 172.974 86.4967 168.357C81.878 163.741 78.2144 158.26 75.7151 152.229C73.2158 146.197 71.9297 139.732 71.9304 133.204V128.793C71.931 122.266 73.2181 115.802 75.718 109.772C78.218 103.742 81.8819 98.2629 86.5005 93.6479C91.1191 89.033 96.602 85.3726 102.636 82.8757C108.67 80.3788 115.137 79.0944 121.668 79.0957H126.066C132.596 79.095 139.063 80.38 145.096 82.8772C151.13 85.3743 156.612 89.0349 161.23 93.6497C165.848 98.2645 169.512 103.743 172.011 109.773C174.511 115.803 175.798 122.266 175.799 128.793V133.204Z" fill="#0F3DB7"/>
<path opacity="0.24" d="M175.799 128.793V133.204C175.799 134.72 175.739 136.222 175.601 137.689C174.481 150.046 168.778 161.538 159.612 169.907C150.446 178.276 138.48 182.916 126.066 182.916H121.668C109.256 182.913 97.294 178.271 88.1313 169.902C78.9687 161.534 73.2676 150.044 72.1479 137.689C72.0095 136.207 71.9502 134.725 71.9502 133.204V128.793C71.9515 115.614 77.1899 102.975 86.5133 93.655C95.8368 84.3353 108.482 79.0983 121.668 79.0957H126.066C132.596 79.0951 139.063 80.38 145.096 82.8772C151.13 85.3744 156.612 89.0349 161.23 93.6497C165.848 98.2646 169.512 103.743 172.011 109.773C174.511 115.803 175.798 122.266 175.799 128.793Z" fill="#0F3DB7"/>
<path opacity="0.24" d="M175.601 137.689C174.481 150.046 168.778 161.538 159.612 169.907C150.446 178.276 138.481 182.916 126.066 182.916H121.668C109.256 182.912 97.2941 178.271 88.1314 169.902C78.9688 161.534 73.2677 150.044 72.1479 137.689C73.267 125.33 78.9707 113.837 88.1379 105.469C97.3051 97.1004 109.273 92.4622 121.688 92.4658H126.086C138.497 92.4683 150.458 97.1093 159.62 105.477C168.782 113.845 174.482 125.334 175.601 137.689Z" fill="#0F3DB7"/>
<path d="M123.808 151.785C130.688 151.785 136.266 146.21 136.266 139.333C136.266 132.457 130.688 126.882 123.808 126.882C116.927 126.882 111.35 132.457 111.35 139.333C111.35 146.21 116.927 151.785 123.808 151.785Z" fill="#E8A825"/>
<path d="M122.592 151.118C129.472 151.118 135.05 145.543 135.05 138.666C135.05 131.79 129.472 126.215 122.592 126.215C115.712 126.215 110.134 131.79 110.134 138.666C110.134 145.543 115.712 151.118 122.592 151.118Z" fill="#F8C244"/>
<path d="M122.592 149.275C128.454 149.275 133.207 144.525 133.207 138.666C133.207 132.807 128.454 128.057 122.592 128.057C116.73 128.057 111.977 132.807 111.977 138.666C111.977 144.525 116.73 149.275 122.592 149.275Z" fill="#E8A825"/>
<path d="M118.515 144.054L119.336 142.573C118.539 142.131 117.882 141.476 117.438 140.681L118.332 139.891C118.742 140.647 119.359 141.271 120.111 141.689C121.159 142.266 122.197 142.049 122.661 141.195C123.126 140.34 122.81 139.565 121.96 138.523C120.779 137.105 120.22 135.915 120.927 134.635C121.633 133.356 122.983 132.956 124.465 133.485L125.285 132.003L126.2 132.497L125.409 133.924C126.08 134.301 126.643 134.844 127.045 135.5L126.14 136.27C125.764 135.625 125.217 135.097 124.559 134.744C123.422 134.122 122.617 134.561 122.296 135.154C121.871 135.92 122.207 136.606 123.2 137.841C124.381 139.298 124.727 140.483 124 141.792C123.363 142.958 121.95 143.605 120.289 143.017L119.449 144.553L118.515 144.054Z" fill="#F8C244"/>
<path d="M102.247 156.723C109.128 156.723 114.705 151.149 114.705 144.272C114.705 137.395 109.128 131.82 102.247 131.82C95.3671 131.82 89.7896 137.395 89.7896 144.272C89.7896 151.149 95.3671 156.723 102.247 156.723Z" fill="#E8A825"/>
<path d="M101.229 155.785C108.11 155.785 113.687 150.21 113.687 143.333C113.687 136.457 108.11 130.882 101.229 130.882C94.3491 130.882 88.7715 136.457 88.7715 143.333C88.7715 150.21 94.3491 155.785 101.229 155.785Z" fill="#F8C244"/>
<path d="M101.229 153.943C107.092 153.943 111.844 149.193 111.844 143.334C111.844 137.475 107.092 132.725 101.229 132.725C95.3671 132.725 90.6147 137.475 90.6147 143.334C90.6147 149.193 95.3671 153.943 101.229 153.943Z" fill="#E8A825"/>
<path d="M95.9912 147.601L97.1426 146.351C96.4727 145.734 95.9884 144.942 95.7441 144.064L96.8017 143.506C97.0158 144.339 97.4673 145.092 98.1013 145.674C98.9809 146.484 100.043 146.524 100.696 145.813C101.348 145.101 101.224 144.267 100.646 143.052C99.8358 141.397 99.5788 140.088 100.567 139.026C101.556 137.964 102.964 137.89 104.278 138.75L105.425 137.495L106.196 138.201L105.089 139.407C105.652 139.928 106.071 140.587 106.304 141.318L105.257 141.851C105.038 141.138 104.63 140.498 104.076 139.999C103.122 139.12 102.237 139.362 101.783 139.856C101.19 140.503 101.353 141.249 102.025 142.681C102.826 144.375 102.875 145.615 101.862 146.716C100.963 147.704 99.4405 147.991 97.9679 147.028L96.7819 148.317L95.9912 147.601Z" fill="#F8C244"/>
<path d="M145.734 155.924C152.614 155.924 158.192 150.349 158.192 143.472C158.192 136.595 152.614 131.021 145.734 131.021C138.853 131.021 133.276 136.595 133.276 143.472C133.276 150.349 138.853 155.924 145.734 155.924Z" fill="#E8A825"/>
<path d="M144.424 156.378C151.304 156.378 156.882 150.803 156.882 143.926C156.882 137.049 151.304 131.475 144.424 131.475C137.544 131.475 131.966 137.049 131.966 143.926C131.966 150.803 137.544 156.378 144.424 156.378Z" fill="#F8C244"/>
<path d="M144.424 154.536C150.287 154.536 155.039 149.786 155.039 143.927C155.039 138.067 150.287 133.317 144.424 133.317C138.562 133.317 133.81 138.067 133.81 143.927C133.81 149.786 138.562 154.536 144.424 154.536Z" fill="#E8A825"/>
<path d="M145.704 150.559L145.146 148.954C144.284 149.25 143.356 149.299 142.467 149.097V147.902C143.304 148.108 144.183 148.069 144.998 147.789C146.124 147.393 146.663 146.48 146.347 145.571C146.03 144.662 145.235 144.371 143.876 144.306C142.033 144.232 140.777 143.852 140.293 142.464C139.809 141.076 140.426 139.817 141.805 139.071L141.247 137.466L142.235 137.125L142.774 138.666C143.502 138.419 144.281 138.363 145.037 138.503L145.002 139.688C144.27 139.539 143.511 139.594 142.808 139.846C141.588 140.271 141.38 141.165 141.603 141.822C141.889 142.652 142.621 142.859 144.202 142.953C146.075 143.047 147.167 143.59 147.661 145.003C148.101 146.257 147.636 147.739 146.09 148.579L146.668 150.233L145.704 150.559Z" fill="#F8C244"/>
<path d="M149.568 82.2319C149.568 86.7462 136.132 90.4209 119.568 90.4209C103.003 90.4209 89.5523 86.7462 89.5523 82.2319C89.5523 81.244 88.8012 75.401 89.8389 73.9736C89.6502 74.3225 89.5517 74.713 89.5523 75.1096C89.5523 79.6438 102.989 83.3036 119.568 83.3036C135.93 83.3036 149.218 79.7327 149.554 75.2776C149.919 77.7027 149.568 81.3774 149.568 82.2319Z" fill="#0F3DB7"/>
<path opacity="0.37" d="M149.568 82.2319C149.568 86.7462 136.132 90.4209 119.568 90.4209C103.003 90.4209 89.5523 86.7462 89.5523 82.2319C89.5523 81.244 88.8012 75.401 89.8389 73.9736C89.6502 74.3225 89.5517 74.713 89.5523 75.1096C89.5523 79.6438 102.989 83.3036 119.568 83.3036C135.93 83.3036 149.218 79.7327 149.554 75.2776C149.919 77.7027 149.568 81.3774 149.568 82.2319Z" fill="url(#paint1_linear)"/>
<path d="M149.554 75.267C149.232 79.7123 135.929 83.2931 119.568 83.2931C102.989 83.2931 89.5522 79.6332 89.5522 75.0991C89.5516 74.7025 89.6501 74.312 89.8389 73.9631C91.9144 69.9674 104.427 66.9199 119.588 66.9199C133.869 66.9199 145.818 69.6463 148.822 73.3062C148.94 73.4106 149.038 73.5342 149.114 73.6717C149.348 74.1755 149.496 74.7146 149.554 75.267Z" fill="#0F3DB7"/>
<path d="M149.568 75.0995C149.576 75.1552 149.576 75.2116 149.568 75.2674C149.507 74.7087 149.351 74.1644 149.109 73.6572C149.409 74.078 149.57 74.5825 149.568 75.0995Z" fill="#0F3DB7"/>
<path opacity="0.37" d="M130.677 73.3115H107.955V75.1785H130.677V73.3115Z" fill="url(#paint2_linear)"/>
<path d="M112.65 68.1056C120.155 68.1056 126.239 62.0245 126.239 54.523C126.239 47.0216 120.155 40.9404 112.65 40.9404C105.144 40.9404 99.0601 47.0216 99.0601 54.523C99.0601 62.0245 105.144 68.1056 112.65 68.1056Z" fill="#E8A825"/>
<path d="M111.142 68.1056C118.647 68.1056 124.732 62.0245 124.732 54.523C124.732 47.0216 118.647 40.9404 111.142 40.9404C103.637 40.9404 97.5527 47.0216 97.5527 54.523C97.5527 62.0245 103.637 68.1056 111.142 68.1056Z" fill="#F8C244"/>
<path d="M111.142 66.0959C117.537 66.0959 122.72 60.9148 122.72 54.5236C122.72 48.1323 117.537 42.9512 111.142 42.9512C104.748 42.9512 99.564 48.1323 99.564 54.5236C99.564 60.9148 104.748 66.0959 111.142 66.0959Z" fill="#E8A825"/>
<path d="M110.08 61.8136V59.9565C109.086 59.9564 108.111 59.6775 107.268 59.1514L107.708 57.9216C108.497 58.4315 109.417 58.7041 110.357 58.7069C111.661 58.7069 112.541 57.9561 112.541 56.909C112.541 55.8619 111.824 55.2742 110.465 54.721C108.592 53.99 107.431 53.1454 107.431 51.5451C107.431 49.9449 108.518 48.8632 110.208 48.5817V46.7295H111.345V48.5125C112.184 48.5162 113.008 48.7374 113.737 49.1546L113.277 50.3647C112.576 49.9489 111.774 49.7336 110.959 49.7424C109.546 49.7424 109.012 50.587 109.012 51.3179C109.012 52.2761 109.694 52.7552 111.291 53.4121C113.183 54.1876 114.142 55.1408 114.142 56.7757C114.142 58.2278 113.154 59.586 111.236 59.8972V61.8087L110.08 61.8136Z" fill="#F8C244"/>
<path d="M107.293 40.2937C114.173 40.2937 119.751 34.719 119.751 27.8422C119.751 20.9654 114.173 15.3906 107.293 15.3906C100.413 15.3906 94.835 20.9654 94.835 27.8422C94.835 34.719 100.413 40.2937 107.293 40.2937Z" fill="#E8A825"/>
<path d="M105.909 40.2937C112.789 40.2937 118.367 34.719 118.367 27.8422C118.367 20.9654 112.789 15.3906 105.909 15.3906C99.0288 15.3906 93.4512 20.9654 93.4512 27.8422C93.4512 34.719 99.0288 40.2937 105.909 40.2937Z" fill="#F8C244"/>
<path d="M105.909 38.4509C111.771 38.4509 116.524 33.701 116.524 27.8417C116.524 21.9823 111.771 17.2324 105.909 17.2324C100.047 17.2324 95.2944 21.9823 95.2944 27.8417C95.2944 33.701 100.047 38.4509 105.909 38.4509Z" fill="#E8A825"/>
<path d="M104.936 34.5248V32.8405C104.024 32.8377 103.131 32.5812 102.356 32.0997L102.761 30.9735C103.485 31.4396 104.327 31.6898 105.188 31.6946C106.384 31.6946 107.194 31.0032 107.194 30.045C107.194 29.0868 106.537 28.5632 105.287 28.0397C103.572 27.368 102.509 26.5925 102.509 25.1305C102.509 23.6686 103.498 22.661 105.054 22.419V20.7051H106.097V22.335C106.865 22.3419 107.619 22.546 108.286 22.9277L107.866 24.039C107.228 23.6545 106.496 23.4529 105.751 23.4562C104.451 23.4562 103.962 24.2316 103.962 24.9033C103.962 25.7776 104.585 26.2171 106.053 26.8197C107.787 27.531 108.662 28.4052 108.662 29.9017C108.662 31.2353 107.738 32.48 106.003 32.7664V34.5149L104.936 34.5248Z" fill="#F8C244"/>
<path d="M85.505 26.4929C92.3853 26.4929 97.9628 20.9182 97.9628 14.0414C97.9628 7.16459 92.3853 1.58984 85.505 1.58984C78.6247 1.58984 73.0471 7.16459 73.0471 14.0414C73.0471 20.9182 78.6247 26.4929 85.505 26.4929Z" fill="#E8A825"/>
<path d="M84.1214 26.4929C91.0017 26.4929 96.5793 20.9182 96.5793 14.0414C96.5793 7.16459 91.0017 1.58984 84.1214 1.58984C77.2411 1.58984 71.6636 7.16459 71.6636 14.0414C71.6636 20.9182 77.2411 26.4929 84.1214 26.4929Z" fill="#F8C244"/>
<path d="M84.1215 24.6511C89.9838 24.6511 94.7361 19.9012 94.7361 14.0419C94.7361 8.18254 89.9838 3.43262 84.1215 3.43262C78.2592 3.43262 73.5068 8.18254 73.5068 14.0419C73.5068 19.9012 78.2592 24.6511 84.1215 24.6511Z" fill="#E8A825"/>
<path d="M83.1478 20.725V19.0111C82.2373 19.0092 81.3454 18.7525 80.5732 18.2702L80.9735 17.1441C81.6963 17.6122 82.5386 17.8626 83.3999 17.8652C84.5957 17.8652 85.4062 17.1787 85.4062 16.2155C85.4062 15.2524 84.7489 14.7338 83.5036 14.2399C81.7839 13.5632 80.7215 12.7927 80.7215 11.3258C80.7215 9.85887 81.7098 8.85623 83.2664 8.61421V6.90527H84.3091V8.54013C85.0708 8.55064 85.8173 8.75459 86.4785 9.13282L86.0584 10.2441C85.4181 9.86151 84.6845 9.66323 83.9385 9.67119C82.6388 9.67119 82.1496 10.4466 82.1496 11.1184C82.1496 11.9926 82.7723 12.4322 84.2399 13.0397C85.9744 13.746 86.8491 14.6202 86.8491 16.1217C86.8491 17.4503 85.925 18.695 84.1905 18.9814V20.7299L83.1478 20.725Z" fill="#F8C244"/>
<path d="M140.125 180.125C132.619 180.017 126.57 177.448 126.615 174.391C126.615 174.05 126.358 172.139 126.506 171.818C127.687 169.249 133.607 168.948 140.283 169.042C146.846 169.136 152.355 169.042 153.586 171.576C153.764 171.936 153.793 174.391 153.789 174.776C153.749 177.838 147.626 180.229 140.125 180.125Z" fill="#E8A825"/>
<path d="M153.691 172.222C153.735 169.161 147.687 166.594 140.182 166.486C132.678 166.379 126.559 168.773 126.515 171.833C126.471 174.893 132.519 177.461 140.024 177.568C147.528 177.676 153.647 175.282 153.691 172.222Z" fill="#F8C244"/>
<path d="M151.68 172.193C151.717 169.585 146.564 167.397 140.171 167.306C133.777 167.214 128.563 169.254 128.526 171.862C128.489 174.469 133.641 176.657 140.035 176.749C146.429 176.84 151.643 174.8 151.68 172.193Z" fill="#E8A825"/>
<path d="M132.801 171.477L134.659 171.501C134.695 171.259 134.788 171.03 134.932 170.832C135.076 170.634 135.265 170.474 135.485 170.365L136.71 170.563C136.498 170.661 136.312 170.809 136.17 170.995C136.028 171.181 135.934 171.399 135.895 171.63C135.895 172.158 136.636 172.529 137.684 172.543C138.087 172.575 138.493 172.519 138.873 172.378C139.253 172.238 139.597 172.016 139.883 171.728C140.629 170.973 141.484 170.513 143.08 170.538C144.676 170.563 145.758 171.032 146.02 171.714L147.878 171.738V172.203L146.094 172.178C146.065 172.378 145.99 172.568 145.877 172.735C145.763 172.902 145.613 173.041 145.437 173.141L144.226 172.939C144.4 172.845 144.549 172.71 144.66 172.547C144.771 172.384 144.841 172.196 144.864 172C144.864 171.427 144.029 171.195 143.297 171.185C142.9 171.163 142.503 171.232 142.137 171.388C141.771 171.544 141.446 171.782 141.187 172.084C140.407 172.845 139.443 173.22 137.807 173.2C136.359 173.176 135.005 172.746 134.704 171.97L132.792 171.941L132.801 171.477Z" fill="#F8C244"/>
<path d="M191.241 182.278C183.735 182.175 177.686 179.606 177.731 176.544C177.731 176.203 177.474 174.297 177.622 173.976C178.808 171.407 184.728 171.101 191.4 171.195C197.967 171.289 203.477 171.195 204.707 173.729C204.88 174.094 204.915 176.549 204.91 176.929C204.87 179.992 198.753 182.387 191.241 182.278Z" fill="#E8A825"/>
<path d="M204.817 174.377C204.861 171.317 198.813 168.749 191.309 168.641C183.804 168.534 177.685 170.928 177.641 173.988C177.597 177.048 183.645 179.616 191.15 179.724C198.654 179.831 204.773 177.437 204.817 174.377Z" fill="#F8C244"/>
<path d="M202.806 174.348C202.844 171.741 197.691 169.553 191.297 169.461C184.903 169.37 179.69 171.409 179.652 174.017C179.615 176.624 184.768 178.812 191.162 178.904C197.556 178.995 202.769 176.956 202.806 174.348Z" fill="#E8A825"/>
<path d="M183.928 173.63L185.781 173.659C185.817 173.418 185.911 173.188 186.055 172.991C186.198 172.793 186.387 172.633 186.606 172.523L187.837 172.721C187.625 172.819 187.44 172.967 187.3 173.153C187.159 173.339 187.067 173.557 187.031 173.788C187.031 174.321 187.772 174.692 188.82 174.707C189.224 174.737 189.629 174.679 190.008 174.539C190.388 174.398 190.733 174.177 191.019 173.892C191.765 173.136 192.615 172.677 194.211 172.696C195.807 172.716 196.89 173.19 197.176 173.872H199.029V174.336H197.245C197.22 174.54 197.147 174.736 197.033 174.907C196.919 175.079 196.767 175.221 196.588 175.324L195.382 175.116C195.555 175.022 195.702 174.888 195.813 174.726C195.924 174.564 195.995 174.378 196.02 174.183C196.02 173.605 195.185 173.378 194.448 173.368C194.052 173.345 193.655 173.414 193.29 173.57C192.925 173.726 192.601 173.965 192.343 174.267C191.558 175.028 190.599 175.403 188.963 175.378C187.51 175.378 186.156 174.929 185.855 174.148L183.943 174.124L183.928 173.63Z" fill="#F8C244"/>
<path d="M193.297 177.428C185.791 177.319 179.742 174.756 179.787 171.694C179.787 171.353 179.53 169.446 179.678 169.125C180.859 166.552 186.779 166.251 193.455 166.345C200.023 166.438 205.528 166.345 206.763 168.878C206.936 169.244 206.971 171.699 206.961 172.079C206.921 175.141 200.798 177.556 193.297 177.428Z" fill="#E8A825"/>
<path d="M206.868 169.521C206.912 166.461 200.864 163.893 193.36 163.786C185.855 163.679 179.736 166.072 179.692 169.133C179.648 172.193 185.696 174.761 193.201 174.868C200.705 174.976 206.825 172.582 206.868 169.521Z" fill="#F8C244"/>
<path d="M204.857 169.493C204.895 166.885 199.742 164.697 193.348 164.606C186.954 164.514 181.74 166.554 181.703 169.161C181.666 171.769 186.819 173.957 193.213 174.048C199.606 174.14 204.82 172.1 204.857 169.493Z" fill="#E8A825"/>
<path d="M185.978 168.78L187.831 168.81C187.864 168.567 187.957 168.336 188.101 168.138C188.245 167.94 188.436 167.78 188.657 167.674L189.887 167.871C189.674 167.968 189.489 168.116 189.349 168.302C189.208 168.489 189.116 168.707 189.082 168.938C189.082 169.472 189.818 169.842 190.866 169.857C191.27 169.888 191.676 169.831 192.055 169.689C192.435 169.548 192.78 169.325 193.065 169.037C193.811 168.286 194.666 167.827 196.262 167.847C197.858 167.866 198.94 168.341 199.227 169.022H201.08V169.486H199.296C199.269 169.69 199.196 169.885 199.082 170.057C198.968 170.228 198.816 170.371 198.639 170.474L197.428 170.267C197.601 170.174 197.749 170.04 197.86 169.878C197.971 169.715 198.042 169.529 198.065 169.333C198.065 168.756 197.235 168.528 196.499 168.513C196.101 168.492 195.704 168.562 195.338 168.719C194.972 168.876 194.647 169.115 194.389 169.417C193.608 170.178 192.649 170.553 191.014 170.529C189.561 170.529 188.207 170.074 187.906 169.299L185.993 169.274L185.978 168.78Z" fill="#F8C244"/>
<path d="M189.843 173.008C182.341 172.904 176.293 170.336 176.337 167.274C176.337 166.933 176.08 165.026 176.224 164.705C177.41 162.137 183.33 161.831 190.001 161.924C196.568 162.018 202.078 161.924 203.309 164.458C203.487 164.824 203.516 167.278 203.511 167.659C203.467 170.721 197.349 173.112 189.843 173.008Z" fill="#E8A825"/>
<path d="M203.414 165.106C203.458 162.046 197.41 159.478 189.906 159.371C182.401 159.264 176.282 161.657 176.238 164.718C176.194 167.778 182.243 170.346 189.747 170.453C197.252 170.561 203.371 168.167 203.414 165.106Z" fill="#F8C244"/>
<path d="M201.404 165.078C201.441 162.47 196.288 160.282 189.894 160.191C183.5 160.099 178.287 162.139 178.249 164.746C178.212 167.354 183.365 169.542 189.759 169.633C196.153 169.725 201.366 167.685 201.404 165.078Z" fill="#E8A825"/>
<path d="M182.524 164.359L184.382 164.389C184.417 164.148 184.51 163.918 184.653 163.721C184.796 163.523 184.984 163.362 185.203 163.253L186.433 163.45C186.221 163.548 186.037 163.697 185.896 163.883C185.755 164.069 185.663 164.287 185.628 164.517C185.628 165.051 186.369 165.421 187.416 165.436C187.82 165.467 188.226 165.41 188.605 165.27C188.985 165.129 189.33 164.908 189.615 164.621C190.362 163.865 191.212 163.406 192.813 163.426C194.335 163.45 195.486 163.92 195.753 164.601L197.611 164.626V165.09L195.832 165.066C195.806 165.27 195.733 165.465 195.619 165.636C195.505 165.808 195.353 165.95 195.175 166.053L193.964 165.846C194.137 165.753 194.286 165.619 194.396 165.457C194.507 165.294 194.578 165.108 194.602 164.912C194.602 164.335 193.766 164.107 193.035 164.098C192.638 164.075 192.241 164.144 191.875 164.3C191.508 164.456 191.183 164.694 190.925 164.996C190.144 165.757 189.181 166.132 187.545 166.108C186.092 166.108 184.738 165.658 184.437 164.878L182.529 164.853L182.524 164.359Z" fill="#F8C244"/>
<path d="M191.241 168.696C183.735 168.587 177.686 166.023 177.731 162.961C177.731 162.62 177.474 160.714 177.622 160.393C178.808 157.82 184.728 157.518 191.4 157.612C197.967 157.706 203.477 157.612 204.707 160.146C204.88 160.511 204.915 162.966 204.91 163.346C204.87 166.409 198.753 168.804 191.241 168.696Z" fill="#E8A825"/>
<path d="M204.819 160.792C204.863 157.732 198.815 155.164 191.31 155.056C183.806 154.949 177.686 157.343 177.643 160.403C177.599 163.463 183.647 166.031 191.151 166.139C198.656 166.246 204.775 163.852 204.819 160.792Z" fill="#F8C244"/>
<path d="M202.808 160.763C202.845 158.156 197.692 155.968 191.298 155.876C184.904 155.785 179.691 157.824 179.654 160.432C179.616 163.04 184.769 165.227 191.163 165.319C197.557 165.41 202.77 163.371 202.808 160.763Z" fill="#E8A825"/>
<path d="M183.928 160.048L185.781 160.077C185.817 159.836 185.911 159.606 186.055 159.409C186.198 159.211 186.387 159.051 186.606 158.941L187.837 159.139C187.625 159.237 187.44 159.385 187.3 159.571C187.159 159.757 187.067 159.975 187.031 160.206C187.031 160.739 187.772 161.11 188.82 161.125C189.224 161.155 189.629 161.097 190.008 160.957C190.388 160.816 190.733 160.595 191.019 160.31C191.765 159.554 192.615 159.095 194.211 159.114C195.807 159.134 196.89 159.608 197.176 160.29H199.029V160.764H197.245C197.22 160.968 197.147 161.164 197.033 161.335C196.919 161.507 196.767 161.649 196.588 161.752L195.382 161.544C195.555 161.45 195.702 161.316 195.813 161.154C195.924 160.992 195.995 160.806 196.02 160.611C196.02 160.033 195.185 159.806 194.448 159.796C194.052 159.773 193.655 159.842 193.29 159.998C192.925 160.154 192.601 160.393 192.343 160.695C191.558 161.455 190.599 161.831 188.963 161.806C187.51 161.806 186.156 161.357 185.855 160.576L183.943 160.552L183.928 160.048Z" fill="#F8C244"/>
<path d="M191.241 164.113C183.735 164.004 177.686 161.436 177.731 158.378C177.731 158.037 177.474 156.126 177.622 155.805C178.808 153.237 184.728 152.935 191.4 153.029C197.967 153.123 203.477 153.029 204.707 155.563C204.88 155.923 204.915 158.378 204.91 158.763C204.87 161.821 198.753 164.221 191.241 164.113Z" fill="#E8A825"/>
<path d="M204.819 156.207C204.863 153.147 198.815 150.579 191.31 150.472C183.806 150.364 177.687 152.758 177.643 155.818C177.599 158.879 183.647 161.446 191.152 161.554C198.656 161.661 204.775 159.267 204.819 156.207Z" fill="#F8C244"/>
<path d="M202.808 156.178C202.846 153.571 197.693 151.383 191.299 151.291C184.905 151.2 179.691 153.24 179.654 155.847C179.617 158.455 184.77 160.643 191.163 160.734C197.557 160.825 202.771 158.786 202.808 156.178Z" fill="#E8A825"/>
<path d="M183.928 155.464L185.781 155.489C185.817 155.247 185.911 155.017 186.055 154.82C186.198 154.622 186.387 154.462 186.606 154.353L187.837 154.55C187.625 154.649 187.442 154.798 187.301 154.983C187.161 155.169 187.068 155.387 187.031 155.617C187.031 156.15 187.772 156.521 188.82 156.536C189.224 156.567 189.629 156.51 190.009 156.369C190.388 156.229 190.733 156.007 191.019 155.721C191.765 154.965 192.615 154.506 194.211 154.53C195.807 154.555 196.89 155.024 197.176 155.706L199.029 155.731V156.195L197.245 156.17C197.217 156.37 197.143 156.561 197.029 156.728C196.915 156.895 196.764 157.034 196.588 157.133L195.382 156.931C195.555 156.836 195.704 156.702 195.814 156.538C195.925 156.375 195.996 156.188 196.02 155.992C196.02 155.419 195.185 155.187 194.448 155.177C194.052 155.154 193.655 155.224 193.29 155.38C192.925 155.536 192.601 155.774 192.343 156.076C191.558 156.837 190.599 157.212 188.963 157.193C187.51 157.193 186.156 156.738 185.855 155.963L183.943 155.933L183.928 155.464Z" fill="#F8C244"/>
<path d="M219.221 180.935C212.673 180.841 207.395 178.599 207.43 175.931C207.43 175.635 207.208 173.956 207.336 173.689C208.369 171.447 213.533 171.18 219.354 171.264C225.086 171.348 229.895 171.264 230.967 173.477C231.12 173.793 231.15 175.946 231.145 176.267C231.105 178.939 225.768 181.014 219.221 180.935Z" fill="#E8A825"/>
<path d="M230.12 173.183C230.147 170.512 224.861 168.294 218.313 168.229C211.766 168.163 206.437 170.275 206.41 172.946C206.383 175.616 211.669 177.834 218.217 177.9C224.764 177.965 230.093 175.853 230.12 173.183Z" fill="#F8C244"/>
<path d="M229.304 174.019C229.336 171.744 224.841 169.835 219.263 169.756C213.685 169.676 209.137 171.455 209.104 173.73C209.072 176.005 213.567 177.913 219.145 177.993C224.723 178.073 229.271 176.294 229.304 174.019Z" fill="#E8A825"/>
<path d="M212.831 173.388L214.452 173.413C214.484 173.203 214.565 173.003 214.69 172.831C214.814 172.659 214.979 172.52 215.169 172.425L216.241 172.598C216.057 172.684 215.897 172.815 215.774 172.977C215.652 173.14 215.571 173.33 215.539 173.531C215.539 173.995 216.187 174.317 217.101 174.331C217.453 174.356 217.806 174.306 218.137 174.183C218.467 174.061 218.768 173.869 219.018 173.62C219.375 173.249 219.811 172.963 220.293 172.784C220.776 172.604 221.293 172.536 221.805 172.583C223.14 172.583 224.143 172.998 224.375 173.605L225.996 173.63V174.035L224.444 174.01C224.417 174.185 224.352 174.351 224.253 174.497C224.154 174.643 224.023 174.765 223.871 174.855L222.813 174.672C222.964 174.589 223.092 174.471 223.187 174.329C223.283 174.186 223.342 174.023 223.362 173.852C223.362 173.358 222.631 173.151 221.993 173.141C221.647 173.12 221.3 173.18 220.981 173.316C220.662 173.452 220.379 173.661 220.155 173.926C219.468 174.588 218.633 174.914 217.19 174.914C215.925 174.914 214.719 174.524 214.477 173.842H212.812L212.831 173.388Z" fill="#F8C244"/>
<path d="M220.441 177.172C213.894 177.078 208.616 174.841 208.656 172.169C208.656 171.872 208.433 170.193 208.562 169.926C209.594 167.684 214.759 167.422 220.58 167.501C226.307 167.585 231.115 167.501 232.188 169.714C232.346 170.03 232.371 172.183 232.366 172.504C232.331 175.177 226.989 177.266 220.441 177.172Z" fill="#E8A825"/>
<path d="M232.281 170.276C232.32 167.605 227.044 165.365 220.497 165.271C213.95 165.178 208.612 167.266 208.574 169.937C208.536 172.607 213.812 174.847 220.358 174.941C226.905 175.035 232.243 172.946 232.281 170.276Z" fill="#F8C244"/>
<path d="M230.527 170.25C230.56 167.975 226.065 166.067 220.487 165.987C214.909 165.907 210.361 167.687 210.328 169.961C210.295 172.236 214.791 174.145 220.369 174.225C225.947 174.304 230.495 172.525 230.527 170.25Z" fill="#E8A825"/>
<path d="M214.057 169.654H215.673C215.705 169.443 215.787 169.244 215.912 169.072C216.038 168.9 216.203 168.761 216.394 168.666L217.467 168.839C217.281 168.923 217.12 169.052 216.998 169.214C216.875 169.376 216.795 169.567 216.765 169.767C216.765 170.232 217.412 170.558 218.321 170.568C218.674 170.596 219.029 170.547 219.361 170.424C219.693 170.301 219.994 170.108 220.244 169.856C220.6 169.485 221.036 169.199 221.519 169.019C222.001 168.839 222.518 168.771 223.031 168.819C224.36 168.819 225.368 169.239 225.6 169.842L227.216 169.866V170.271L225.66 170.247C225.635 170.422 225.571 170.589 225.471 170.735C225.372 170.882 225.24 171.004 225.087 171.091L224.034 170.913C224.184 170.83 224.313 170.712 224.409 170.57C224.505 170.427 224.566 170.264 224.587 170.093C224.587 169.6 223.861 169.392 223.219 169.382C222.875 169.363 222.531 169.422 222.214 169.554C221.896 169.687 221.613 169.89 221.385 170.148C220.703 170.81 219.863 171.136 218.42 171.136C217.15 171.136 215.949 170.74 215.707 170.064L214.042 170.039L214.057 169.654Z" fill="#F8C244"/>
<path d="M220.441 173.171C213.894 173.077 208.616 170.84 208.656 168.168C208.656 167.871 208.433 166.192 208.562 165.925C209.594 163.683 214.759 163.421 220.58 163.5C226.307 163.584 231.115 163.5 232.188 165.713C232.346 166.029 232.371 168.182 232.366 168.504C232.331 171.176 226.989 173.265 220.441 173.171Z" fill="#E8A825"/>
<path d="M232.282 166.278C232.32 163.607 227.044 161.367 220.497 161.273C213.951 161.18 208.613 163.268 208.574 165.939C208.536 168.609 213.812 170.849 220.359 170.943C226.906 171.037 232.244 168.948 232.282 166.278Z" fill="#F8C244"/>
<path d="M230.528 166.252C230.56 163.977 226.065 162.069 220.487 161.989C214.909 161.909 210.361 163.688 210.328 165.963C210.296 168.238 214.791 170.147 220.369 170.227C225.947 170.306 230.495 168.527 230.528 166.252Z" fill="#E8A825"/>
<path d="M214.057 165.624L215.673 165.649C215.704 165.438 215.786 165.238 215.912 165.066C216.038 164.894 216.203 164.755 216.394 164.661L217.467 164.829C217.282 164.915 217.121 165.045 216.998 165.208C216.876 165.371 216.796 165.561 216.765 165.763C216.765 166.227 217.412 166.553 218.321 166.563C218.674 166.591 219.029 166.542 219.361 166.419C219.693 166.297 219.995 166.103 220.244 165.851C220.6 165.48 221.036 165.194 221.519 165.014C222.001 164.835 222.518 164.766 223.031 164.814C224.36 164.814 225.368 165.234 225.601 165.837L227.216 165.861V166.266L225.66 166.242C225.635 166.417 225.571 166.584 225.472 166.731C225.372 166.877 225.24 166.999 225.087 167.086L224.034 166.908C224.184 166.825 224.313 166.707 224.409 166.565C224.505 166.422 224.566 166.259 224.588 166.089C224.588 165.595 223.861 165.387 223.219 165.377C222.872 165.358 222.527 165.419 222.208 165.556C221.889 165.692 221.606 165.899 221.38 166.163C220.698 166.824 219.858 167.15 218.415 167.15C217.145 167.15 215.945 166.755 215.702 166.079L214.037 166.054L214.057 165.624Z" fill="#F8C244"/>
<path d="M155.987 168.938C148.788 171.052 142.25 170.385 141.385 167.457C141.291 167.131 140.476 165.382 140.525 165.036C140.896 162.231 146.455 160.191 152.879 158.309C159.18 156.462 164.413 154.733 166.34 156.803C166.617 157.094 167.373 159.435 167.482 159.801C168.327 162.74 163.187 166.819 155.987 168.938Z" fill="#E8A825"/>
<path d="M155.123 166.519C162.324 164.405 167.462 160.31 166.599 157.374C165.736 154.437 159.199 153.771 151.998 155.885C144.797 157.999 139.659 162.093 140.522 165.03C141.385 167.966 147.922 168.633 155.123 166.519Z" fill="#F8C244"/>
<path d="M154.655 166.114C160.794 164.324 165.178 160.844 164.447 158.34C163.717 155.837 158.148 155.258 152.009 157.048C145.871 158.837 141.487 162.318 142.217 164.821C142.948 167.324 148.516 167.903 154.655 166.114Z" fill="#E8A825"/>
<path d="M146.44 162.838L148.219 162.314C148.179 162.073 148.2 161.825 148.279 161.593C148.359 161.361 148.494 161.152 148.674 160.986L149.905 160.813C149.731 160.968 149.599 161.164 149.52 161.383C149.44 161.602 149.416 161.837 149.45 162.067C149.603 162.561 150.438 162.714 151.427 162.418C151.822 162.328 152.193 162.154 152.513 161.907C152.834 161.659 153.097 161.345 153.285 160.986C153.779 160.047 154.451 159.356 155.988 158.906C157.47 158.477 158.686 158.575 159.145 159.158L160.924 158.635L161.058 159.079L159.348 159.573C159.379 159.773 159.364 159.978 159.304 160.171C159.244 160.365 159.141 160.542 159.002 160.689L157.786 160.852C157.926 160.714 158.031 160.544 158.091 160.356C158.151 160.169 158.165 159.97 158.132 159.776C157.969 159.223 157.1 159.252 156.393 159.46C156.007 159.555 155.649 159.738 155.346 159.995C155.043 160.252 154.805 160.576 154.648 160.941C154.125 161.9 153.314 162.542 151.748 163.001C150.354 163.411 148.936 163.396 148.417 162.744L146.584 163.282L146.44 162.838Z" fill="#F8C244"/>
<path d="M110.529 178.609C103.023 178.5 96.9746 175.932 97.019 172.874C97.019 172.533 96.7621 170.622 96.9103 170.306C98.0963 167.733 104.016 167.431 110.688 167.525C117.255 167.619 122.765 167.525 123.995 170.059C124.168 170.42 124.203 172.879 124.198 173.26C124.154 176.322 118.036 178.712 110.529 178.609Z" fill="#E8A825"/>
<path d="M124.097 170.705C124.141 167.645 118.093 165.077 110.589 164.97C103.084 164.862 96.965 167.256 96.9211 170.316C96.8773 173.377 102.925 175.944 110.43 176.052C117.934 176.159 124.054 173.765 124.097 170.705Z" fill="#F8C244"/>
<path d="M122.086 170.676C122.124 168.069 116.971 165.881 110.577 165.789C104.183 165.698 98.9695 167.738 98.9321 170.345C98.8948 172.953 104.048 175.141 110.442 175.232C116.835 175.323 122.049 173.284 122.086 170.676Z" fill="#E8A825"/>
<path d="M103.211 169.96L105.064 169.985C105.098 169.743 105.191 169.513 105.335 169.315C105.479 169.118 105.669 168.959 105.889 168.854L107.12 169.051C106.908 169.149 106.723 169.297 106.583 169.483C106.442 169.669 106.35 169.887 106.314 170.118C106.314 170.646 107.056 171.017 108.103 171.032C108.507 171.063 108.913 171.007 109.292 170.866C109.672 170.725 110.017 170.504 110.302 170.217C111.048 169.466 111.898 169.007 113.499 169.026C115.021 169.026 116.173 169.52 116.44 170.202L118.293 170.227V170.691L116.514 170.666C116.484 170.866 116.409 171.056 116.295 171.223C116.181 171.389 116.031 171.528 115.857 171.629L114.646 171.427C114.818 171.333 114.966 171.199 115.077 171.037C115.188 170.874 115.258 170.688 115.283 170.493C115.283 169.915 114.448 169.683 113.712 169.673C113.316 169.652 112.919 169.721 112.554 169.877C112.189 170.033 111.865 170.271 111.607 170.572C110.821 171.333 109.862 171.713 108.227 171.689C106.774 171.689 105.42 171.234 105.118 170.459L103.211 170.434V169.96Z" fill="#F8C244"/>
<path d="M162.758 156.185C155.899 159.233 149.326 159.43 148.086 156.635C147.948 156.324 146.91 154.699 146.91 154.348C146.91 151.518 152.158 148.762 158.276 146.055C164.28 143.393 169.241 140.993 171.42 142.79C171.737 143.042 172.794 145.26 172.947 145.611C174.168 148.416 169.617 153.143 162.758 156.185Z" fill="#E8A825"/>
<path d="M161.587 153.885C168.447 150.841 173 146.106 171.758 143.308C170.515 140.511 163.947 140.711 157.087 143.755C150.228 146.799 145.674 151.534 146.917 154.332C148.159 157.129 154.727 156.929 161.587 153.885Z" fill="#F8C244"/>
<path d="M161.254 153.137C167.099 150.543 170.978 146.509 169.919 144.125C168.861 141.742 163.265 141.912 157.42 144.505C151.576 147.099 147.696 151.133 148.755 153.517C149.814 155.9 155.41 155.73 161.254 153.137Z" fill="#E8A825"/>
<path d="M152.489 151.38L154.184 150.624C154.112 150.391 154.1 150.143 154.147 149.903C154.195 149.664 154.301 149.44 154.456 149.251L155.656 148.915C155.505 149.092 155.399 149.304 155.349 149.531C155.299 149.759 155.306 149.995 155.37 150.219C155.587 150.713 156.422 150.713 157.381 150.308C157.76 150.166 158.104 149.944 158.389 149.657C158.674 149.369 158.893 149.024 159.032 148.643C159.397 147.656 159.975 146.875 161.438 146.228C162.901 145.581 164.067 145.542 164.601 146.06L166.296 145.31L166.483 145.734L164.858 146.455C164.915 146.649 164.927 146.854 164.893 147.053C164.86 147.252 164.782 147.441 164.665 147.606L163.479 147.927C163.598 147.77 163.677 147.586 163.71 147.392C163.742 147.198 163.728 146.999 163.667 146.811C163.435 146.283 162.575 146.426 161.903 146.727C161.532 146.872 161.2 147.101 160.934 147.396C160.667 147.69 160.473 148.043 160.366 148.426C159.97 149.444 159.254 150.184 157.762 150.851C156.432 151.439 155.024 151.612 154.426 151.034L152.696 151.829L152.489 151.38Z" fill="#F8C244"/>
<path d="M81.537 149.527C75.9628 144.509 73.1016 138.597 75.1474 136.32C75.3748 136.068 76.4372 134.458 76.7584 134.315C79.3429 133.159 83.9979 136.829 88.9593 141.294C93.8367 145.685 98.0519 149.231 97.3057 151.957C97.197 152.343 95.6058 154.214 95.3291 154.501C93.3129 156.773 87.1309 154.545 81.537 149.527Z" fill="#E8A825"/>
<path d="M96.9704 152.486C99.0194 150.211 96.159 144.298 90.5815 139.279C85.004 134.259 78.8215 132.034 76.7725 134.308C74.7235 136.583 77.584 142.496 83.1615 147.515C88.739 152.535 94.9215 154.76 96.9704 152.486Z" fill="#F8C244"/>
<path d="M95.4759 151.14C97.2218 149.202 94.7848 144.164 90.0327 139.888C85.2807 135.611 80.0131 133.715 78.2673 135.653C76.5215 137.591 78.9585 142.629 83.7105 146.906C88.4625 151.182 93.7301 153.078 95.4759 151.14Z" fill="#E8A825"/>
<path d="M81.7395 138.202L83.1183 139.442C83.3047 139.284 83.5264 139.173 83.7646 139.119C84.0029 139.065 84.2507 139.069 84.4871 139.131L85.2827 140.089C85.0586 140.023 84.8216 140.013 84.593 140.062C84.3643 140.11 84.1514 140.214 83.9732 140.365C83.6174 140.761 83.9386 141.531 84.7144 142.232C84.9988 142.521 85.3421 142.744 85.7207 142.887C86.0994 143.03 86.5046 143.09 86.9085 143.062C87.966 142.988 88.8852 143.201 90.0959 144.272C91.3066 145.344 91.7958 146.396 91.5388 147.093L92.9175 148.332L92.6062 148.678L91.2818 147.488C91.1275 147.619 90.9455 147.713 90.7495 147.763C90.5535 147.814 90.3486 147.819 90.1502 147.779L89.3744 146.831C89.5669 146.873 89.7667 146.869 89.9574 146.82C90.1481 146.77 90.3243 146.675 90.4714 146.544C90.8618 146.115 90.3775 145.389 89.829 144.9C89.5461 144.62 89.2018 144.41 88.8235 144.287C88.4452 144.163 88.0433 144.129 87.6497 144.188C86.5626 144.243 85.5891 143.897 84.3734 142.8C83.2962 141.813 82.5599 140.612 82.8465 139.837L81.4282 138.538L81.7395 138.202Z" fill="#F8C244"/>
<path d="M121.362 160.512C113.885 161.198 107.599 159.287 107.318 156.239C107.288 155.903 106.823 154.032 106.937 153.696C107.841 151.014 113.697 150.085 120.344 149.473C126.882 148.87 132.352 148.184 133.844 150.584C134.057 150.925 134.338 153.365 134.383 153.745C134.665 156.812 128.833 159.82 121.362 160.512Z" fill="#E8A825"/>
<path d="M120.988 157.964C128.461 157.275 134.292 154.246 134.01 151.198C133.729 148.15 127.443 146.238 119.969 146.927C112.496 147.616 106.665 150.645 106.946 153.693C107.228 156.741 113.514 158.653 120.988 157.964Z" fill="#F8C244"/>
<path d="M120.912 157.147C127.28 156.56 132.247 153.979 132.008 151.383C131.768 148.786 126.412 147.157 120.044 147.744C113.677 148.331 108.709 150.912 108.949 153.509C109.189 156.105 114.545 157.734 120.912 157.147Z" fill="#E8A825"/>
<path d="M113.163 152.688L115.012 152.516C115.022 152.272 115.091 152.034 115.213 151.822C115.335 151.611 115.507 151.432 115.713 151.301L116.954 151.37C116.754 151.49 116.587 151.658 116.468 151.857C116.348 152.057 116.279 152.283 116.267 152.516C116.316 153.044 117.102 153.335 118.144 153.237C118.549 153.224 118.946 153.125 119.308 152.945C119.671 152.765 119.99 152.509 120.245 152.195C120.907 151.365 121.702 150.817 123.294 150.673C124.885 150.53 126.007 150.866 126.348 151.528L128.196 151.355L128.235 151.819L126.461 151.982C126.453 152.184 126.4 152.381 126.305 152.559C126.21 152.736 126.076 152.891 125.913 153.009L124.687 152.935C124.847 152.824 124.979 152.677 125.072 152.505C125.165 152.333 125.216 152.142 125.221 151.948C125.167 151.375 124.307 151.236 123.575 151.301C123.182 151.324 122.799 151.437 122.457 151.632C122.114 151.826 121.821 152.096 121.599 152.422C120.902 153.261 119.983 153.736 118.357 153.903C116.909 154.037 115.52 153.75 115.135 153.014L113.233 153.187L113.163 152.688Z" fill="#F8C244"/>
<path d="M87.1408 166.197C81.0725 161.781 77.6183 156.195 79.4171 153.726C79.6197 153.449 80.5092 151.75 80.8106 151.562C83.2814 150.145 88.2725 153.311 93.6588 157.237C98.9661 161.105 103.542 164.197 103.048 166.982C102.984 167.382 101.565 169.407 101.368 169.714C99.5888 172.168 93.2091 170.593 87.1408 166.197Z" fill="#E8A825"/>
<path d="M102.786 167.526C104.588 165.052 101.131 159.467 95.0639 155.051C88.9966 150.635 82.6169 149.062 80.8145 151.536C79.012 154.01 82.4693 159.595 88.5365 164.011C94.6038 168.426 100.984 170 102.786 167.526Z" fill="#F8C244"/>
<path d="M101.16 166.343C102.696 164.235 99.7502 159.476 94.5809 155.714C89.4116 151.952 83.976 150.611 82.4402 152.719C80.9044 154.827 83.85 159.586 89.0193 163.348C94.1886 167.11 99.6242 168.451 101.16 166.343Z" fill="#E8A825"/>
<path d="M86.1575 154.896L87.64 155.987C87.809 155.81 88.0179 155.677 88.2493 155.598C88.4806 155.519 88.7275 155.497 88.9693 155.533L89.8588 156.407C89.6293 156.363 89.3927 156.378 89.1701 156.448C88.9476 156.519 88.7461 156.644 88.5839 156.812C88.2725 157.242 88.6679 157.978 89.5178 158.595C89.8288 158.853 90.1925 159.04 90.5834 159.144C90.9743 159.247 91.3831 159.264 91.7811 159.193C92.8287 159.01 93.7874 159.123 95.0821 160.067C96.3768 161.01 96.9896 162.003 96.8067 162.719L98.2892 163.811L98.0174 164.186L96.5794 163.139C96.4394 163.286 96.2679 163.399 96.0779 163.47C95.8879 163.541 95.6843 163.568 95.4824 163.549L94.6127 162.685C94.8083 162.707 95.0065 162.682 95.191 162.614C95.3756 162.545 95.5414 162.434 95.6751 162.289C96.0161 161.82 95.4577 161.148 94.8647 160.719C94.5551 160.469 94.1918 160.295 93.8034 160.209C93.415 160.123 93.0121 160.129 92.6261 160.225C91.5439 160.393 90.5407 160.146 89.2213 159.188C88.0452 158.333 87.1903 157.212 87.3929 156.392L85.8462 155.266L86.1575 154.896Z" fill="#F8C244"/>
<path d="M99.3614 160.764C92.7693 157.183 88.6035 152.106 90.0662 149.404C90.2293 149.108 90.8816 147.295 91.1633 147.078C93.4068 145.354 98.7882 147.833 104.654 151.029C110.426 154.16 115.353 156.625 115.259 159.45C115.259 159.855 114.137 162.043 113.954 162.379C112.491 165.051 105.959 164.33 99.3614 160.764Z" fill="#E8A825"/>
<path d="M115.048 160.044C116.509 157.354 112.347 152.272 105.751 148.693C99.155 145.114 92.6236 144.392 91.1625 147.082C89.7013 149.772 93.8638 154.854 100.46 158.433C107.055 162.013 113.587 162.734 115.048 160.044Z" fill="#F8C244"/>
<path d="M113.28 159.085C114.525 156.793 110.979 152.463 105.359 149.413C99.7398 146.363 94.1749 145.749 92.93 148.041C91.685 150.333 95.2314 154.663 100.851 157.712C106.471 160.762 112.035 161.376 113.28 159.085Z" fill="#E8A825"/>
<path d="M96.9005 149.695L98.5312 150.579C98.6733 150.38 98.8629 150.218 99.0828 150.11C99.3027 150.001 99.5462 149.949 99.7913 149.957L100.78 150.703C100.547 150.691 100.316 150.737 100.106 150.836C99.8952 150.935 99.7126 151.084 99.5739 151.271C99.3169 151.765 99.8062 152.417 100.73 152.916C101.072 153.131 101.457 153.27 101.859 153.321C102.26 153.372 102.667 153.335 103.053 153.212C104.041 152.891 105.029 152.881 106.438 153.642C107.846 154.402 108.587 155.311 108.498 156.047L110.129 156.936L109.907 157.341L108.34 156.492C108.222 156.655 108.068 156.79 107.89 156.885C107.712 156.98 107.514 157.033 107.313 157.04L106.324 156.299C106.519 156.295 106.711 156.244 106.883 156.152C107.055 156.059 107.202 155.926 107.313 155.766C107.589 155.272 106.952 154.664 106.324 154.313C105.983 154.11 105.6 153.987 105.204 153.955C104.808 153.924 104.41 153.984 104.041 154.131C102.994 154.442 101.966 154.328 100.533 153.548C99.2527 152.856 98.2545 151.849 98.3484 151.019L96.6682 150.11L96.9005 149.695Z" fill="#F8C244"/>
<path d="M135.425 167.758C142.306 167.758 147.883 162.183 147.883 155.306C147.883 148.429 142.306 142.854 135.425 142.854C128.545 142.854 122.968 148.429 122.968 155.306C122.968 162.183 128.545 167.758 135.425 167.758Z" fill="#E8A825"/>
<path d="M134.042 167.758C140.922 167.758 146.5 162.183 146.5 155.306C146.5 148.429 140.922 142.854 134.042 142.854C127.162 142.854 121.584 148.429 121.584 155.306C121.584 162.183 127.162 167.758 134.042 167.758Z" fill="#F8C244"/>
<path d="M134.042 165.916C139.904 165.916 144.657 161.166 144.657 155.307C144.657 149.447 139.904 144.697 134.042 144.697C128.18 144.697 123.427 149.447 123.427 155.307C123.427 161.166 128.18 165.916 134.042 165.916Z" fill="#E8A825"/>
<path d="M133.068 161.989V160.27C132.157 160.265 131.264 160.009 130.489 159.529L130.894 158.398C131.616 158.868 132.459 159.12 133.32 159.124C134.516 159.124 135.327 158.432 135.327 157.474C135.327 156.516 134.669 155.993 133.419 155.469C131.704 154.797 130.642 154.022 130.642 152.56C130.642 151.098 131.63 150.09 133.187 149.848V148.169H134.23V149.799C134.998 149.806 135.752 150.01 136.419 150.392L135.999 151.503C135.358 151.121 134.625 150.923 133.879 150.93C132.579 150.93 132.09 151.705 132.09 152.377C132.09 153.251 132.712 153.691 134.18 154.293C135.915 155.005 136.789 155.879 136.789 157.375C136.789 158.704 135.865 159.954 134.131 160.24V161.989H133.068Z" fill="#F8C244"/>
<path d="M106.393 168.593C113.274 168.593 118.851 163.018 118.851 156.141C118.851 149.264 113.274 143.689 106.393 143.689C99.5131 143.689 93.9355 149.264 93.9355 156.141C93.9355 163.018 99.5131 168.593 106.393 168.593Z" fill="#E8A825"/>
<path d="M105.01 168.593C111.89 168.593 117.467 163.018 117.467 156.141C117.467 149.264 111.89 143.689 105.01 143.689C98.1293 143.689 92.5518 149.264 92.5518 156.141C92.5518 163.018 98.1293 168.593 105.01 168.593Z" fill="#F8C244"/>
<path d="M105.01 166.75C110.872 166.75 115.624 162 115.624 156.141C115.624 150.281 110.872 145.531 105.01 145.531C99.1473 145.531 94.395 150.281 94.395 156.141C94.395 162 99.1473 166.75 105.01 166.75Z" fill="#E8A825"/>
<path d="M104.036 162.829V161.125C103.125 161.125 102.233 160.868 101.462 160.384L101.862 159.258C102.584 159.727 103.427 159.979 104.288 159.984C105.484 159.984 106.295 159.292 106.295 158.334C106.295 157.376 105.637 156.852 104.392 156.329C102.672 155.657 101.61 154.881 101.61 153.415C101.61 151.948 102.598 150.945 104.155 150.708V149.004H105.198V150.639C105.966 150.644 106.719 150.846 107.387 151.227L106.967 152.338C106.326 151.955 105.593 151.757 104.847 151.765C103.547 151.765 103.058 152.54 103.058 153.212C103.058 154.091 103.685 154.526 105.148 155.133C106.883 155.84 107.757 156.714 107.757 158.215C107.757 159.544 106.833 160.789 105.099 161.075V162.829H104.036Z" fill="#F8C244"/>
<path d="M121.767 182.15C128.647 182.15 134.225 176.575 134.225 169.699C134.225 162.822 128.647 157.247 121.767 157.247C114.887 157.247 109.309 162.822 109.309 169.699C109.309 176.575 114.887 182.15 121.767 182.15Z" fill="#E8A825"/>
<path d="M120.556 181.483C127.436 181.483 133.014 175.908 133.014 169.032C133.014 162.155 127.436 156.58 120.556 156.58C113.676 156.58 108.098 162.155 108.098 169.032C108.098 175.908 113.676 181.483 120.556 181.483Z" fill="#F8C244"/>
<path d="M120.556 179.641C126.418 179.641 131.171 174.891 131.171 169.032C131.171 163.173 126.418 158.423 120.556 158.423C114.694 158.423 109.941 163.173 109.941 169.032C109.941 174.891 114.694 179.641 120.556 179.641Z" fill="#E8A825"/>
<path d="M116.479 174.421L117.299 172.939C116.502 172.499 115.843 171.845 115.397 171.052L116.296 170.257C116.702 171.016 117.318 171.642 118.07 172.06C119.123 172.638 120.161 172.42 120.625 171.566C121.09 170.711 120.773 169.936 119.924 168.894C118.742 167.476 118.184 166.286 118.891 165.002C119.597 163.718 120.946 163.327 122.429 163.851L123.244 162.369L124.158 162.863L123.373 164.295C124.043 164.671 124.606 165.212 125.008 165.866L124.104 166.637C123.726 165.993 123.177 165.467 122.518 165.115C121.381 164.488 120.581 164.933 120.26 165.52C119.835 166.291 120.171 166.972 121.164 168.207C122.34 169.664 122.686 170.855 121.964 172.158C121.322 173.324 119.914 173.966 118.253 173.383L117.408 174.915L116.479 174.421Z" fill="#F8C244"/>
<defs>
<linearGradient id="paint0_linear" x1="123.526" y1="195.703" x2="126.656" y2="87.956" gradientUnits="userSpaceOnUse">
<stop stop-color="#010101" stop-opacity="0"/>
<stop offset="0.95" stop-color="#010101"/>
</linearGradient>
<linearGradient id="paint1_linear" x1="11371.1" y1="3098.8" x2="18761.1" y2="3098.8" gradientUnits="userSpaceOnUse">
<stop stop-color="#010101" stop-opacity="0"/>
<stop offset="0.95" stop-color="#010101"/>
</linearGradient>
<linearGradient id="paint2_linear" x1="5585.91" y1="340.945" x2="5586" y2="361.651" gradientUnits="userSpaceOnUse">
<stop stop-color="#010101" stop-opacity="0"/>
<stop offset="0.95" stop-color="#010101"/>
</linearGradient>
</defs>
</svg>
